<svg style="enable-background:new 0 0 512 512" version="1.1" viewBox="0 0 512 512" xmlns="http://www.w3.org/2000/svg">
	<g style="fill:#fff">
		<g style="fill:#fff">
			<polygon points="339.39 258.62 512 367.74 512 144.9" style="fill:#fff"/>
			<polygon points="0 144.9 0 367.74 172.61 258.62" style="fill:#fff"/>
			<path d="M480,80H32C16.032,80,3.36,91.904,0.96,107.232L256,275.264l255.04-168.032C508.64,91.904,495.968,80,480,80z" style="fill:#fff"/>
			<path d="m310.08 277.95-45.28 29.824c-2.688 1.76-5.728 2.624-8.8 2.624s-6.112-0.864-8.8-2.624l-45.28-29.856-200.9 127.07c2.464 15.2 15.072 27.008 30.976 27.008h448c15.904 0 28.512-11.808 30.976-27.008l-200.9-127.04z" style="fill:#fff"/>
		</g>
	</g>
</svg>
