<svg width="40" height="40" enable-background="new" version="1.1" viewBox="0 0 10.583 10.583" xmlns="http://www.w3.org/2000/svg">
	<g>
		<g transform="matrix(1.5119 0 0 1.5119 -56.459 -327.45)" enable-background="new" fill="#fff" stroke-width=".016213">
			<path d="m42.552 218.79c-0.21564 0-0.38912-0.17349-0.38912-0.38913s0.17348-0.38912 0.38912-0.38912c0.21402 0 0.38912 0.17348 0.38912 0.38912s-0.1751 0.38913-0.38912 0.38913zm-1.6862 0.25941c0.57233 0 1.0377 0.46533 1.0377 1.0377 0 0.57234-0.46533 1.0377-1.0377 1.0377-0.57234 0-1.0377-0.46532-1.0377-1.0377 0-0.57233 0.46533-1.0377 1.0377-1.0377m0-0.51883c-0.85931 0-1.5565 0.69718-1.5565 1.5565s0.69718 1.5565 1.5565 1.5565c0.85931 0 1.5565-0.69718 1.5565-1.5565s-0.69718-1.5565-1.5565-1.5565z"/>
			<path d="m42.163 217.5c0.34372 0 0.66962 0.13619 0.91606 0.38102 0.24644 0.24482 0.38102 0.57233 0.38102 0.91606v2.5942c0 0.34372-0.13619 0.66961-0.38102 0.91606-0.24482 0.24644-0.57233 0.38101-0.91606 0.38101h-2.5942c-0.34372 0-0.66962-0.13619-0.91606-0.38101-0.24644-0.24483-0.38102-0.57234-0.38102-0.91606v-2.5942c0-0.34373 0.13619-0.66962 0.38102-0.91606 0.24482-0.24645 0.57234-0.38102 0.91606-0.38102h2.5942m0-0.51883h-2.5942c-0.99875 0-1.8159 0.81716-1.8159 1.8159v2.5942c0 0.99874 0.81716 1.8159 1.8159 1.8159h2.5942c0.99875 0 1.8159-0.81716 1.8159-1.8159v-2.5942c0-0.99875-0.81716-1.8159-1.8159-1.8159z"/>
		</g>
	</g>
</svg>
