<svg id="Hexels SVG Export" version="1.1" viewBox="-10 -10 200 200" xml:space="preserve" xmlns="http://www.w3.org/2000/svg" xmlns:cc="http://creativecommons.org/ns#" xmlns:dc="http://purl.org/dc/elements/1.1/" xmlns:rdf="http://www.w3.org/1999/02/22-rdf-syntax-ns#"><metadata><rdf:RDF><cc:Work rdf:about=""><dc:format>image/svg+xml</dc:format><dc:type rdf:resource="http://purl.org/dc/dcmitype/StillImage"/><dc:title/></cc:Work></rdf:RDF></metadata>
<g id="Root" transform="translate(.45 -2.015)">
<polygon points="30 30 30 10 50 10 50 30" style="fill:#fff;stroke-width:.03;stroke:#fff"/>
<polygon points="130 30 130 10 150 10 150 30" style="fill:#fff;stroke-width:.03;stroke:#fff"/>
<path d="m49.65 29.65h20.7l-0.12 19.91 39.55-0.01-0.13-19.91 20.7 0.01 0.01 20h20v20h20v20l20.09 0.13v40.45l-20.8 0.13-0.01-20.01h-19.29v20.01h-20v20l-20.7-0.01 0.12-19.91-39.55 0.01 0.13 19.91-20.7-0.01-0.01-20h-20v-20h-19.29v20.01l-20.8-0.13v-40.46l20.1-0.13v-20h20v-20l20 0.01zm20 40.7h-19.3v19.3h19.3zm60 0h-19.3v19.3h19.3z" style="fill:#fff"/>
<polygon points="30 170 30 150 50 150 50 170" style="fill:#fff;stroke-width:.03;stroke:#fff"/>
<polygon points="130 170 130 150 150 150 150 170" style="fill:#fff;stroke-width:.03;stroke:#fff"/>
</g></svg>
