<svg enable-background="new" version="1.1" viewBox="0 0 10.583 10.583" xmlns="http://www.w3.org/2000/svg">
	<g>
		<g transform="matrix(1.1558 0 0 1.1558 -74.383 9.7618)" enable-background="new">
			<path transform="translate(0 -223.6)" d="m66.692 222.16-1.6329-2.9256 1.939-1.3267 2.7895 0.20411 0.57831 1.7009-1.4288 2.1431z" enable-background="new" fill="#fd024c" fill-rule="evenodd"/>
			<path transform="translate(0 -223.6)" d="m64.893 217.27c-0.22171 0-0.24894 0.29267-0.24894 0.29267s-0.02992 2.687-0.0082 4.3371c0.06015 0.8891 0.94885 0.98024 0.94885 0.98024s3.033-9e-3 4.3898-0.0177c0.89452-0.1567 0.98432-0.94137 0.97546-1.3705 1.5963 0.0887 2.7227-1.0377 2.4388-2.5366l-9.3e-5 -1e-4c-0.28375-1.4989-1.7825-1.6851-1.7825-1.6851zm6.0856 1.0746h0.6489s0.72346 0.20206 0.72346 0.9678c0 0.70192-0.3617 0.97847-0.75533 1.1061-0.34043 0.0425-0.61703 0.0106-0.61703 0.0106zm-2.2895 0.23841c0.11921-1.7e-4 0.24573 0.0226 0.37661 0.079 0.69804 0.30038 0.67158 1.1042 0.26511 1.5812-0.45699 0.53321-1.4714 1.4591-1.4714 1.4591s-0.04428 0.0434-0.1136 9e-3v-9e-5c-0.02788-0.0206-0.03972-0.0329-0.03972-0.0329-0.16264-0.16176-1.2358-1.1182-1.4799-1.4506-0.26009-0.35411-0.38183-0.99036-0.03321-1.3611 0.34859-0.37071 1.1024-0.39846 1.6004 0.1493 0 0 0.37915-0.43158 0.89573-0.43231z" enable-background="new" fill="#fff" stroke-width=".017068"/>
		</g>
	</g>
</svg>
