<?xml version="1.0" encoding="UTF-8" standalone="no"?><!DOCTYPE svg PUBLIC "-//W3C//DTD SVG 1.1//EN" "http://www.w3.org/Graphics/SVG/1.1/DTD/svg11.dtd"><svg width="100%" height="100%" viewBox="0 0 842 596" version="1.1" xmlns="http://www.w3.org/2000/svg" xmlns:xlink="http://www.w3.org/1999/xlink" xml:space="preserve" xmlns:serif="http://www.serif.com/" style="fill-rule:evenodd;clip-rule:evenodd;stroke-linejoin:round;stroke-miterlimit:2;"><path id="path4571" d="M612.439,102.379l-1.758,0.344c-1.908,0.375 -5.011,2.035 -7.091,3.793c-0.722,0.609 -3.334,3.151 -5.806,5.65c-5.012,5.065 -8.148,7.557 -10.869,8.639c-2.656,1.056 -6.207,5.552 -11.421,14.458c-4.722,8.065 -5.747,9.591 -9.501,14.159c-1.918,2.334 -2.915,4.06 -4.26,7.37c-0.966,2.377 -2.51,6.145 -3.432,8.375c-0.921,2.229 -3.05,8.584 -4.73,14.122c-3.505,11.551 -7.74,24.315 -9.794,29.517c-0.776,1.967 -2.072,5.929 -2.878,8.805c-2.498,8.906 -17.572,46.891 -28.199,72.086c-5.644,13.384 -13.662,32.454 -17.818,42.378c-4.156,9.925 -11.103,26.297 -15.439,36.384c-6.136,14.274 -7.976,18.953 -8.297,21.11c-0.428,1.671 -0.888,2.97 -1.327,4.021c-1.435,-0.712 -2.398,-1.18 -3.906,-1.931c-10.874,-5.475 -20.115,-9.595 -27.964,-12.618c-0.109,-0.059 -0.221,-0.124 -0.329,-0.18c-1.521,-0.791 -11.145,-5.002 -14.175,-6.426c-3.031,-1.425 -9.163,-4.524 -13.628,-6.887c-4.464,-2.363 -9.984,-5.14 -12.265,-6.171c-4.066,-1.839 -4.229,-1.875 -8.295,-1.913c-3.87,-0.036 -4.294,-0.121 -6.321,-1.261c-1.195,-0.673 -3.551,-2.216 -5.237,-3.43c-4.418,-3.18 -6.518,-3.863 -12.179,-3.959c-4.121,-0.07 -4.773,-0.179 -5.84,-0.968c-0.661,-0.489 -1.393,-0.888 -1.626,-0.888c-0.233,0 -1.708,-0.872 -3.275,-1.938c-1.568,-1.066 -3.513,-2.253 -4.322,-2.637c-2.818,-1.359 -5.418,-4.868 -1.393,-5.748c2.003,-0.37 2.502,0.008 4.026,-1.476c3.391,-3.301 5.525,-4.063 13.479,-4.809c8.459,-0.794 11.395,-1.786 14.843,-5.012l1.921,-1.794l2.237,0.448c4.707,0.946 8.102,0.342 12.977,-2.308c4.003,-2.177 5.662,-2.552 7.689,-1.741c1.592,0.638 1.669,0.63 3.483,-0.351c2.667,-1.442 4.217,-1.766 11.689,-2.449c8.668,-0.793 10.454,-1.24 17.48,-4.37c13.097,-5.835 17.781,-6.76 22.577,-4.46c0.934,0.448 1.816,0.697 1.96,0.553c3.494,-5.402 3.829,-6.007 12.235,-4.616c5.72,1.63 6.948,1.615 8.542,-0.101c0.681,-0.732 1.79,-1.613 2.464,-1.955c1.824,-0.927 3.597,-3.155 3.88,-4.877c0.385,-2.342 -0.709,-5.682 -3.74,-11.418c-1.626,-3.079 -2.749,-5.685 -2.749,-6.382c-0,-0.649 -0.688,-2.672 -1.528,-4.495c-0.84,-1.822 -2.638,-5.98 -3.995,-9.238c-4.539,-10.901 -8.784,-18.621 -11.49,-20.898c-2.313,-1.946 -6.356,-2.3 -13.503,-1.18c-2.225,0.348 -5.913,0.653 -8.194,0.678c-4.779,0.052 -7.33,-0.626 -9.993,-2.653c-2.533,-1.928 -2.561,-1.936 -3.806,-1.049c-1.939,1.381 -4.488,2.371 -6.129,2.381c-1.374,0.007 -1.79,-0.237 -3.486,-2.044l-1.925,-2.051l-4.81,0.914c-8.325,1.583 -8.913,1.651 -10.496,1.225c-0.822,-0.221 -1.818,-0.758 -2.212,-1.194c-0.574,-0.634 -1.215,-0.792 -3.234,-0.792c-2.943,-0 -4.279,0.504 -7.207,2.721c-2.495,1.888 -3.235,1.982 -5,0.636c-0.712,-0.543 -1.768,-0.987 -2.345,-0.987c-0.594,-0 -2.074,-0.718 -3.41,-1.656c-1.964,-1.377 -2.672,-1.655 -4.21,-1.649c-1.034,0.004 -2.7,0.386 -3.777,0.866c-2.593,1.157 -4.135,1.093 -12.49,-0.523c-8.197,-1.585 -13.03,-1.786 -17.431,-0.724l-2.73,0.659l-1.08,-1.009c-2.621,-2.452 -5.565,-3.066 -9.965,-2.081c-1.629,0.364 -3.929,0.759 -5.109,0.877c-2.011,0.201 -2.204,0.143 -3.057,-0.926c-0.885,-1.107 -1.015,-1.141 -4.373,-1.11c-3.013,0.028 -4.179,0.27 -9.022,1.876c-5.836,1.935 -7.76,2.2 -9.029,1.24c-1.846,-1.396 -29.531,0.635 -35.096,2.853c-6.428,2.563 -9.006,4.854 -15.747,13.997c-7.589,10.294 -10.237,15.366 -10.523,20.152l-0.096,1.579l2.964,1.46c1.629,0.803 4.562,1.915 6.517,2.471c7.381,2.101 27.906,1.178 56.698,1.556c27.286,0.358 35.093,0.186 45.956,-1.011c9.037,-0.996 26.416,-0.584 30.399,0.721c3.218,1.055 1.193,3.163 -3.409,3.549c-3.678,0.86 -6.02,3.213 -10.048,5.238c-5.071,1.326 -6.904,3.848 -13.042,4.343c-10.277,1.152 -10.336,2.028 -19.103,4.598c-3.961,-0.425 -7.413,1.186 -11.1,1.928c-3.759,0.174 -6.266,-1.193 -14.392,2.179c-2.681,1.112 -4.333,1.526 -6.953,1.743c-6.909,0.572 -11.238,3.863 -17.956,13.648c-1.938,2.824 -4.335,6.133 -5.326,7.355c-0.991,1.221 -2.922,3.798 -4.292,5.727c-1.369,1.929 -3.818,5.108 -5.442,7.064c-1.623,1.955 -3.681,5.009 -4.573,6.788c-1.523,3.036 -1.619,3.434 -1.597,6.531l0.025,3.301l-1.848,0.848c-3.495,1.605 -4.395,5.345 -2.287,9.505c2.792,5.51 8.017,7.894 12.398,5.659l1.641,-0.838l2.879,1.144c5.981,2.376 14.589,3.589 25.587,3.605c29.258,0.043 45.95,7.241 69.849,15.768c2.489,0.888 9.427,3.027 15.419,4.753c10.78,3.106 18.13,5.49 20.168,6.544c0.579,0.299 2.892,0.991 5.14,1.536c1.127,0.274 3.024,0.764 5.168,1.334c2.052,0.868 10.365,3.736 13.201,4.826c7.953,3.057 18.594,6.444 28.209,10.957c-0.99,3.807 -2.65,9.781 -3.923,11.882c-0.637,1.052 -1.97,4.418 -2.962,7.48c-0.992,3.063 -4.528,13.117 -7.857,22.341c-9.432,26.128 -12.935,37.29 -15.541,49.512c-1.463,6.865 -2.837,16.602 -2.96,20.997l-0.088,3.171l1.019,-1.049c1.459,-1.498 5.569,-7.405 8.316,-11.954c4.216,-7.272 6.372,-10.73 9.737,-15.063c1.333,-1.74 1.392,-1.756 2.646,-0.677c2.424,2.085 6.299,0.314 5.894,-2.694c-1.152,-1.93 -1.447,-4.056 0.258,-5.008c5.444,-1.815 9.779,-3.728 11.689,-5.159c0.897,-0.673 3.886,-3.883 6.644,-7.134c3.449,-4.088 6.442,-9.11 7.224,-16.992c0.233,-0.197 1.157,-0.614 2.054,-0.928c3.54,-2.244 8.993,-24.221 11.806,-36.499c0.869,0.244 1.796,0.535 2.904,0.93c6.376,2.273 8.12,2.582 12.63,2.237c0.277,-0.021 1.214,-0.005 2.083,0.036c1.863,0.089 3.584,-0.254 4.218,-0.84c0.531,-0.491 0.052,-2.174 -0.731,-2.568c-0.846,-0.426 -0.699,-1.569 -0.029,-1.971c0.924,0.315 1.612,0.539 2.684,0.91c9.34,3.231 14.802,0.738 15.408,0.363c1.121,-0.692 -2.288,-4.059 -16.814,-11.992c-0.928,-0.507 -1.808,-0.996 -2.664,-1.474c0.095,-0.115 0.212,-0.232 0.374,-0.354c1.188,-0.902 1.784,-0.905 3.567,-0.014c0.907,0.454 1.7,0.722 1.764,0.595c0.063,-0.127 0.587,0.094 1.166,0.492c0.896,0.618 1.179,0.677 1.921,0.4l0.871,-0.323l-0.258,-0.986c-1.18,-3.921 -10.163,-6.816 -17.471,-9.321c2.499,-4.736 7.36,-13.773 9.032,-15.608c2.282,-1.452 3.11,-4.312 3.354,-11.607c0.343,-10.22 0.538,-11.23 2.323,-12.03c1.681,-0.752 2.883,-4.991 3.897,-13.737c0.247,-2.128 0.676,-4.2 0.955,-4.606c0.484,-0.704 0.534,-0.702 1.129,0.02c1.568,1.898 1.584,1.899 2.697,0.399c1.196,-1.611 2.094,-4.89 2.716,-9.914c0.69,-5.575 0.935,-6.482 1.758,-6.53c0.402,-0.023 0.848,0.218 0.992,0.536c0.537,1.19 1.006,0.44 1.857,-2.972c1.395,-5.592 2.784,-8.339 10.251,-20.281c1.694,-2.709 3.151,-5.465 3.239,-6.123c0.291,-2.19 2.397,-7.28 5.469,-13.217c5.428,-10.489 6.401,-13.125 8.124,-22.024c1.285,-6.632 2.517,-9.877 4.911,-12.936c0.85,-1.087 2.15,-3.724 3.146,-6.384c0.934,-2.492 14.464,-36.184 15.403,-38.204c0.938,-2.02 2.581,-6.127 3.65,-9.126c4.704,-13.196 7.967,-18.662 11.252,-18.853c1.68,-0.098 5.363,-2.619 7.345,-5.027c4.84,-5.883 6.475,-14.121 3.996,-20.149c-0.731,-1.778 -0.823,-2.448 -0.576,-4.198c0.225,-1.594 0.068,-3.352 -0.667,-7.49c-1.451,-8.173 -1.39,-9.536 0.433,-9.642c0.978,-0.056 2.173,-2.53 2.308,-4.774c0.069,-1.146 -0.215,-3.169 -0.699,-4.976c-1.058,-3.951 -1.06,-3.877 0.229,-5.53c0.608,-0.778 1.088,-1.715 1.066,-2.081c-0.021,-0.366 0.317,-2.498 0.752,-4.739c0.99,-5.098 0.643,-10.032 -0.916,-13.03l-0.975,-1.876Zm-234.019,46.23c-2.615,0.032 -3.868,0.514 -6.394,2.463c-2.349,1.812 -6.457,3.4 -13.203,5.103c-6.741,1.702 -7.989,2.252 -12.227,5.392c-12.447,9.045 -27.035,15.174 -41.08,21.66c-5.782,2.901 -9.244,4.313 -12.158,4.958c-1.026,0.227 -5.509,1.808 -9.963,3.514c-13.294,5.092 -21.291,7.797 -29.143,9.857c-2.725,0.715 -5.291,1.682 -6.697,2.524c-4.411,2.643 -8.009,3.694 -21.239,6.207c-2.39,0.454 -6.121,1.418 -8.294,2.144c-2.172,0.726 -4.995,1.434 -6.271,1.572c-2.192,0.237 -5.4,1.214 -16.075,4.895c-2.514,0.867 -7.579,2.148 -11.257,2.847c-15.246,2.894 -20.754,4.692 -25.648,8.374c-3.842,2.891 -6.355,3.345 -13.825,2.493c-8.998,-1.026 -13.107,-0.732 -17.579,1.259c-2.068,0.92 -2.308,0.944 -5.031,0.486c-6.651,-1.119 -16.237,0.372 -22.798,3.548c-2.771,1.341 -3.553,1.956 -5.383,4.238c-2.894,3.608 -6.477,6.554 -13.991,11.504c-4.54,2.992 -7.562,5.073 -9.694,6.723c-0.176,-0.99 -1.486,-0.539 -6.667,2.125c-6.434,3.309 -6.748,3.366 -9.584,1.767c-3.626,-2.046 -4.053,-1.875 -6.365,2.559c-1.155,2.215 -1.502,4.434 -0.915,5.858c1.027,2.494 1.632,2.22 7.175,-3.254c3.093,-3.055 3.185,-3.103 3.669,-1.927c0.208,0.505 -1.11,2.547 -2.93,4.538c-2.216,2.424 -2.964,3.984 -2.264,4.724c0.698,0.738 0.398,1.371 -0.904,1.907c-2.975,1.225 -4.809,6.626 -2.923,7.745c0.102,0.33 0.366,0.554 0.79,0.773c0.543,0.28 1.166,0.512 1.383,0.513c2.881,0.015 23.054,-1.262 40.684,-2.574c1.738,-0.129 8.493,-0.384 15.011,-0.567c11.346,-0.318 12.055,-0.383 16.673,-1.544c8.198,-2.06 14.656,-4.012 17.418,-5.264c1.455,-0.66 6.038,-2.585 10.185,-4.276c8.543,-3.484 14.676,-6.463 18.113,-8.797c1.844,-1.252 3.11,-1.75 5.902,-2.323c7.364,-1.511 11.922,-3.175 25.612,-9.36c9.739,-4.4 13.811,-6.096 17.649,-7.352c1.175,-0.385 4.196,-1.67 6.715,-2.855c20.243,-9.527 42.464,-16.82 59.288,-19.461c1.629,-0.256 4.829,-1.056 7.11,-1.778c6.108,-1.935 12.132,-3.187 25.635,-5.325c6.649,-1.053 14.132,-2.276 16.63,-2.719c2.499,-0.442 5.964,-1.006 7.702,-1.253c1.738,-0.248 8.227,-1.406 14.419,-2.573c12.798,-2.412 21.41,-3.734 24.293,-3.728c1.086,0.002 4.019,-0.531 6.517,-1.185c2.498,-0.654 7.108,-1.812 10.242,-2.574c6.647,-1.614 11.185,-3.643 14.183,-6.338c1.486,-1.336 2.041,-2.12 2.04,-2.884c-0,-1.652 -2.189,-9.389 -3.76,-13.297c-3.085,-7.674 -6.543,-12.668 -14.991,-21.651c-4.752,-5.053 -6.183,-6.329 -8.4,-7.483c-3.055,-1.591 -4.478,-1.962 -7.385,-1.928Zm430.484,95.023c-1.032,-0.035 -3.545,0.428 -5.013,0.853c-2.7,0.875 -6.911,2.17 -9.36,2.88c-2.449,0.709 -5.2,1.575 -6.112,1.925c-2.295,0.879 -7.974,3.509 -9.154,3.624c-1.952,0.188 -2.13,0.158 -2.531,-0.415c-0.376,-0.538 0.486,-0.597 1.53,-1.72c-1.435,-0.093 -2.8,0.216 -5.088,0.049c-7.112,0.632 -7.27,0.583 -16.497,2.141c-3.567,0.5 -7.502,0.949 -9.955,1.152c-0.26,-0.285 -0.628,-0.553 -1.149,-0.824c-1.634,-0.848 -2.626,-0.927 -4.166,-0.326c-1.405,0.548 -3.241,0.358 -4.859,-0.503c-1.372,-0.73 -2.9,-0.901 -3.832,-0.427c-0.362,0.184 -1.099,0.87 -1.637,1.524c-0.539,0.655 -1.405,1.37 -1.924,1.59c-0.598,0.253 -1.534,1.134 -2.556,2.404l-0.001,-0c-2.837,3.524 -3.396,4.335 -3.203,5.547c-1.1,0.797 -2.179,1.641 -3.249,2.539l-3.583,3.004l-6.19,1.69c-8.094,2.209 -11.583,4.059 -15.056,7.99c-0.493,0.558 -1.443,0.787 -3.75,0.902c-4.032,0.202 -7.048,1.265 -13.697,4.825c-5.943,3.181 -8.412,4.234 -11.753,5.016c-1.371,0.321 -3.054,1.159 -4.544,2.266c-2.72,2.02 -6.386,3.767 -11.927,5.683c-4.684,1.62 -8.015,3.262 -10.699,5.274c-1.34,1.004 -5.257,2.775 -11.845,5.355c-9.642,3.778 -13.687,5.04 -16.895,5.269c-0.898,0.065 -8.906,13.134 -10.468,14.199c-1.53,1.044 1.092,-10.132 -1.175,-9.225c-5.001,1.999 -5.159,2.098 -5.276,3.243c-0.118,1.157 -0.709,1.456 -1.26,0.635c-0.648,-0.965 -1.152,-0.867 -4.501,0.874c-4.279,2.223 -7.591,5.083 -10.055,8.685c-2.179,3.185 -10.661,14.019 -18.029,23.028c-4.71,5.759 -4.427,5.179 -8.189,16.752c-0.668,2.055 -1.863,4.76 -2.657,6.012c-1.653,2.608 -1.751,3.925 -0.56,7.567c1.469,4.492 3.333,5.969 7.556,5.99c1.748,0.009 2.517,0.212 3.655,0.964c1.292,0.854 1.908,0.976 5.921,1.169c5.055,0.243 7.408,1.068 8.377,2.937c0.473,0.912 0.814,1.056 3.044,1.283c4.562,0.465 9,2.137 15.481,5.833c0.405,0.232 0.479,0.115 0.303,-0.483c-0.508,-1.721 -0.472,-2.196 0.18,-2.373c0.981,-0.266 2.899,0.901 4.56,2.773l1.461,1.646l0.824,-0.744c1.086,-0.978 2.036,-1.346 4.461,-1.728c1.8,-0.284 2.25,-0.209 4.378,0.726c1.546,0.679 2.782,1.559 3.545,2.524c0.645,0.815 1.315,1.497 1.491,1.518c0.176,0.02 0.808,-0.437 1.407,-1.017c1.766,-1.712 3.144,-1.802 10.877,-0.706c7.833,1.11 8.444,1.052 11.101,-1.055c3.012,-2.388 5.374,-2.851 15.847,-3.108c3.668,-0.09 6.797,-0.391 8.02,-0.771c1.102,-0.342 3.968,-0.961 6.369,-1.375c2.401,-0.414 5.432,-1.16 6.735,-1.66c2.438,-0.934 5.678,-3.447 6.303,-4.891c0.417,-0.96 0.827,-0.992 1.418,-0.111c0.622,0.926 2.106,0.947 4.093,0.057c3.064,-1.373 5.554,-1.728 9.339,-1.33c2.638,0.277 4.357,0.211 6.776,-0.259c1.782,-0.347 7.102,-1.129 11.82,-1.738c4.718,-0.608 9.757,-1.332 11.2,-1.61c1.957,-0.376 2.932,-0.38 3.842,-0.016c1.837,0.736 4.952,0.944 7.348,0.491c1.177,-0.223 4.812,-1.392 8.079,-2.597c6.746,-2.491 9.598,-2.789 12.35,-1.295c1.283,0.697 1.654,0.744 3.139,0.403c0.926,-0.213 4.264,-0.499 7.418,-0.636c7.494,-0.326 9.899,-0.719 14.374,-2.347c2.961,-1.076 4.435,-1.364 7.292,-1.423c4.754,-0.099 8.663,-0.771 13.694,-2.357c4.705,-1.484 7.595,-2.17 16.526,-3.92c6.702,-1.314 14.979,-3.448 16.354,-4.216c0.796,-0.445 0.767,-0.5 -0.597,-1.206c-1.517,-0.785 -3.344,-1.583 -5.398,-2.373c-0.039,-0.331 -0.154,-0.531 -0.37,-0.656c-0.326,-0.188 -4.745,-1.006 -5.072,-0.766c-4.384,-1.602 -1.947,-1.837 -7.521,-3.144c-0.262,-0.623 -2.664,-1.361 -3.224,-1.684c-1.088,-0.979 -2.364,-0.564 -2.841,0.007c-1.625,1.107 -3.472,0.009 -4.764,-0.24c-8.735,-1.636 -35.553,-4.729 -38.617,-4.453c-1.684,0.151 -6.144,-0.113 -12.274,-0.727c-9.708,-0.972 -13.212,-1.026 -16.749,-0.26c-1.731,0.374 -2.097,0.338 -3.539,-0.349c-2.82,-1.344 -4.316,-1.532 -10.08,-1.271c-4.669,0.211 -5.994,0.142 -7.708,-0.4c-1.446,-0.458 -2.534,-0.58 -3.611,-0.406c-0.847,0.137 -3.932,0.029 -6.852,-0.239c-4.726,-0.415 -10.451,3.272 -12.482,0.422c-1.216,-1.633 -1.261,-1.653 -4.579,-2.13c-4.047,-0.581 -7.832,0.018 -11.08,1.753c-2.12,1.133 -2.14,1.135 -3.917,0.396c-2.866,-1.191 -4.928,-1.096 -7.386,0.338c-0.57,0.333 -0.898,0.195 -1.834,-0.772c-1.559,-1.608 -3.943,-2.497 -12.006,-4.472c-3.794,-0.929 -7.051,-1.806 -7.238,-1.949c-1.047,-0.805 0.387,-3.298 3.044,-5.289c3.079,-2.307 5.974,-2.76 9.029,-1.413c0.678,0.299 1.021,0.042 2.226,-1.661c2.508,-3.548 5.45,-4.902 14.257,-6.558c7.107,-1.337 9.889,-2.413 13.015,-5.035c2.406,-2.018 2.805,-2.203 5.206,-2.424c4.396,-0.405 8.853,-1.766 15.577,-4.754c3.546,-1.575 7.563,-3.287 8.926,-3.804c2.687,-1.019 7.546,-2.102 8.84,-1.97c0.443,0.045 1.396,-0.278 2.117,-0.719c3.811,-2.333 6.888,-2.723 13.788,-1.751c4.365,0.615 5.011,0.617 6.501,0.023c1.051,-0.418 2.403,-0.585 3.706,-0.457c4.483,0.442 10.221,-0.821 13.672,-2.937c0.042,0.019 0.077,0.041 0.124,0.058c0.79,0.284 2.444,-0.091 2.798,-0.635c0.205,-0.315 0.408,-0.345 0.817,-0.121c1.306,0.713 1.551,0.707 2.999,-0.071c1.575,-0.846 2.532,-2.008 2.345,-2.849c-0.094,-0.426 0.081,-0.571 0.926,-0.772c0.573,-0.136 1.119,-0.366 1.213,-0.511c0.094,-0.145 0.605,-0.277 1.136,-0.293c1.522,-0.046 1.814,-0.641 0.929,-1.859c1.729,-0.69 3.254,-1.544 4.156,-2.404c1.519,-1.447 2.405,-2.888 2.913,-5.305c0.239,-0.106 0.277,-0.235 0.077,-0.361c0.202,-1.08 0.328,-2.405 0.414,-3.946c0.311,-0.07 0.531,-0.142 0.574,-0.209c0.06,-0.091 0.784,-0.338 1.612,-0.55c1.634,-0.418 2.136,-0.749 1.131,-0.747c-0.704,0.002 -0.642,-0.36 0.076,-0.441c0.77,-0.086 0.758,-0.447 -0.019,-0.619c-0.406,-0.09 -0.675,-0.26 -0.598,-0.378c0.077,-0.118 -0.186,-0.288 -0.584,-0.377c-0.801,-0.177 -1.105,-0.918 -0.658,-1.605c0.305,-0.469 0.921,-0.479 1.074,-0.018c0.05,0.15 0.759,0.372 1.576,0.488c1.094,0.158 1.97,0.075 3.327,-0.316c1.013,-0.292 1.944,-0.684 2.073,-0.87c0.127,-0.186 0.403,-0.383 0.613,-0.438c0.21,-0.055 0.546,-0.339 0.746,-0.63c0.28,-0.408 0.196,-0.541 -0.363,-0.576c-0.667,-0.381 -1.273,-0.788 -1.725,-1.204l1.133,-0.397c0.623,-0.219 1.282,-0.627 1.465,-0.907c0.269,-0.414 0.138,-0.551 -0.705,-0.738c-1.277,-0.283 -2.337,-0.119 -3.227,0.486c1.176,-1.172 2.439,-2.302 3.147,-2.793c3.276,-2.273 4.605,-6.052 3.304,-9.404c-0.898,-2.316 -3.05,-3.05 -5.109,-1.745c-0.594,0.376 -1.343,0.657 -1.666,0.624c-0.277,-0.028 -3.499,-2.204 -5.004,-3.062c0.094,-0.028 0.152,-0.051 0.249,-0.08c1.013,-0.303 12.575,-5.365 12.488,-5.741c0.011,-0.408 -14.209,3.218 -15.622,3.694c-0.017,0.006 -0.039,0.012 -0.056,0.018c-0.081,-0.047 -0.156,-0.088 -0.237,-0.136c-1.443,-0.596 -1.471,0.232 -3.721,-0.18c0.001,-0.007 0.009,-0.018 0.009,-0.024c-0.007,-0.57 2.563,-2.171 3.719,-2.32c0.616,-0.079 1.397,-0.387 1.736,-0.683c0.339,-0.295 1.265,-0.805 2.06,-1.134c0.844,-0.348 1.441,-0.764 1.441,-1c7.576,-3.706 9.592,-4.695 14.76,-7.058c4.457,-1.567 4.907,-2.1 3.876,-2.135l-0,-0.001Zm-600.838,47.505c-0.149,-0.003 -0.325,0.014 -0.536,0.047c-1.112,0.172 -5.703,0.323 -14.926,0.491c-8.057,0.147 -12.62,1.213 -14.632,3.419c-1.416,1.551 -5.649,3.6 -9.051,4.381c-1.215,0.279 -3.904,0.565 -5.977,0.636c-2.085,0.071 -5.564,0.562 -7.787,1.098c-4.545,1.097 -9.297,1.568 -10.967,1.09c-0.828,-0.237 -1.967,-0.002 -4.322,0.888c-4.492,1.699 -7.871,2.699 -13.888,4.11c-4.978,1.168 -5.271,1.193 -6.376,0.531c-2.091,-1.253 -4.966,-0.885 -10.622,1.36c-5.975,2.373 -8.056,2.607 -10.29,1.161c-1.433,-0.928 -1.57,-0.946 -3.668,-0.49c-4.156,0.904 -9.536,1.248 -17.615,1.128c-6.652,-0.098 -8.541,0.006 -10.453,0.579c-3.215,0.963 -7.232,3.021 -10.944,5.609c-2.678,1.867 -3.099,2.315 -2.949,3.127c0.211,1.139 -0.526,1.675 -0.986,0.717c-0.273,-0.569 -1.197,0.052 -5.705,3.826c-2.959,2.477 -6.621,5.316 -8.136,6.307c-2.414,1.579 -2.802,2.002 -3.132,3.409c-1.102,4.707 -6.565,11.705 -8.626,11.048c-0.774,-0.247 -1.095,0.032 -2.42,2.096c-0.84,1.309 -1.672,2.838 -1.847,3.397c-0.318,1.013 -0.31,1.018 1.967,1.113c2.23,0.093 2.309,0.134 3.167,1.645c0.497,0.877 1.312,1.684 1.875,1.856c0.548,0.168 3.996,1.816 7.663,3.664c3.666,1.848 9.851,4.696 13.744,6.328c12.809,5.371 20.126,7.325 42.583,11.366c14.682,2.642 14.393,2.571 26.546,6.43c12.072,3.834 15.71,4.731 20.4,5.025c2.117,0.133 5.054,0.636 7.094,1.217c4.095,1.166 9.933,2.325 19.136,3.798c16.116,4.011 18.843,3.513 73.437,20.92c10.761,3.431 20.086,6.3 28.354,8.764c1.049,1.217 2.024,2.46 2.345,3.576c0.359,1.246 8.77,2.205 8.477,2.329c-0.178,1.355 6.49,4.394 8.337,3.879c0.553,-0.561 1.265,-0.306 1.582,0.568c5.821,0.527 8.761,1.347 12.488,3.431c6.282,3.647 7.159,4.375 12.544,4.651c4.602,0.404 6.26,1.808 11.605,0.168c-0.185,-0.254 -0.253,-0.492 -0.242,-0.699c6.08,1.624 11.171,2.956 11.489,2.989c2.081,0.211 -0.01,-1.444 -8.313,-6.585c-0.917,-1.094 -0.88,-1.726 0.158,-1.783c1.063,-0.057 1.615,-0.542 1.226,-1.076c-0.388,-0.535 -0.206,-0.939 0.406,-0.898c-6.622,-5.947 -6.963,-3.156 -10.019,-9.306c-1.193,-3.015 -8.988,-3.964 -10.856,-5.127c-2.638,-1.643 -0.075,-3.18 -6.213,-0.33c-4.059,2.254 -5.898,-0.547 -8.147,-1.534c-0.027,-0.033 -0.047,-0.056 -0.074,-0.09c-0.192,-0.249 -0.721,-0.45 -1.488,-0.613c-4.431,-1.962 -9.029,-4.097 -13.137,-6.3c-6.211,-3.347 -10.886,-4.337 -14.553,-5.323c-1.284,-0.346 -3.102,-1.177 -4.04,-1.849c-2.612,-1.871 -4.222,-2.552 -11.568,-4.885c-7.315,-2.324 -8.764,-2.159 -11.527,-4.078c-1.042,-0.725 -2.861,-1.496 -4.344,-1.843c-2.835,-0.664 -6.301,-2.05 -14.788,-5.911c-7.104,-3.231 -9.955,-4.159 -16.531,-5.384c-8.434,-1.572 -10.713,-2.519 -14.988,-6.225c-1.163,-1.008 -1.806,-1.209 -5.281,-1.653c-6.039,-0.773 -8.868,-2.178 -20.667,-10.257l-4.466,-3.057l-2.098,0.42c-3.918,0.784 -5.061,0.491 -7.938,-2.029c-2.801,-2.454 -3.994,-3.114 -6.574,-3.641c-3.613,-0.739 -8.128,-4.517 -8.535,-7.14c-0.241,-1.558 1.08,-2.882 3.334,-3.34c1.972,-0.4 3.319,-0.152 8.268,1.525c6.151,2.085 10.242,1.796 13.535,-0.955l1.273,-1.062l2.003,0.998c1.779,0.886 2.199,0.956 3.785,0.637c0.981,-0.198 3.399,-1.157 5.373,-2.133c4.78,-2.363 8.239,-3.17 11.774,-2.747c2.5,0.299 2.843,0.453 4.122,1.839c1.883,2.04 2.672,2.454 5.756,3.023c3.521,0.65 8.011,0.432 15.751,-0.762c3.531,-0.544 6.8,-1.048 7.263,-1.119c0.601,-0.092 1.433,-1.182 2.915,-3.813c2.315,-4.111 5.193,-8.097 9.8,-13.58c4.119,-4.903 23.848,-8.537 23.91,-9.513c0.028,-0.446 -0.74,-2.692 -1.708,-4.992c-2.78,-6.607 -25.95,-9.911 -30.887,-10.948c-5.619,-1.181 -8.633,-3.894 -9.901,-8.917c-0.11,-0.434 -0.302,-0.618 -0.747,-0.627l-0,0Zm529.522,18.62c-0.206,-0.021 -0.456,0.146 -0.557,0.37c-0.101,0.225 0.111,0.438 0.472,0.475c0.36,0.037 0.61,-0.13 0.556,-0.371c-0.053,-0.24 -0.266,-0.453 -0.471,-0.474Zm-707.184,26.382c-0.088,-0.009 -0.198,0.15 -0.403,0.467c-0.238,0.368 -0.326,0.867 -0.197,1.11c0.379,0.708 1.126,-0.201 0.86,-1.046c-0.109,-0.347 -0.173,-0.523 -0.26,-0.531Zm790.939,19.872c-0.255,0.232 -0.274,0.818 -0.051,1.734c0.379,1.551 1.254,2.925 2.16,3.39c0.411,0.212 1.048,0.363 1.415,0.336c0.534,-0.039 0.726,-0.194 0.96,-0.777c0.373,-0.929 0.178,-2.137 -0.51,-3.164c-0.646,-0.965 -1.362,-1.427 -2.121,-1.371c-0.307,0.023 -0.822,-0.057 -1.144,-0.178c-0.319,-0.12 -0.556,-0.109 -0.709,0.03l-0,0Zm12.096,2.532c-0.963,0.498 -1.704,2.33 -1.234,3.393c0.388,0.875 1.509,2.251 2.137,2.623c0.697,0.413 2.264,0.274 2.729,-0.242c0.199,-0.221 0.483,-0.695 0.631,-1.053c0.358,-0.865 -0.09,-2.653 -0.882,-3.522c-0.617,-0.677 -2.192,-1.382 -2.959,-1.325c-0.143,0.01 -0.285,0.055 -0.422,0.126Zm-543.156,46.297c-0.587,0.028 -1.101,0.174 -1.368,0.422c-0.474,0.439 0.004,1.038 1.065,1.331c1.06,0.293 2.316,0.173 2.79,-0.266c0.474,-0.44 -0.004,-1.039 -1.065,-1.332c-0.265,-0.073 -0.543,-0.12 -0.817,-0.143c-0.206,-0.018 -0.409,-0.022 -0.605,-0.012l-0,-0Zm15.18,4.302c-0.515,-0.025 -1.014,0.024 -1.459,0.166c-0.862,0.273 -1.395,1.091 -1.183,1.816c0.56,1.922 6.541,2.741 7.032,0.964c0.374,-1.35 -2.156,-2.839 -4.39,-2.946Zm14.804,6.839c-0.242,-0.001 -0.494,0.007 -0.753,0.024c-3.007,0.198 -3.828,0.877 -2.944,2.436c0.782,1.38 3.51,1.745 5.896,0.787c3.013,-1.211 1.428,-3.224 -2.199,-3.247l-0,0Zm151.27,94.996c-1.165,-0.043 -2.238,0.526 -2.758,1.667c-0.789,1.729 0.784,4.526 3.067,5.455c1.708,0.694 1.977,0.637 3.066,-0.646c1.518,-1.79 1.321,-3.247 -0.709,-5.253c-0.798,-0.789 -1.76,-1.191 -2.666,-1.223Zm-24.702,13.13c-1.061,-0.008 -2.244,0.466 -2.764,1.294c-0.551,0.877 -0.434,1.382 0.602,2.6c1.468,1.724 3.365,1.73 4.679,0.015c0.864,-1.128 0.7,-1.728 -0.908,-3.343c-0.38,-0.382 -0.972,-0.56 -1.609,-0.566l0,0Zm-30.807,3.371c-0.63,0.009 -1.228,0.664 -1.286,1.595c-0.047,0.759 0.372,1.069 1.286,0.951c1.308,-0.169 1.669,-1.513 0.623,-2.326c-0.198,-0.154 -0.413,-0.223 -0.623,-0.22Z" style="fill-rule:nonzero;"/><path d="M158.133,193.468l-0,227.568c-0,25.83 -4.041,38.746 -12.122,38.746l-71.348,-0c-8.081,-0 -12.121,-12.916 -12.121,-38.746l-0,-227.568c-0,-25.831 4.04,-38.746 12.121,-38.746l71.348,0c8.081,0 12.122,12.915 12.122,38.746Zm-38.973,222.173l-0,-216.778c-0,-6.54 -0.307,-10.708 -0.921,-12.507c-0.614,-1.798 -1.892,-2.697 -3.836,-2.697l-8.132,-0c-2.046,-0 -3.35,0.899 -3.912,2.697c-0.563,1.799 -0.844,5.967 -0.844,12.507l-0,216.778c-0,6.54 0.281,10.708 0.844,12.507c0.562,1.798 1.866,2.697 3.912,2.697l8.132,0c1.944,0 3.222,-0.899 3.836,-2.697c0.614,-1.799 0.921,-5.967 0.921,-12.507Z" style="fill-rule:nonzero;"/><path d="M221.655,154.722l0,260.919c0,6.54 0.282,10.708 0.844,12.507c0.563,1.798 1.867,2.697 3.913,2.697l8.132,0c1.943,0 3.222,-0.899 3.836,-2.697c0.613,-1.799 0.92,-5.967 0.92,-12.507l0,-260.919l38.973,0l0,266.314c0,25.83 -4.04,38.746 -12.121,38.746l-71.348,-0c-8.081,-0 -12.122,-12.916 -12.122,-38.746l0,-266.314l38.973,0Z" style="fill-rule:nonzero;"/><path d="M386.446,154.722l-0,28.937l-26.391,-0l-0,276.123l-38.973,-0l-0,-276.123l-25.931,-0l0,-28.937l91.295,0Z" style="fill-rule:nonzero;"/><path d="M443.064,430.845l42.041,0l0,28.937l-81.014,-0l-0,-305.06l38.973,0l-0,276.123Z" style="fill-rule:nonzero;"/><path d="M540.035,370.52l25.931,-0l-12.735,-144.683l-13.196,144.683Zm33.91,89.262l-5.37,-60.326l-31.148,0l-5.524,60.326l-37.285,-0l35.751,-305.06l46.031,0l35.75,305.06l-38.205,-0Z" style="fill-rule:nonzero;"/><path d="M759.909,154.722l37.439,0l-29.46,305.06l-43.576,-0l-15.343,-181.957l-15.344,181.957l-43.422,-0l-29.46,-305.06l39.433,0l11.661,217.76l18.566,-217.76l36.978,0l18.566,217.76l13.962,-217.76Z" style="fill-rule:nonzero;"/><path d="M149.133,179.354l-0,227.568c-0,25.83 -4.041,38.745 -12.122,38.745l-71.348,0c-8.081,0 -12.121,-12.915 -12.121,-38.745l-0,-227.568c-0,-25.831 4.04,-38.746 12.121,-38.746l71.348,0c8.081,0 12.122,12.915 12.122,38.746Zm-38.973,222.173l-0,-216.778c-0,-6.54 -0.307,-10.709 -0.921,-12.507c-0.614,-1.798 -1.892,-2.697 -3.836,-2.697l-8.132,-0c-2.046,-0 -3.35,0.899 -3.912,2.697c-0.563,1.798 -0.844,5.967 -0.844,12.507l-0,216.778c-0,6.539 0.281,10.708 0.844,12.507c0.562,1.798 1.866,2.697 3.912,2.697l8.132,-0c1.944,-0 3.222,-0.899 3.836,-2.697c0.614,-1.799 0.921,-5.968 0.921,-12.507Z" style="fill:#fff;fill-rule:nonzero;"/><path d="M212.655,140.608l0,260.919c0,6.539 0.282,10.708 0.844,12.507c0.563,1.798 1.867,2.697 3.913,2.697l8.132,-0c1.943,-0 3.222,-0.899 3.836,-2.697c0.613,-1.799 0.92,-5.968 0.92,-12.507l0,-260.919l38.973,0l0,266.314c0,25.83 -4.04,38.745 -12.121,38.745l-71.348,0c-8.081,0 -12.122,-12.915 -12.122,-38.745l0,-266.314l38.973,0Z" style="fill:#fff;fill-rule:nonzero;"/><path d="M377.446,140.608l-0,28.937l-26.391,-0l-0,276.122l-38.973,0l-0,-276.122l-25.931,-0l0,-28.937l91.295,0Z" style="fill:#fff;fill-rule:nonzero;"/><path d="M434.064,416.731l42.041,-0l0,28.936l-81.014,0l-0,-305.059l38.973,0l-0,276.123Z" style="fill:#fff;fill-rule:nonzero;"/><path d="M531.035,356.406l25.931,-0l-12.735,-144.683l-13.196,144.683Zm33.91,89.261l-5.37,-60.325l-31.148,0l-5.524,60.325l-37.285,0l35.751,-305.059l46.031,0l35.75,305.059l-38.205,0Z" style="fill:#fff;fill-rule:nonzero;"/><path d="M750.909,140.608l37.439,0l-29.46,305.059l-43.576,0l-15.343,-181.956l-15.344,181.956l-43.422,0l-29.46,-305.059l39.433,0l11.661,217.76l18.566,-217.76l36.978,0l18.566,217.76l13.962,-217.76Z" style="fill:#fff;fill-rule:nonzero;"/><path id="path45711" serif:id="path4571" d="M603.439,90.379l-1.758,0.344c-1.908,0.375 -5.011,2.035 -7.091,3.793c-0.722,0.609 -3.334,3.151 -5.806,5.65c-5.012,5.065 -8.148,7.557 -10.869,8.639c-2.656,1.056 -6.207,5.552 -11.421,14.458c-4.722,8.065 -5.747,9.591 -9.501,14.159c-1.918,2.334 -2.915,4.06 -4.26,7.37c-0.966,2.377 -2.51,6.145 -3.432,8.375c-0.921,2.229 -3.05,8.584 -4.73,14.122c-3.505,11.551 -7.74,24.315 -9.794,29.517c-0.776,1.967 -2.072,5.929 -2.878,8.805c-2.498,8.906 -17.572,46.891 -28.199,72.086c-5.644,13.384 -13.662,32.454 -17.818,42.378c-4.156,9.925 -11.103,26.297 -15.439,36.384c-6.136,14.274 -7.976,18.953 -8.297,21.11c-0.428,1.671 -0.888,2.97 -1.327,4.021c-1.435,-0.712 -2.398,-1.18 -3.906,-1.931c-10.874,-5.475 -20.115,-9.595 -27.964,-12.618c-0.109,-0.059 -0.221,-0.124 -0.329,-0.18c-1.521,-0.791 -11.145,-5.002 -14.175,-6.426c-3.031,-1.425 -9.163,-4.524 -13.628,-6.887c-4.464,-2.363 -9.984,-5.14 -12.265,-6.171c-4.066,-1.839 -4.229,-1.875 -8.295,-1.913c-3.87,-0.036 -4.294,-0.121 -6.321,-1.261c-1.195,-0.673 -3.551,-2.216 -5.237,-3.43c-4.418,-3.18 -6.518,-3.863 -12.179,-3.959c-4.121,-0.07 -4.773,-0.179 -5.84,-0.968c-0.661,-0.489 -1.393,-0.888 -1.626,-0.888c-0.233,0 -1.708,-0.872 -3.275,-1.938c-1.568,-1.066 -3.513,-2.253 -4.322,-2.637c-2.818,-1.359 -5.418,-4.868 -1.393,-5.748c2.003,-0.37 2.502,0.008 4.026,-1.476c3.391,-3.301 5.525,-4.063 13.479,-4.809c8.459,-0.794 11.395,-1.786 14.843,-5.012l1.921,-1.794l2.237,0.448c4.707,0.946 8.102,0.342 12.977,-2.308c4.003,-2.177 5.662,-2.552 7.689,-1.741c1.592,0.638 1.669,0.63 3.483,-0.351c2.667,-1.442 4.217,-1.766 11.689,-2.449c8.668,-0.793 10.454,-1.24 17.48,-4.37c13.097,-5.835 17.781,-6.76 22.577,-4.46c0.934,0.448 1.816,0.697 1.96,0.553c3.494,-5.402 3.829,-6.007 12.235,-4.616c5.72,1.63 6.948,1.615 8.542,-0.101c0.681,-0.732 1.79,-1.613 2.464,-1.955c1.824,-0.927 3.597,-3.155 3.88,-4.877c0.385,-2.342 -0.709,-5.682 -3.74,-11.418c-1.626,-3.079 -2.749,-5.685 -2.749,-6.382c-0,-0.649 -0.688,-2.672 -1.528,-4.495c-0.84,-1.822 -2.638,-5.98 -3.995,-9.238c-4.539,-10.901 -8.784,-18.621 -11.49,-20.898c-2.313,-1.946 -6.356,-2.3 -13.503,-1.18c-2.225,0.348 -5.913,0.653 -8.194,0.678c-4.779,0.052 -7.33,-0.626 -9.993,-2.653c-2.533,-1.928 -2.561,-1.936 -3.806,-1.049c-1.939,1.381 -4.488,2.371 -6.129,2.381c-1.374,0.007 -1.79,-0.237 -3.486,-2.044l-1.925,-2.051l-4.81,0.914c-8.325,1.583 -8.913,1.651 -10.496,1.225c-0.822,-0.221 -1.818,-0.758 -2.212,-1.194c-0.574,-0.634 -1.215,-0.792 -3.234,-0.792c-2.943,-0 -4.279,0.504 -7.207,2.721c-2.495,1.888 -3.235,1.982 -5,0.636c-0.712,-0.543 -1.768,-0.987 -2.345,-0.987c-0.594,-0 -2.074,-0.718 -3.41,-1.656c-1.964,-1.377 -2.672,-1.655 -4.21,-1.649c-1.034,0.004 -2.7,0.386 -3.777,0.866c-2.593,1.157 -4.135,1.093 -12.49,-0.523c-8.197,-1.585 -13.03,-1.786 -17.431,-0.724l-2.73,0.659l-1.08,-1.009c-2.621,-2.452 -5.565,-3.066 -9.965,-2.081c-1.629,0.364 -3.929,0.759 -5.109,0.877c-2.011,0.201 -2.204,0.143 -3.057,-0.926c-0.885,-1.107 -1.015,-1.141 -4.373,-1.11c-3.013,0.028 -4.179,0.27 -9.022,1.876c-5.836,1.935 -7.76,2.2 -9.029,1.24c-1.846,-1.396 -29.531,0.635 -35.096,2.853c-6.428,2.563 -9.006,4.854 -15.747,13.997c-7.589,10.294 -10.237,15.366 -10.523,20.152l-0.096,1.579l2.964,1.46c1.629,0.803 4.562,1.915 6.517,2.471c7.381,2.101 27.906,1.178 56.698,1.556c27.286,0.358 35.093,0.186 45.956,-1.011c9.037,-0.996 26.416,-0.584 30.399,0.721c3.218,1.055 1.193,3.163 -3.409,3.549c-3.678,0.86 -6.02,3.213 -10.048,5.238c-5.071,1.326 -6.904,3.848 -13.042,4.343c-10.277,1.152 -10.336,2.028 -19.103,4.598c-3.961,-0.425 -7.413,1.186 -11.1,1.928c-3.759,0.174 -6.266,-1.193 -14.392,2.179c-2.681,1.112 -4.333,1.526 -6.953,1.743c-6.909,0.572 -11.238,3.863 -17.956,13.648c-1.938,2.824 -4.335,6.133 -5.326,7.355c-0.991,1.221 -2.922,3.798 -4.292,5.727c-1.369,1.929 -3.818,5.108 -5.442,7.064c-1.623,1.955 -3.681,5.009 -4.573,6.788c-1.523,3.036 -1.619,3.434 -1.597,6.531l0.025,3.301l-1.848,0.848c-3.495,1.605 -4.395,5.345 -2.287,9.505c2.792,5.51 8.017,7.894 12.398,5.659l1.641,-0.838l2.879,1.144c5.981,2.376 14.589,3.589 25.587,3.605c29.258,0.043 45.95,7.241 69.849,15.768c2.489,0.888 9.427,3.027 15.419,4.753c10.78,3.106 18.13,5.49 20.168,6.544c0.579,0.299 2.892,0.991 5.14,1.536c1.127,0.274 3.024,0.764 5.168,1.334c2.052,0.868 10.365,3.736 13.201,4.826c7.953,3.057 18.594,6.444 28.209,10.957c-0.99,3.807 -2.65,9.781 -3.923,11.882c-0.637,1.052 -1.97,4.418 -2.962,7.48c-0.992,3.063 -4.528,13.117 -7.857,22.341c-9.432,26.128 -12.935,37.29 -15.541,49.512c-1.463,6.865 -2.837,16.602 -2.96,20.997l-0.088,3.171l1.019,-1.049c1.459,-1.498 5.569,-7.405 8.316,-11.954c4.216,-7.272 6.372,-10.73 9.737,-15.063c1.333,-1.74 1.392,-1.756 2.646,-0.677c2.424,2.085 6.299,0.314 5.894,-2.694c-1.152,-1.93 -1.447,-4.056 0.258,-5.008c5.444,-1.815 9.779,-3.728 11.689,-5.159c0.897,-0.673 3.886,-3.883 6.644,-7.134c3.449,-4.088 6.442,-9.11 7.224,-16.992c0.233,-0.197 1.157,-0.614 2.054,-0.928c3.54,-2.244 8.993,-24.221 11.806,-36.499c0.869,0.244 1.796,0.535 2.904,0.93c6.376,2.273 8.12,2.582 12.63,2.237c0.277,-0.021 1.214,-0.005 2.083,0.036c1.863,0.089 3.584,-0.254 4.218,-0.84c0.531,-0.491 0.052,-2.174 -0.731,-2.568c-0.846,-0.426 -0.699,-1.569 -0.029,-1.971c0.924,0.315 1.612,0.539 2.684,0.91c9.34,3.231 14.802,0.738 15.408,0.363c1.121,-0.692 -2.288,-4.059 -16.814,-11.992c-0.928,-0.507 -1.808,-0.996 -2.664,-1.474c0.095,-0.115 0.212,-0.232 0.374,-0.354c1.188,-0.902 1.784,-0.905 3.567,-0.014c0.907,0.454 1.7,0.722 1.764,0.595c0.063,-0.127 0.587,0.094 1.166,0.492c0.896,0.618 1.179,0.677 1.921,0.4l0.871,-0.323l-0.258,-0.986c-1.18,-3.921 -10.163,-6.816 -17.471,-9.321c2.499,-4.736 7.36,-13.773 9.032,-15.608c2.282,-1.452 3.11,-4.312 3.354,-11.607c0.343,-10.22 0.538,-11.23 2.323,-12.03c1.681,-0.752 2.883,-4.991 3.897,-13.737c0.247,-2.128 0.676,-4.2 0.955,-4.606c0.484,-0.704 0.534,-0.702 1.129,0.02c1.568,1.898 1.584,1.899 2.697,0.399c1.196,-1.611 2.094,-4.89 2.716,-9.914c0.69,-5.575 0.935,-6.482 1.758,-6.53c0.402,-0.023 0.848,0.218 0.992,0.536c0.537,1.19 1.006,0.44 1.857,-2.972c1.395,-5.592 2.784,-8.339 10.251,-20.281c1.694,-2.709 3.151,-5.465 3.239,-6.123c0.291,-2.19 2.397,-7.28 5.469,-13.217c5.428,-10.489 6.401,-13.125 8.124,-22.024c1.285,-6.632 2.517,-9.877 4.911,-12.936c0.85,-1.087 2.15,-3.724 3.146,-6.384c0.934,-2.492 14.464,-36.184 15.403,-38.204c0.938,-2.02 2.581,-6.127 3.65,-9.126c4.704,-13.196 7.967,-18.662 11.252,-18.853c1.68,-0.098 5.363,-2.619 7.345,-5.027c4.84,-5.883 6.475,-14.121 3.996,-20.149c-0.731,-1.778 -0.823,-2.448 -0.576,-4.198c0.225,-1.594 0.068,-3.352 -0.667,-7.49c-1.451,-8.173 -1.39,-9.536 0.433,-9.642c0.978,-0.056 2.173,-2.53 2.308,-4.774c0.069,-1.146 -0.215,-3.169 -0.699,-4.976c-1.058,-3.951 -1.06,-3.877 0.229,-5.53c0.608,-0.778 1.088,-1.715 1.066,-2.081c-0.021,-0.366 0.317,-2.498 0.752,-4.739c0.99,-5.098 0.643,-10.032 -0.916,-13.03l-0.975,-1.876Zm-234.019,46.23c-2.615,0.032 -3.868,0.514 -6.394,2.463c-2.349,1.812 -6.457,3.4 -13.203,5.103c-6.741,1.702 -7.989,2.252 -12.227,5.392c-12.447,9.045 -27.035,15.174 -41.08,21.66c-5.782,2.901 -9.244,4.313 -12.158,4.958c-1.026,0.227 -5.509,1.808 -9.963,3.514c-13.294,5.092 -21.291,7.797 -29.143,9.857c-2.725,0.715 -5.291,1.682 -6.697,2.524c-4.411,2.643 -8.009,3.694 -21.239,6.207c-2.39,0.454 -6.121,1.418 -8.294,2.144c-2.172,0.726 -4.995,1.434 -6.271,1.572c-2.192,0.237 -5.4,1.214 -16.075,4.895c-2.514,0.867 -7.579,2.148 -11.257,2.847c-15.246,2.894 -20.754,4.692 -25.648,8.374c-3.842,2.891 -6.355,3.345 -13.825,2.493c-8.998,-1.026 -13.107,-0.732 -17.579,1.259c-2.068,0.92 -2.308,0.944 -5.031,0.486c-6.651,-1.119 -16.237,0.372 -22.798,3.548c-2.771,1.341 -3.553,1.956 -5.383,4.238c-2.894,3.608 -6.477,6.554 -13.991,11.504c-4.54,2.992 -7.562,5.073 -9.694,6.723c-0.176,-0.99 -1.486,-0.539 -6.667,2.125c-6.434,3.309 -6.748,3.366 -9.584,1.767c-3.626,-2.046 -4.053,-1.875 -6.365,2.559c-1.155,2.215 -1.502,4.434 -0.915,5.858c1.027,2.494 1.632,2.22 7.175,-3.254c3.093,-3.055 3.185,-3.103 3.669,-1.927c0.208,0.505 -1.11,2.547 -2.93,4.538c-2.216,2.424 -2.964,3.984 -2.264,4.724c0.698,0.738 0.398,1.371 -0.904,1.907c-2.975,1.225 -4.809,6.626 -2.923,7.745c0.102,0.33 0.366,0.554 0.79,0.773c0.543,0.28 1.166,0.512 1.383,0.513c2.881,0.015 23.054,-1.262 40.684,-2.574c1.738,-0.129 8.493,-0.384 15.011,-0.567c11.346,-0.318 12.055,-0.383 16.673,-1.544c8.198,-2.06 14.656,-4.012 17.418,-5.264c1.455,-0.66 6.038,-2.585 10.185,-4.276c8.543,-3.484 14.676,-6.463 18.113,-8.797c1.844,-1.252 3.11,-1.75 5.902,-2.323c7.364,-1.511 11.922,-3.175 25.612,-9.36c9.739,-4.4 13.811,-6.096 17.649,-7.352c1.175,-0.385 4.196,-1.67 6.715,-2.855c20.243,-9.527 42.464,-16.82 59.288,-19.461c1.629,-0.256 4.829,-1.056 7.11,-1.778c6.108,-1.935 12.132,-3.187 25.635,-5.325c6.649,-1.053 14.132,-2.276 16.63,-2.719c2.499,-0.442 5.964,-1.006 7.702,-1.253c1.738,-0.248 8.227,-1.406 14.419,-2.573c12.798,-2.412 21.41,-3.734 24.293,-3.728c1.086,0.002 4.019,-0.531 6.517,-1.185c2.498,-0.654 7.108,-1.812 10.242,-2.574c6.647,-1.614 11.185,-3.643 14.183,-6.338c1.486,-1.336 2.041,-2.12 2.04,-2.884c-0,-1.652 -2.189,-9.389 -3.76,-13.297c-3.085,-7.674 -6.543,-12.668 -14.991,-21.651c-4.752,-5.053 -6.183,-6.329 -8.4,-7.483c-3.055,-1.591 -4.478,-1.962 -7.385,-1.928Zm430.484,95.023c-1.032,-0.035 -3.545,0.428 -5.013,0.853c-2.7,0.875 -6.911,2.17 -9.36,2.88c-2.449,0.709 -5.2,1.575 -6.112,1.925c-2.295,0.879 -7.974,3.509 -9.154,3.624c-1.952,0.188 -2.13,0.158 -2.531,-0.415c-0.376,-0.538 0.486,-0.597 1.53,-1.72c-1.435,-0.093 -2.8,0.216 -5.088,0.049c-7.112,0.632 -7.27,0.583 -16.497,2.141c-3.567,0.5 -7.502,0.949 -9.955,1.152c-0.26,-0.285 -0.628,-0.553 -1.149,-0.824c-1.634,-0.848 -2.626,-0.927 -4.166,-0.326c-1.405,0.548 -3.241,0.358 -4.859,-0.503c-1.372,-0.73 -2.9,-0.901 -3.832,-0.427c-0.362,0.184 -1.099,0.87 -1.637,1.524c-0.539,0.655 -1.405,1.37 -1.924,1.59c-0.598,0.253 -1.534,1.134 -2.556,2.404l-0.001,-0c-2.837,3.524 -3.396,4.335 -3.203,5.547c-1.1,0.797 -2.179,1.641 -3.249,2.539l-3.583,3.004l-6.19,1.69c-8.094,2.209 -11.583,4.059 -15.056,7.99c-0.493,0.558 -1.443,0.787 -3.75,0.902c-4.032,0.202 -7.048,1.265 -13.697,4.825c-5.943,3.181 -8.412,4.234 -11.753,5.016c-1.371,0.321 -3.054,1.159 -4.544,2.266c-2.72,2.02 -6.386,3.767 -11.927,5.683c-4.684,1.62 -8.015,3.262 -10.699,5.274c-1.34,1.004 -5.257,2.775 -11.845,5.355c-9.642,3.778 -13.687,5.04 -16.895,5.269c-0.898,0.065 -8.906,13.134 -10.468,14.199c-1.53,1.044 1.092,-10.132 -1.175,-9.225c-5.001,1.999 -5.159,2.098 -5.276,3.243c-0.118,1.157 -0.709,1.456 -1.26,0.635c-0.648,-0.965 -1.152,-0.867 -4.501,0.874c-4.279,2.223 -7.591,5.083 -10.055,8.685c-2.179,3.185 -10.661,14.019 -18.029,23.028c-4.71,5.759 -4.427,5.179 -8.189,16.752c-0.668,2.055 -1.863,4.76 -2.657,6.012c-1.653,2.608 -1.751,3.925 -0.56,7.567c1.469,4.492 3.333,5.969 7.556,5.99c1.748,0.009 2.517,0.212 3.655,0.964c1.292,0.854 1.908,0.976 5.921,1.169c5.055,0.243 7.408,1.068 8.377,2.937c0.473,0.912 0.814,1.056 3.044,1.283c4.562,0.465 9,2.137 15.481,5.833c0.405,0.232 0.479,0.115 0.303,-0.483c-0.508,-1.721 -0.472,-2.196 0.18,-2.373c0.981,-0.266 2.899,0.901 4.56,2.773l1.461,1.646l0.824,-0.744c1.086,-0.978 2.036,-1.346 4.461,-1.728c1.8,-0.284 2.25,-0.209 4.378,0.726c1.546,0.679 2.782,1.559 3.545,2.524c0.645,0.815 1.315,1.497 1.491,1.518c0.176,0.02 0.808,-0.437 1.407,-1.017c1.766,-1.712 3.144,-1.802 10.877,-0.706c7.833,1.11 8.444,1.052 11.101,-1.055c3.012,-2.388 5.374,-2.851 15.847,-3.108c3.668,-0.09 6.797,-0.391 8.02,-0.771c1.102,-0.342 3.968,-0.961 6.369,-1.375c2.401,-0.414 5.432,-1.16 6.735,-1.66c2.438,-0.934 5.678,-3.447 6.303,-4.891c0.417,-0.96 0.827,-0.992 1.418,-0.111c0.622,0.926 2.106,0.947 4.093,0.057c3.064,-1.373 5.554,-1.728 9.339,-1.33c2.638,0.277 4.357,0.211 6.776,-0.259c1.782,-0.347 7.102,-1.129 11.82,-1.738c4.718,-0.608 9.757,-1.332 11.2,-1.61c1.957,-0.376 2.932,-0.38 3.842,-0.016c1.837,0.736 4.952,0.944 7.348,0.491c1.177,-0.223 4.812,-1.392 8.079,-2.597c6.746,-2.491 9.598,-2.789 12.35,-1.295c1.283,0.697 1.654,0.744 3.139,0.403c0.926,-0.213 4.264,-0.499 7.418,-0.636c7.494,-0.326 9.899,-0.719 14.374,-2.347c2.961,-1.076 4.435,-1.364 7.292,-1.423c4.754,-0.099 8.663,-0.771 13.694,-2.357c4.705,-1.484 7.595,-2.17 16.526,-3.92c6.702,-1.314 14.979,-3.448 16.354,-4.216c0.796,-0.445 0.767,-0.5 -0.597,-1.206c-1.517,-0.785 -3.344,-1.583 -5.398,-2.373c-0.039,-0.331 -0.154,-0.531 -0.37,-0.656c-0.326,-0.188 -4.745,-1.006 -5.072,-0.766c-4.384,-1.602 -1.947,-1.837 -7.521,-3.144c-0.262,-0.623 -2.664,-1.361 -3.224,-1.684c-1.088,-0.979 -2.364,-0.564 -2.841,0.007c-1.625,1.107 -3.472,0.009 -4.764,-0.24c-8.735,-1.636 -35.553,-4.729 -38.617,-4.453c-1.684,0.151 -6.144,-0.113 -12.274,-0.727c-9.708,-0.972 -13.212,-1.026 -16.749,-0.26c-1.731,0.374 -2.097,0.338 -3.539,-0.349c-2.82,-1.344 -4.316,-1.532 -10.08,-1.271c-4.669,0.211 -5.994,0.142 -7.708,-0.4c-1.446,-0.458 -2.534,-0.58 -3.611,-0.406c-0.847,0.137 -3.932,0.029 -6.852,-0.239c-4.726,-0.415 -10.451,3.272 -12.482,0.422c-1.216,-1.633 -1.261,-1.653 -4.579,-2.13c-4.047,-0.581 -7.832,0.018 -11.08,1.753c-2.12,1.133 -2.14,1.135 -3.917,0.396c-2.866,-1.191 -4.928,-1.096 -7.386,0.338c-0.57,0.333 -0.898,0.195 -1.834,-0.772c-1.559,-1.608 -3.943,-2.497 -12.006,-4.472c-3.794,-0.929 -7.051,-1.806 -7.238,-1.949c-1.047,-0.805 0.387,-3.298 3.044,-5.289c3.079,-2.307 5.974,-2.76 9.029,-1.413c0.678,0.299 1.021,0.042 2.226,-1.661c2.508,-3.548 5.45,-4.902 14.257,-6.558c7.107,-1.337 9.889,-2.413 13.015,-5.035c2.406,-2.018 2.805,-2.203 5.206,-2.424c4.396,-0.405 8.853,-1.766 15.577,-4.754c3.546,-1.575 7.563,-3.287 8.926,-3.804c2.687,-1.019 7.546,-2.102 8.84,-1.97c0.443,0.045 1.396,-0.278 2.117,-0.719c3.811,-2.333 6.888,-2.723 13.788,-1.751c4.365,0.615 5.011,0.617 6.501,0.023c1.051,-0.418 2.403,-0.585 3.706,-0.457c4.483,0.442 10.221,-0.821 13.672,-2.937c0.042,0.019 0.077,0.041 0.124,0.058c0.79,0.284 2.444,-0.091 2.798,-0.635c0.205,-0.315 0.408,-0.345 0.817,-0.121c1.306,0.713 1.551,0.707 2.999,-0.071c1.575,-0.846 2.532,-2.008 2.345,-2.849c-0.094,-0.426 0.081,-0.571 0.926,-0.772c0.573,-0.136 1.119,-0.366 1.213,-0.511c0.094,-0.145 0.605,-0.277 1.136,-0.293c1.522,-0.046 1.814,-0.641 0.929,-1.859c1.729,-0.69 3.254,-1.544 4.156,-2.404c1.519,-1.447 2.405,-2.888 2.913,-5.305c0.239,-0.106 0.277,-0.235 0.077,-0.361c0.202,-1.08 0.328,-2.405 0.414,-3.946c0.311,-0.07 0.531,-0.142 0.574,-0.209c0.06,-0.091 0.784,-0.338 1.612,-0.55c1.634,-0.418 2.136,-0.749 1.131,-0.747c-0.704,0.002 -0.642,-0.36 0.076,-0.441c0.77,-0.086 0.758,-0.447 -0.019,-0.619c-0.406,-0.09 -0.675,-0.26 -0.598,-0.378c0.077,-0.118 -0.186,-0.288 -0.584,-0.377c-0.801,-0.177 -1.105,-0.918 -0.658,-1.605c0.305,-0.469 0.921,-0.479 1.074,-0.018c0.05,0.15 0.759,0.372 1.576,0.488c1.094,0.158 1.97,0.075 3.327,-0.316c1.013,-0.292 1.944,-0.684 2.073,-0.87c0.127,-0.186 0.403,-0.383 0.613,-0.438c0.21,-0.055 0.546,-0.339 0.746,-0.63c0.28,-0.408 0.196,-0.541 -0.363,-0.576c-0.667,-0.381 -1.273,-0.788 -1.725,-1.204l1.133,-0.397c0.623,-0.219 1.282,-0.627 1.465,-0.907c0.269,-0.414 0.138,-0.551 -0.705,-0.738c-1.277,-0.283 -2.337,-0.119 -3.227,0.486c1.176,-1.172 2.439,-2.302 3.147,-2.793c3.276,-2.273 4.605,-6.052 3.304,-9.404c-0.898,-2.316 -3.05,-3.05 -5.109,-1.745c-0.594,0.376 -1.343,0.657 -1.666,0.624c-0.277,-0.028 -3.499,-2.204 -5.004,-3.062c0.094,-0.028 0.152,-0.051 0.249,-0.08c1.013,-0.303 12.575,-5.365 12.488,-5.741c0.011,-0.408 -14.209,3.218 -15.622,3.694c-0.017,0.006 -0.039,0.012 -0.056,0.018c-0.081,-0.047 -0.156,-0.088 -0.237,-0.136c-1.443,-0.596 -1.471,0.232 -3.721,-0.18c0.001,-0.007 0.009,-0.018 0.009,-0.024c-0.007,-0.57 2.563,-2.171 3.719,-2.32c0.616,-0.079 1.397,-0.387 1.736,-0.683c0.339,-0.295 1.265,-0.805 2.06,-1.134c0.844,-0.348 1.441,-0.764 1.441,-1c7.576,-3.706 9.592,-4.695 14.76,-7.058c4.457,-1.567 4.907,-2.1 3.876,-2.135l-0,-0.001Zm-600.838,47.505c-0.149,-0.003 -0.325,0.014 -0.536,0.047c-1.112,0.172 -5.703,0.323 -14.926,0.491c-8.057,0.147 -12.62,1.213 -14.632,3.419c-1.416,1.551 -5.649,3.6 -9.051,4.381c-1.215,0.279 -3.904,0.565 -5.977,0.636c-2.085,0.071 -5.564,0.562 -7.787,1.098c-4.545,1.097 -9.297,1.568 -10.967,1.09c-0.828,-0.237 -1.967,-0.002 -4.322,0.888c-4.492,1.699 -7.871,2.699 -13.888,4.11c-4.978,1.168 -5.271,1.193 -6.376,0.531c-2.091,-1.253 -4.966,-0.885 -10.622,1.36c-5.975,2.373 -8.056,2.607 -10.29,1.161c-1.433,-0.928 -1.57,-0.946 -3.668,-0.49c-4.156,0.904 -9.536,1.248 -17.615,1.128c-6.652,-0.098 -8.541,0.006 -10.453,0.579c-3.215,0.963 -7.232,3.021 -10.944,5.609c-2.678,1.867 -3.099,2.315 -2.949,3.127c0.211,1.139 -0.526,1.675 -0.986,0.717c-0.273,-0.569 -1.197,0.052 -5.705,3.826c-2.959,2.477 -6.621,5.316 -8.136,6.307c-2.414,1.579 -2.802,2.002 -3.132,3.409c-1.102,4.707 -6.565,11.705 -8.626,11.048c-0.774,-0.247 -1.095,0.032 -2.42,2.096c-0.84,1.309 -1.672,2.838 -1.847,3.397c-0.318,1.013 -0.31,1.018 1.967,1.113c2.23,0.093 2.309,0.134 3.167,1.645c0.497,0.877 1.312,1.684 1.875,1.856c0.548,0.168 3.996,1.816 7.663,3.664c3.666,1.848 9.851,4.696 13.744,6.328c12.809,5.371 20.126,7.325 42.583,11.366c14.682,2.642 14.393,2.571 26.546,6.43c12.072,3.834 15.71,4.731 20.4,5.025c2.117,0.133 5.054,0.636 7.094,1.217c4.095,1.166 9.933,2.325 19.136,3.798c16.116,4.011 18.843,3.513 73.437,20.92c10.761,3.431 20.086,6.3 28.354,8.764c1.049,1.217 2.024,2.46 2.345,3.576c0.359,1.246 8.77,2.205 8.477,2.329c-0.178,1.355 6.49,4.394 8.337,3.879c0.553,-0.561 1.265,-0.306 1.582,0.568c5.821,0.527 8.761,1.347 12.488,3.431c6.282,3.647 7.159,4.375 12.544,4.651c4.602,0.404 6.26,1.808 11.605,0.168c-0.185,-0.254 -0.253,-0.492 -0.242,-0.699c6.08,1.624 11.171,2.956 11.489,2.989c2.081,0.211 -0.01,-1.444 -8.313,-6.585c-0.917,-1.094 -0.88,-1.726 0.158,-1.783c1.063,-0.057 1.615,-0.542 1.226,-1.076c-0.388,-0.535 -0.206,-0.939 0.406,-0.898c-6.622,-5.947 -6.963,-3.156 -10.019,-9.306c-1.193,-3.015 -8.988,-3.964 -10.856,-5.127c-2.638,-1.643 -0.075,-3.18 -6.213,-0.33c-4.059,2.254 -5.898,-0.547 -8.147,-1.534c-0.027,-0.033 -0.047,-0.056 -0.074,-0.09c-0.192,-0.249 -0.721,-0.45 -1.488,-0.613c-4.431,-1.962 -9.029,-4.097 -13.137,-6.3c-6.211,-3.347 -10.886,-4.337 -14.553,-5.323c-1.284,-0.346 -3.102,-1.177 -4.04,-1.849c-2.612,-1.871 -4.222,-2.552 -11.568,-4.885c-7.315,-2.324 -8.764,-2.159 -11.527,-4.078c-1.042,-0.725 -2.861,-1.496 -4.344,-1.843c-2.835,-0.664 -6.301,-2.05 -14.788,-5.911c-7.104,-3.231 -9.955,-4.159 -16.531,-5.384c-8.434,-1.572 -10.713,-2.519 -14.988,-6.225c-1.163,-1.008 -1.806,-1.209 -5.281,-1.653c-6.039,-0.773 -8.868,-2.178 -20.667,-10.257l-4.466,-3.057l-2.098,0.42c-3.918,0.784 -5.061,0.491 -7.938,-2.029c-2.801,-2.454 -3.994,-3.114 -6.574,-3.641c-3.613,-0.739 -8.128,-4.517 -8.535,-7.14c-0.241,-1.558 1.08,-2.882 3.334,-3.34c1.972,-0.4 3.319,-0.152 8.268,1.525c6.151,2.085 10.242,1.796 13.535,-0.955l1.273,-1.062l2.003,0.998c1.779,0.886 2.199,0.956 3.785,0.637c0.981,-0.198 3.399,-1.157 5.373,-2.133c4.78,-2.363 8.239,-3.17 11.774,-2.747c2.5,0.299 2.843,0.453 4.122,1.839c1.883,2.04 2.672,2.454 5.756,3.023c3.521,0.65 8.011,0.432 15.751,-0.762c3.531,-0.544 6.8,-1.048 7.263,-1.119c0.601,-0.092 1.433,-1.182 2.915,-3.813c2.315,-4.111 5.193,-8.097 9.8,-13.58c4.119,-4.903 23.848,-8.537 23.91,-9.513c0.028,-0.446 -0.74,-2.692 -1.708,-4.992c-2.78,-6.607 -25.95,-9.911 -30.887,-10.948c-5.619,-1.181 -8.633,-3.894 -9.901,-8.917c-0.11,-0.434 -0.302,-0.618 -0.747,-0.627l-0,0Zm529.522,18.62c-0.206,-0.021 -0.456,0.146 -0.557,0.37c-0.101,0.225 0.111,0.438 0.472,0.475c0.36,0.037 0.61,-0.13 0.556,-0.371c-0.053,-0.24 -0.266,-0.453 -0.471,-0.474Zm-707.184,26.382c-0.088,-0.009 -0.198,0.15 -0.403,0.467c-0.238,0.368 -0.326,0.867 -0.197,1.11c0.379,0.708 1.126,-0.201 0.86,-1.046c-0.109,-0.347 -0.173,-0.523 -0.26,-0.531Zm790.939,19.872c-0.255,0.232 -0.274,0.818 -0.051,1.734c0.379,1.551 1.254,2.925 2.16,3.39c0.411,0.212 1.048,0.363 1.415,0.336c0.534,-0.039 0.726,-0.194 0.96,-0.777c0.373,-0.929 0.178,-2.137 -0.51,-3.164c-0.646,-0.965 -1.362,-1.427 -2.121,-1.371c-0.307,0.023 -0.822,-0.057 -1.144,-0.178c-0.319,-0.12 -0.556,-0.109 -0.709,0.03l-0,0Zm12.096,2.532c-0.963,0.498 -1.704,2.33 -1.234,3.393c0.388,0.875 1.509,2.251 2.137,2.623c0.697,0.413 2.264,0.274 2.729,-0.242c0.199,-0.221 0.483,-0.695 0.631,-1.053c0.358,-0.865 -0.09,-2.653 -0.882,-3.522c-0.617,-0.677 -2.192,-1.382 -2.959,-1.325c-0.143,0.01 -0.285,0.055 -0.422,0.126Zm-543.156,46.297c-0.587,0.028 -1.101,0.174 -1.368,0.422c-0.474,0.439 0.004,1.038 1.065,1.331c1.06,0.293 2.316,0.173 2.79,-0.266c0.474,-0.44 -0.004,-1.039 -1.065,-1.332c-0.265,-0.073 -0.543,-0.12 -0.817,-0.143c-0.206,-0.018 -0.409,-0.022 -0.605,-0.012l-0,-0Zm15.18,4.302c-0.515,-0.025 -1.014,0.024 -1.459,0.166c-0.862,0.273 -1.395,1.091 -1.183,1.816c0.56,1.922 6.541,2.741 7.032,0.964c0.374,-1.35 -2.156,-2.839 -4.39,-2.946Zm14.804,6.839c-0.242,-0.001 -0.494,0.007 -0.753,0.024c-3.007,0.198 -3.828,0.877 -2.944,2.436c0.782,1.38 3.51,1.745 5.896,0.787c3.013,-1.211 1.428,-3.224 -2.199,-3.247l-0,0Zm151.27,94.996c-1.165,-0.043 -2.238,0.526 -2.758,1.667c-0.789,1.729 0.784,4.526 3.067,5.455c1.708,0.694 1.977,0.637 3.066,-0.646c1.518,-1.79 1.321,-3.247 -0.709,-5.253c-0.798,-0.789 -1.76,-1.191 -2.666,-1.223Zm-24.702,13.13c-1.061,-0.008 -2.244,0.466 -2.764,1.294c-0.551,0.877 -0.434,1.382 0.602,2.6c1.468,1.724 3.365,1.73 4.679,0.015c0.864,-1.128 0.7,-1.728 -0.908,-3.343c-0.38,-0.382 -0.972,-0.56 -1.609,-0.566l0,0Zm-30.807,3.371c-0.63,0.009 -1.228,0.664 -1.286,1.595c-0.047,0.759 0.372,1.069 1.286,0.951c1.308,-0.169 1.669,-1.513 0.623,-2.326c-0.198,-0.154 -0.413,-0.223 -0.623,-0.22Z" style="fill:#ec2626;fill-rule:nonzero;"/></svg>