<svg shape-rendering="geometricPrecision" width="170px" height="80px" version="1.1" viewBox="0 0 1019.7 504.68" xmlns="http://www.w3.org/2000/svg" xmlns:cc="http://creativecommons.org/ns#" xmlns:dc="http://purl.org/dc/elements/1.1/" xmlns:rdf="http://www.w3.org/1999/02/22-rdf-syntax-ns#">
      <rect x="34.16" y="32.559" width="948.04" height="382.73" fill="#181425" style="paint-order:stroke fill markers"/>
      <path d="m56.659 222.55v-171.27l118.49 8e-3 2.0596 0.95892c6.3129 2.9393 10.108 11.855 11.711 27.512 0.64679 6.3183 0.97148 86.57 0.41334 102.16-0.58954 16.47-1.8775 24.355-5.0583 30.968-1.6787 3.4903-4.7788 6.8692-7.0587 7.6936-1.7402 0.62927-1.7091 1.0582 0.15066 2.0787 4.0867 2.2424 7.5321 7.6822 9.3136 14.705 1.6251 6.4065 2.2038 11.557 2.6531 23.616 0.5502 14.768 0.22974 98.044-0.40157 104.35-1.531 15.302-5.3412 24.496-11.393 27.491-1.5633 0.7735-2.7128 0.79023-61.238 0.89166l-59.645 0.10357zm76.206 138.46c1.8213-0.76097 3.3266-2.7058 4.1473-5.3581 0.6536-2.1123 0.70045-5.8204 0.70045-55.436 0-54.33-0.0385-55.853-1.4852-58.861-0.27844-0.57891-1.1153-1.4625-1.8596-1.9636-1.3295-0.89498-1.5488-0.91103-12.447-0.91103h-11.093v123.07h10.369c7.856 0 10.684-0.1317 11.669-0.54329zm0.34131-155.2c2.1116-0.58648 3.3124-2.235 3.9579-5.433 0.80028-3.9654 0.81354-107.48 0.0142-111.05-0.64454-2.8826-1.2927-3.972-2.9724-4.9962-1.1807-0.71994-2.0727-0.7762-12.326-0.77758l-11.053-1e-3v122.68l10.455-3e-3c5.9023-1e-3 11.095-0.17977 11.923-0.40995zm81.179 16.742v-171.27h115.9v32.257l-59.545 0.20419v118.29l50.783 0.20499v32.25l-50.783 0.20499v126.66l62.333 0.20393v32.257h-118.69zm124.27 170.76c0-0.27841 0.8993-6.6861 1.9985-14.239 1.0992-7.553 2.3465-16.153 2.7719-19.11 0.42535-2.9574 1.4925-10.306 2.3715-16.33 4.579-31.383 7.3066-50.14 7.9932-54.965 0.42083-2.9574 1.9436-13.443 3.384-23.3 1.4404-9.8578 3.4177-23.435 4.394-30.171 0.97634-6.7364 2.5763-17.759 3.5555-24.495 0.9792-6.7359 2.8598-19.685 4.1792-28.776 1.3193-9.0911 2.858-19.666 3.4191-23.5 0.56118-3.8336 1.8133-12.437 2.7825-19.118 0.96916-6.6814 3.0262-20.841 4.5712-31.465 1.545-10.625 3.63-24.963 4.6334-31.864s2.2098-15.235 2.6811-18.521l0.85683-5.9744 32.161-0.10196c18.484-0.0585 32.161 0.0481 32.161 0.25082 0 0.19401 0.45266 3.4661 1.0059 7.2713 0.55325 3.8052 1.3535 9.3382 1.7782 12.296 1.2412 8.6418 4.1558 28.694 6.9759 47.995 1.4404 9.8578 2.9632 20.343 3.384 23.3 0.4208 2.9574 2.0338 14.07 3.5844 24.694 1.5506 10.625 3.1653 21.737 3.5881 24.694 0.42287 2.9574 1.945 13.443 3.3825 23.3 1.4375 9.8578 3.4146 23.435 4.3935 30.171 6.8404 47.073 8.296 57.08 11.341 77.967 1.549 10.625 3.1609 21.737 3.5821 24.694 0.42116 2.9574 2.0271 14.07 3.5688 24.694 1.5416 10.625 2.8481 19.676 2.9032 20.114 0.0992 0.78876-0.16163 0.79752-26.486 0.89895-14.622 0.0558-26.586 0-26.586-0.1155 0-0.42246-0.81801-8.0152-1.3932-12.932-0.32036-2.7383-1.7547-15.733-3.1873-28.876-1.4327-13.144-2.6943-24.301-2.8036-24.794l-0.19871-0.89617h-21.7c-17.092 0-21.7 0.10569-21.703 0.49787-4e-3 0.54231-0.52299 5.2159-2.3766 21.408-0.66452 5.8052-1.8397 16.201-2.6116 23.101-0.77185 6.9005-1.6671 14.692-1.9895 17.314-0.32239 2.6221-0.58615 4.9074-0.58615 5.0783 0 0.17073-11.65 0.31054-25.889 0.31054-20.674 0-25.889-0.10224-25.889-0.50623zm99.019-100.03c0.11896-0.30989-0.15159-3.7601-0.60111-7.6672-0.44952-3.9071-1.2792-11.405-1.8437-16.663-0.56452-5.2575-1.7326-16.012-2.5957-23.898-0.86309-7.8863-2.0184-18.461-2.5674-23.499-0.54899-5.0385-1.7145-15.703-2.5901-23.699-2.3231-21.215-3.3994-31.092-5.1863-47.596-1.664-15.369-1.9747-17.866-2.1957-17.645-0.12333 0.12334-1.5316 12.058-3.3744 28.598-0.42712 3.8336-1.5908 14.14-2.5859 22.902s-2.1607 19.068-2.5902 22.902c-0.95682 8.5405-2.2077 19.581-4.5802 40.427-0.9973 8.7625-2.163 19.068-2.5905 22.902s-1.1375 10.107-1.5778 13.94c-0.44031 3.8336-0.8028 7.5527-0.80554 8.2647l-5e-3 1.2945h17.737c14.923 0 17.771-0.0893 17.953-0.56342zm89.172 99.584c-6.579-3.0016-10.583-13.408-11.741-30.514-0.24471-3.6159-0.39308-62.851-0.39678-158.42l-5e-3 -152.65h54.168l0.0119 148.07c7e-3 82.578 0.16916 150.23 0.36711 152.95 0.64986 8.9407 1.1767 9.3291 12.438 9.1692 9.1603-0.13011 9.5288-0.26311 10.882-3.9277 0.79074-2.1422 0.79735-3.2732 0.90023-154.21l0.10342-152.05h54.17l-0.12082 157.23c-0.11205 145.92-0.16967 157.54-0.80089 161.59-1.9382 12.418-5.64 20.152-10.894 22.76-1.4889 0.7391-3.1955 0.76552-54.312 0.842l-52.774 0.0783zm145.98-170.32v-171.27h59.275c67.59 0 61.557-0.328 65.396 3.5552 4.7183 4.7719 7.4155 13.812 8.3867 28.109 0.26725 3.9344 0.36265 53.1 0.27936 143.98l-0.12652 138.01-0.89279 5.4535c-2.107 12.87-5.5777 19.946-11.029 22.484l-1.9996 0.93122h-119.29v-171.26zm75.57 138.34c2.0232-0.96004 2.8544-3.121 3.3076-8.5989 0.48839-5.9033 0.4938-253.51 5e-3 -259.41-0.46187-5.5808-1.1968-7.5145-3.2552-8.5646-1.4298-0.72945-2.2504-0.77834-11.401-0.67949l-9.86 0.10648-0.10196 138.41c-0.056 76.124-0.0167 138.63 0.0871 138.91 0.14415 0.37971 2.5174 0.49787 9.9992 0.49787 8.3575 0 10.019-0.0989 11.219-0.66833zm94.23 32.402c-6.5634-2.4199-10.475-10.708-12.345-26.158-0.65348-5.3985-0.70702-15.89-0.82049-160.81l-0.12135-155.04h54.584v150.58c0 107.95 0.12466 151.39 0.44019 153.44 0.91907 5.9806 1.6309 6.3384 12.284 6.1734 7.822-0.12109 7.9395-0.1357 9.0036-1.1184 1.7474-1.6138 2.1763-3.2273 2.5738-9.6828 0.2191-3.5592 0.37675-66.434 0.38284-152.72l0.0106-146.67h54.168v151.86c0 100.67-0.13949 154-0.41376 158.22-1.1791 18.141-5.0765 28.512-11.845 31.52l-2.1024 0.9344-52.265-0.0305c-38.954-0.0226-52.588-0.14936-53.533-0.49787z" fill="#fff" style="paint-order:stroke fill markers"/>
      <path d="m722.97 0-2.1973 0.43029c-2.3843 0.46852-6.2636 2.5434-8.8642 4.7406-0.90152 0.76164-4.1665 3.9395-7.2564 7.0624-6.2656 6.3323-10.185 9.4472-13.586 10.8-3.32 1.3202-7.7588 6.9403-14.277 18.072-5.9027 10.082-7.1833 11.989-11.876 17.699-2.3976 2.9172-3.6434 5.075-5.3247 9.2121-1.2074 2.9709-3.1383 7.6812-4.2902 10.468-1.1519 2.7868-3.8122 10.732-5.9124 17.653-4.381 14.439-9.675 30.394-12.243 36.895-0.97069 2.4586-2.5898 7.4119-3.598 11.006-3.1226 11.133-6.9651 21.114-20.248 52.608-7.0558 16.73-17.078 40.567-22.273 52.972-5.1948 12.406-13.88 32.872-19.299 45.48-7.6701 17.842-9.9703 23.692-10.371 26.387-0.53414 2.0884-1.1092 3.7124-1.6589 5.0262-1.793-0.88985-2.9967-1.4748-4.8816-2.4133-13.593-6.8443-25.145-11.994-34.955-15.772-0.1367-0.0742-0.27744-0.15524-0.41199-0.22522-1.901-0.98888-13.931-6.2524-17.719-8.0329-3.7882-1.7804-11.453-5.6541-17.034-8.6078-5.5808-2.9537-12.48-6.4251-15.332-7.7142-5.0829-2.2981-5.2863-2.344-10.37-2.3914-4.8372-0.0449-5.3672-0.15057-7.901-1.5765-1.4936-0.84058-4.4386-2.7694-6.546-4.2865-5.522-3.9753-8.1474-4.8289-15.223-4.9494-5.1519-0.0877-5.9664-0.22348-7.3004-1.2103-0.826-0.61102-1.7407-1.1096-2.0325-1.1096-0.29181 0-2.1347-1.0901-4.0942-2.4225-1.9597-1.3324-4.3902-2.8162-5.4016-3.2959-3.5232-1.6986-6.7731-6.086-1.7413-7.1851 2.5032-0.4623 3.1267 9e-3 5.0318-1.8458 4.2387-4.1263 6.9071-5.0781 16.85-6.0113 10.574-0.99263 14.244-2.2325 18.554-6.264l2.4006-2.2431 2.796 0.56031c5.8847 1.1818 10.129 0.42695 16.222-2.8857 5.0042-2.7207 7.0775-3.1891 9.6112-2.1753 1.991 0.79662 2.0862 0.78644 4.3542-0.43945 3.3337-1.8019 5.2709-2.2077 14.612-3.0615 10.835-0.99038 13.067-1.5488 21.85-5.4621 16.371-7.2938 22.225-8.4502 28.221-5.5756 1.1683 0.5603 2.2702 0.87194 2.45 0.69214 4.3674-6.7524 4.7863-7.509 15.294-5.7697 7.1499 2.0364 8.6842 2.018 10.677-0.12634 0.85132-0.91611 2.2375-2.0166 3.0799-2.4444 2.2801-1.1583 4.4966-3.9439 4.8504-6.0956 0.48135-2.9275-0.88659-7.1034-4.6747-14.273-2.0334-3.8487-3.4369-7.1056-3.4369-7.9779 0-0.81085-0.85928-3.3393-1.9098-5.6177-1.0506-2.2784-3.297-7.475-4.9933-11.548-5.6738-13.626-10.981-23.276-14.362-26.122-2.8917-2.4332-7.9457-2.8752-16.879-1.4758-2.7818 0.43578-7.3914 0.81658-10.243 0.84778-5.9731 0.0652-9.1626-0.78187-12.491-3.316-3.1659-2.4101-3.2006-2.4193-4.7571-1.311-2.4244 1.7263-5.6108 2.9635-7.6612 2.9754-1.7173 0.01-2.2374-0.29575-4.3579-2.5543l-2.406-2.5635-6.0132 1.1426c-10.405 1.9778-11.141 2.0635-13.119 1.5308-1.0275-0.27666-2.2723-0.948-2.7649-1.4923-0.71786-0.79321-1.519-0.99057-4.043-0.99057-3.678 0-5.3477 0.63073-9.0088 3.4021-3.1179 2.3602-4.0432 2.4773-6.2494 0.79467-0.89012-0.67891-2.2098-1.2341-2.9316-1.2341-0.7426 0-2.5928-0.89771-4.2627-2.0691-2.455-1.7221-3.3391-2.0688-5.2625-2.0618-1.2916 5e-3 -3.3752 0.48183-4.7205 1.0822-3.2421 1.4468-5.1686 1.3659-15.613-0.65368-10.245-1.9811-16.287-2.2321-21.788-0.90455l-3.4131 0.82398-1.3494-1.2616c-3.2764-3.0649-6.9564-3.8332-12.457-2.6019-2.0367 0.45592-4.9112 0.94903-6.3867 1.0968-2.5129 0.25157-2.754 0.17891-3.8214-1.1572-1.1059-1.3838-1.2688-1.4265-5.4657-1.388-3.7659 0.0346-5.2233 0.33793-11.277 2.3456-7.2945 2.4189-9.7003 2.749-11.287 1.549-2.307-1.745-36.914 0.79472-43.869 3.5672-8.0358 3.2029-11.258 6.0668-19.684 17.496-9.4866 12.867-12.797 19.208-13.154 25.19l-0.11902 1.9739 3.7042 1.8256c2.0367 1.0036 5.7022 2.3935 8.1464 3.089 9.2268 2.6256 34.883 1.4722 70.872 1.9443 34.108 0.44745 43.868 0.23282 57.445-1.2634 11.297-1.2448 33.02-0.73012 37.998 0.90088 4.0236 1.3183 1.4916 3.9544-4.2608 4.4366-4.5973 1.0752-7.5249 4.0159-12.56 6.5475-6.3382 1.6573-8.6294 4.8103-16.302 5.4291-12.847 1.4399-12.92 2.535-23.878 5.7473-4.9517-0.53129-9.2674 1.4827-13.876 2.41-4.6983 0.21768-7.8323-1.4918-17.99 2.7228-3.3502 1.39-5.4154 1.9077-8.6902 2.1789-8.637 0.71545-14.048 4.8287-22.445 17.06-2.4234 3.5303-5.4192 7.6672-6.6578 9.1937s-3.6529 4.7482-5.3649 7.1594c-1.7122 2.4112-4.7734 6.3852-6.8024 8.8294-2.029 2.4441-4.6017 6.2622-5.7166 8.4851-1.9033 3.795-2.0243 4.2922-1.9958 8.1647l0.0311 4.1254-2.3108 1.0602c-4.3688 2.0058-5.4938 6.6809-2.8582 11.882 3.4898 6.8868 10.021 9.8681 15.498 7.0733l2.0508-1.0474 3.598 1.4301c7.4774 2.9704 18.237 4.4863 31.985 4.5062 36.572 0.0532 57.437 9.051 87.311 19.71 3.1105 1.1098 11.783 3.7841 19.274 5.9418 13.476 3.8816 22.662 6.862 25.21 8.1793 0.72351 0.37414 3.6149 1.2385 6.4252 1.9208 1.4086 0.34198 3.7793 0.95485 6.4599 1.6663 2.5649 1.0862 12.955 4.6704 16.502 6.0334 9.9412 3.821 23.242 8.055 35.26 13.696-1.2369 4.7586-3.3124 12.226-4.9036 14.852-0.79691 1.315-2.4627 5.5225-3.7024 9.3512-1.2398 3.8287-5.6598 16.396-9.8222 27.925-11.79 32.661-16.169 46.612-19.426 61.89-1.8293 8.5813-3.5461 20.752-3.7006 26.246l-0.10987 3.9642 1.2744-1.311c1.8234-1.8729 6.9608-9.2571 10.395-14.943 5.2692-9.0893 7.9649-13.412 12.171-18.829 1.6658-2.1742 1.7395-2.1943 3.3069-0.84594 3.0298 2.6067 7.8742 0.39307 7.3682-3.3673-1.4403-2.4124-1.8095-5.0701 0.32226-6.2603 6.8046-2.268 12.224-4.6596 14.612-6.449 1.1208-0.84004 4.8571-4.8529 8.3038-8.9172 4.3124-5.1098 8.0526-11.388 9.0308-21.24 0.29113-0.24581 1.446-0.76727 2.5672-1.159 4.4256-2.8048 11.242-30.277 14.758-45.624 1.0857 0.30541 2.2448 0.66906 3.6292 1.1627 7.9699 2.8418 10.15 3.2276 15.788 2.796 0.34644-0.0265 1.5182-6e-3 2.6037 0.0457 2.3294 0.11061 4.4799-0.31761 5.2734-1.051 0.6635-0.61325 0.0648-2.7174-0.9137-3.2098-1.0576-0.53227-0.87468-1.961-0.0367-2.4628 1.155 0.39295 2.0143 0.67347 3.3545 1.1371 11.676 4.0391 18.502 0.92265 19.261 0.45412 1.4008-0.86578-2.8609-5.0748-21.019-14.991-1.1595-0.63319-2.2597-1.2448-3.3289-1.842 0.11817-0.14376 0.26471-0.28968 0.46693-0.44313 1.4856-1.1272 2.2303-1.1302 4.4586-0.0165 1.134 0.56689 2.1257 0.90225 2.2046 0.74341 0.0789-0.15879 0.7347 0.1175 1.4575 0.61524 1.1208 0.77173 1.4745 0.84531 2.4023 0.49989l1.0877-0.40466-0.32227-1.2323c-1.4743-4.9003-12.704-8.5192-21.839-11.651 3.1242-5.9198 9.2002-17.216 11.29-19.51 2.8534-1.8144 3.8872-5.3902 4.1932-14.51 0.42847-12.774 0.67194-14.037 2.9041-15.037 2.1003-0.94078 3.6035-6.2387 4.8706-17.171 0.30824-2.6593 0.84537-5.2499 1.1938-5.7568 0.60507-0.87999 0.66725-0.87774 1.4117 0.0238 1.9598 2.3731 1.9797 2.3747 3.371 0.49988 1.4951-2.0148 2.6175-6.1135 3.3948-12.393 0.8627-6.9696 1.1692-8.1034 2.1973-8.1628 0.50274-0.0291 1.06 0.27253 1.2397 0.67017 0.6716 1.487 1.258 0.54976 2.3218-3.7152 1.7432-6.9894 3.4795-10.424 12.814-25.351 2.1179-3.3868 3.9393-6.8314 4.0485-7.6538 0.36353-2.7376 2.9969-9.1007 6.8372-16.522 6.7851-13.111 8.0006-16.406 10.155-27.53 1.6056-8.2899 3.1457-12.347 6.1377-16.17 1.0632-1.3588 2.6876-4.6548 3.9331-7.9797 1.167-3.1154 3.0804-7.7307 4.2535-10.255 1.1731-2.5246 3.2264-7.6578 4.563-11.408 5.8796-16.494 9.9581-23.327 14.064-23.566 2.1003-0.12248 6.7041-3.2743 9.1809-6.2842 6.0508-7.3528 8.094-17.651 4.9951-25.186-0.91379-2.2219-1.0287-3.0602-0.71961-5.2478 0.28147-1.9918 0.0856-4.1901-0.83313-9.3622-1.8146-10.216-1.7379-11.92 0.54016-12.052 1.2227-0.07078 2.7171-3.1622 2.8857-5.9674 0.0862-1.4333-0.26858-3.9622-0.87341-6.2201-1.3232-4.9391-1.3261-4.8472 0.28563-6.9122 0.75972-0.97341 1.3595-2.1446 1.333-2.6019-0.0264-0.45729 0.39552-3.1224 0.93937-5.9235 1.2372-6.3731 0.80459-12.54-1.1444-16.287zm-277.53 20.288c-3.268 0.039-4.8352 0.64207-7.9926 3.078-2.9357 2.2648-8.0708 4.2505-16.504 6.3794-8.4258 2.1272-9.9862 2.8144-15.284 6.7401-15.559 11.306-33.794 18.968-51.35 27.074-7.2279 3.6273-11.555 5.392-15.198 6.1981-1.2821 0.28372-6.8859 2.2604-12.453 4.3927-16.618 6.3649-26.614 9.7462-36.428 12.322-3.407 0.89384-6.6143 2.1021-8.3716 3.1549-5.5141 3.3035-10.012 4.6173-26.548 7.7582-2.9872 0.56738-7.6517 1.7733-10.368 2.6807-2.7156 0.90736-6.2436 1.7919-7.8387 1.9647-2.7403 0.29678-6.7497 1.5177-20.094 6.1194-3.1422 1.0836-9.4744 2.6849-14.072 3.5577-19.058 3.6181-25.942 5.8648-32.06 10.468-4.8024 3.6136-7.9434 4.1812-17.282 3.1164-11.247-1.2823-16.383-0.91553-21.973 1.5728-2.5856 1.1511-2.8857 1.1808-6.2897 0.60792-8.3139-1.3992-20.296 0.46564-28.496 4.4348-3.4645 1.6769-4.442 2.4458-6.7291 5.2972-3.6178 4.5105-8.0958 8.1926-17.488 14.381-5.6752 3.7392-9.4528 6.3409-12.118 8.4027-0.21976-1.2366-1.8569-0.67371-8.3332 2.6569-8.0427 4.1361-8.4355 4.208-11.98 2.2083-4.5326-2.557-5.0666-2.3432-7.9559 3.1988-1.4438 2.7692-1.8774 5.5425-1.1444 7.3224 1.2843 3.1184 2.0403 2.7756 8.9685-4.0668 3.8674-3.8195 3.9813-3.8796 4.5868-2.4097 0.26043 0.63238-1.3872 3.1848-3.6621 5.6726-2.7707 3.03-3.705 4.9799-2.8308 5.9051 0.87248 0.92333 0.49845 1.7135-1.1298 2.3841-3.718 1.5312-6.011 8.2825-3.653 9.6806 0.12672 0.41297 0.45658 0.69297 0.98691 0.96675 0.67892 0.35053 1.457 0.63987 1.7286 0.64086 3.6018 0.0187 28.818-1.577 50.856-3.2171 2.1726-0.1617 10.616-0.48052 18.763-0.70862 14.182-0.39712 15.069-0.47932 20.841-1.9299 10.249-2.5757 18.321-5.0147 21.773-6.5808 1.8187-0.82502 7.5472-3.2305 12.731-5.3449 10.678-4.3551 18.345-8.0787 22.641-10.996 2.3055-1.5652 3.8879-2.1883 7.3774-2.9041 9.2059-1.8882 14.902-3.9693 32.016-11.7 12.173-5.4996 17.263-7.6199 22.06-9.19 1.4684-0.48057 5.2453-2.0871 8.3935-3.5687 25.304-11.909 53.08-21.025 74.11-24.325 2.0367-0.31965 6.0366-1.3198 8.888-2.2229 7.6349-2.4182 15.165-3.9832 32.044-6.6559 8.311-1.316 17.665-2.8448 20.788-3.3984 3.123-0.55362 7.4552-1.2585 9.6281-1.5674 2.1726-0.30884 10.283-1.7563 18.023-3.2153 15.998-3.0157 26.763-4.668 30.367-4.66 1.3579 0.0028 5.0233-0.6636 8.1463-1.4813 3.1231-0.81772 8.8848-2.2655 12.802-3.2171 8.3087-2.0183 13.981-4.5541 17.728-7.923 1.8573-1.6699 2.5511-2.6498 2.5507-3.6053-9.4e-4 -2.0648-2.7364-11.736-4.7003-16.621-3.8565-9.5925-8.1792-15.836-18.739-27.065-5.9398-6.3161-7.729-7.9102-10.499-9.3531-3.8198-1.9894-5.5979-2.4531-9.2321-2.4097zm538.11 118.78c-1.2892-0.0439-4.4304 0.53513-6.2659 1.0657-3.3743 1.0942-8.639 2.7132-11.7 3.5998-3.0613 0.88674-6.4998 1.9695-7.6392 2.406-2.8686 1.0988-9.9684 4.3873-11.442 4.53-2.44 0.23586-2.663 0.19801-3.1641-0.51819-0.47016-0.67207 0.60721-0.74634 1.9123-2.1504-1.7932-0.11544-3.5004 0.27058-6.3603 0.062-8.8898 0.78936-9.0877 0.72861-20.621 2.6763-4.4588 0.62495-9.3769 1.1859-12.443 1.4392-0.32509-0.35575-0.78456-0.69098-1.4355-1.0291-2.0425-1.0605-3.283-1.1587-5.2075-0.40832-1.7564 0.68479-4.0521 0.44793-6.0736-0.62805-1.7154-0.91305-3.625-1.1265-4.7901-0.53468-0.45326 0.23033-1.3739 1.0884-2.0471 1.9061-0.67324 0.81784-1.7556 1.7121-2.4041 1.9866-0.74713 0.31637-1.9178 1.4173-3.1952 3.0048h-2e-3c-3.5452 4.4057-4.244 5.419-4.0027 6.9342-1.3761 0.99657-2.7245 2.0517-4.0612 3.1732l-4.4788 3.7554-7.738 2.113c-10.118 2.7608-14.479 5.0738-18.819 9.9862-0.61682 0.69808-1.8042 0.98382-4.6875 1.1279-5.0397 0.25198-8.8099 1.5815-17.122 6.0315-7.4279 3.9765-10.514 5.2928-14.691 6.2695-1.7141 0.40092-3.8174 1.4493-5.6799 2.8327-3.3999 2.5254-7.9824 4.7094-14.908 7.1045-5.8552 2.0248-10.018 4.0772-13.374 6.5918-1.6749 1.2552-6.5708 3.4685-14.806 6.6943-12.052 4.7214-17.109 6.2991-21.119 6.5863-1.1226 0.0804-11.133 16.418-13.085 17.749-1.9124 1.3044 1.3653-12.666-1.4685-11.532-6.2512 2.4998-6.4495 2.6231-6.5955 4.0539-0.14754 1.4469-0.88677 1.8197-1.5747 0.79467-0.80991-1.2066-1.4404-1.0839-5.6269 1.0914-5.3484 2.7788-9.4884 6.3543-12.568 10.856-2.7243 3.9818-13.326 17.525-22.537 28.786-5.8872 7.1982-5.5331 6.4738-10.236 20.94-0.83494 2.5684-2.3292 5.9494-3.3216 7.5146-2.0664 3.2595-2.1885 4.906-0.69947 9.4594 1.836 5.6141 4.1653 7.4602 9.4444 7.4872 2.1848 0.0112 3.1455 0.26435 4.5684 1.2049 1.6151 1.0674 2.3847 1.2199 7.4011 1.4612 6.319 0.304 9.2602 1.3352 10.472 3.6712 0.59104 1.1396 1.0171 1.3197 3.8049 1.604 5.7019 0.58138 11.249 2.6712 19.351 7.2912 0.50718 0.28925 0.59948 0.14339 0.37903-0.60425-0.63454-2.1516-0.58942-2.7454 0.22522-2.9663 1.2259-0.33242 3.6242 1.1263 5.7001 3.4662l1.8256 2.0581 1.0309-0.93018c1.3566-1.2229 2.5449-1.683 5.5756-2.1606 2.2503-0.35465 2.813-0.2609 5.473 0.9082 1.9318 0.84906 3.4769 1.9488 4.4312 3.1549 0.80558 1.0181 1.6443 1.8715 1.864 1.8969 0.21977 0.0253 1.0102-0.54629 1.7578-1.2708 2.2082-2.14 3.9303-2.2526 13.598-0.88257 9.7903 1.3875 10.554 1.3152 13.876-1.3183 3.7647-2.9848 6.7176-3.564 19.808-3.8855 4.5854-0.11265 8.4968-0.48825 10.025-0.96319 1.3781-0.42824 4.9603-1.2022 7.9614-1.7194 3.0012-0.51707 6.7898-1.4504 8.4192-2.0746 3.0473-1.1675 7.0971-4.3095 7.879-6.1139 0.52007-1.2001 1.0334-1.2402 1.7724-0.13916 0.77735 1.1583 2.6321 1.1845 5.1159 0.0714 3.8296-1.7164 6.942-2.1604 11.673-1.6626 3.2981 0.34698 5.4472 0.26448 8.4705-0.3241 2.228-0.43376 8.8776-1.4109 14.775-2.1716 5.8972-0.76067 12.197-1.6658 14.001-2.0124 2.4468-0.47013 3.6654-0.47564 4.8028-0.0202 2.2965 0.91969 6.19 1.1802 9.1846 0.6134 1.471-0.27841 6.0156-1.7395 10.098-3.2465 8.4337-3.113 11.998-3.4863 15.438-1.6187 1.6039 0.87077 2.0675 0.9298 3.924 0.50354 1.158-0.26587 5.3307-0.62306 9.2724-0.79468 9.3682-0.40782 12.374-0.89938 17.968-2.9334 3.7009-1.3456 5.5438-1.7057 9.115-1.7798 5.9417-0.12329 10.828-0.96365 17.117-2.9462 5.8822-1.8544 9.4941-2.7115 20.658-4.8999 8.3775-1.6421 18.723-4.3097 20.442-5.2698 0.9956-0.55607 0.9597-0.62459-0.7452-1.5069-1.8967-0.98156-4.1803-1.9785-6.7474-2.9663-0.05-0.41407-0.1928-0.66414-0.4633-0.82032-0.4075-0.23526-5.9312-1.2576-6.3401-0.95784-5.4802-2.0016-2.4331-2.2961-9.4004-3.9292-0.32775-0.7792-3.3309-1.7018-4.0307-2.1057-1.3596-1.2235-2.9543-0.70416-3.5508 9e-3 -2.0309 1.383-4.3401 0.011-5.9546-0.30029-10.919-2.0456-44.441-5.9109-48.272-5.5664-2.1041 0.18926-7.6802-0.1409-15.342-0.9082-12.135-1.2152-16.515-1.2832-20.936-0.32593-2.1631 0.46829-2.6215 0.42331-4.4239-0.43579-3.5242-1.6799-5.3944-1.9153-12.599-1.5893-5.8358 0.264-7.4927 0.17765-9.6347-0.49988-1.8074-0.57155-3.1675-0.72423-4.5136-0.5072-1.0596 0.17091-4.9148 0.0367-8.5656-0.29846-5.907-0.51838-13.063 4.0897-15.603 0.52735-1.5201-2.0408-1.5766-2.0664-5.7239-2.6623-5.0585-0.72678-9.7903 0.0223-13.85 2.1918-2.6498 1.4158-2.6746 1.4179-4.8963 0.49439-3.5816-1.4888-6.1597-1.3698-9.2321 0.42297-0.71273 0.41583-1.1222 0.24275-2.2925-0.96497-1.9485-2.0108-4.9292-3.1215-15.008-5.5902-4.7421-1.1616-8.8134-2.2575-9.0472-2.4371-1.3092-1.006 0.484-4.1214 3.8049-6.6101 3.8491-2.8844 7.4668-3.4509 11.287-1.767 0.84705 0.37344 1.2759 0.0528 2.7814-2.0764 3.1358-4.4353 6.8133-6.1272 17.822-8.1976 8.8842-1.6709 12.362-3.0163 16.269-6.2933 3.0069-2.522 3.5066-2.7539 6.5076-3.0304 5.4952-0.50627 11.066-2.2067 19.472-5.9418 4.4318-1.9694 9.4528-4.1092 11.156-4.7553 3.3596-1.274 9.4331-2.6276 11.05-2.4628 0.55394 0.0564 1.745-0.34786 2.6459-0.89905 4.7648-2.9152 8.6101-3.4028 17.236-2.1881 5.4555 0.76822 6.2642 0.77068 8.1262 0.0293 1.3134-0.52287 3.0038-0.73233 4.6326-0.57129 5.6037 0.55253 12.775-1.0263 17.09-3.6712 0.0525 0.0236 0.097 0.0503 0.15562 0.0714 0.98728 0.35528 3.0554-0.11366 3.4972-0.79284 0.25678-0.39446 0.51019-0.43177 1.0218-0.15198 1.6317 0.89214 1.9383 0.88461 3.7481-0.0878 1.9689-1.0581 3.1647-2.5108 2.9316-3.5614-0.11813-0.53231 0.10163-0.71393 1.1572-0.96497 0.71606-0.17036 1.3988-0.45802 1.516-0.63903 0.11784-0.181 0.75694-0.34611 1.421-0.36621 1.9016-0.0575 2.2673-0.80198 1.1609-2.3236 2.1608-0.8633 4.0674-1.9307 5.1947-3.0048 1.8993-1.8097 3.0057-3.6105 3.6419-6.6321 0.29803-0.13199 0.34603-0.29365 0.0953-0.45044 0.25312-1.3506 0.40978-3.0065 0.51816-4.9328 0.38812-0.0875 0.66328-0.17801 0.71784-0.26184 0.0741-0.11317 0.97978-0.42215 2.0141-0.68665 2.0433-0.5226 2.6703-0.93688 1.4136-0.93383-0.87975 2e-3 -0.80166-0.45014 0.0952-0.55116 0.96262-0.10849 0.94762-0.55896-0.0234-0.77453-0.50709-0.11229-0.84338-0.32454-0.74709-0.47241 0.0962-0.14788-0.2325-0.36007-0.7306-0.47059-1.0009-0.22144-1.3806-1.1485-0.82209-2.0068 0.38119-0.58599 1.1511-0.59861 1.3421-0.0219 0.0628 0.18732 0.94819 0.46414 1.9702 0.60974 1.3676 0.19751 2.4626 0.0936 4.1583-0.3955 1.2662-0.36508 2.4308-0.85509 2.591-1.0877 0.1591-0.23258 0.50485-0.47878 0.76716-0.54748 0.26222-0.0688 0.68203-0.42305 0.93206-0.78736 0.35025-0.50906 0.24553-0.6757-0.45412-0.7196-0.83316-0.47593-1.5902-0.98504-2.1552-1.5052l1.4154-0.49622c0.77925-0.2734 1.6032-0.78385 1.831-1.1334 0.33712-0.51775 0.17353-0.68952-0.88069-0.92284-1.5963-0.35318-2.9215-0.14837-4.0338 0.60791 1.47-1.466 3.0482-2.8782 3.9331-3.4918 4.0961-2.8406 5.7567-7.5652 4.1308-11.755-1.1228-2.8939-3.8131-3.8119-6.3867-2.1808-0.74194 0.4703-1.6786 0.82113-2.082 0.78003-0.3465-0.0353-4.3734-2.7546-6.2548-3.8269 0.11644-0.0353 0.1891-0.0642 0.31125-0.1007 1.266-0.37811 15.718-6.7058 15.609-7.1759 0.0131-0.51077-17.762 4.0221-19.528 4.618-0.0206 7e-3 -0.0487 0.015-0.0694 0.0219-0.10106-0.0589-0.1951-0.11053-0.29663-0.17029-1.8038-0.74485-1.8382 0.29034-4.6509-0.22522 8.4e-4 -8e-3 0.0113-0.0218 0.0113-0.0292-9e-3 -0.7129 3.2032-2.7142 4.649-2.9004 0.7696-0.0992 1.7465-0.48389 2.1698-0.85328 0.42347-0.36938 1.5815-1.0072 2.5745-1.4172 1.0556-0.43613 1.8018-0.95522 1.8018-1.2506 9.4697-4.6322 11.99-5.8683 18.45-8.8221 5.5711-1.9593 6.1341-2.6258 4.8449-2.6696zm-751.05 59.381c-0.18562-4e-3 -0.4062 0.0178-0.67016 0.0586-1.3889 0.21453-7.1278 0.40321-18.656 0.6134-10.072 0.18364-15.775 1.5163-18.291 4.2737-1.7694 1.9396-7.0611 4.5005-11.314 5.4767-1.5185 0.34853-4.8802 0.70617-7.4708 0.79467-2.6059 0.0891-6.9548 0.70298-9.7341 1.3732-5.6809 1.3703-11.621 1.9599-13.709 1.3623-1.0351-0.29632-2.4589-3e-3 -5.4016 1.1096-5.6156 2.1233-9.84 3.3733-17.361 5.138-6.2231 1.4602-6.5893 1.4906-7.9706 0.66285-2.613-1.5658-6.2071-1.1058-13.277 1.701-7.4691 2.9652-10.071 3.2584-12.863 1.4502-1.7905-1.1594-1.962-1.1815-4.5849-0.61157-5.1949 1.1289-11.919 1.5598-22.018 1.4099-8.315-0.12349-10.675 7e-3 -13.067 0.72326-4.0185 1.2035-9.0404 3.7764-13.68 7.0111-3.3479 2.3343-3.8742 2.8934-3.6859 3.9093 0.26392 1.4237-0.65737 2.093-1.2323 0.89539-0.34116-0.71062-1.4973 0.0653-7.1319 4.7828-3.699 3.0969-8.2755 6.6454-10.17 7.8846-3.0171 1.9737-3.5029 2.5015-3.9148 4.2608-1.3775 5.8837-8.2072 14.631-10.783 13.809-0.96741-0.30832-1.3687 0.0398-3.0249 2.6202-1.0503 1.6364-2.0895 3.5468-2.309 4.2462-0.39728 1.2663-0.3873 1.2728 2.4591 1.3916 2.7873 0.1164 2.8864 0.1667 3.9588 2.0563 0.62169 1.0954 1.64 2.1048 2.3438 2.3199 0.68473 0.20931 4.9952 2.2695 9.5784 4.5795 4.5831 2.31 12.315 5.8696 17.181 7.9102 16.012 6.7143 25.157 9.1556 53.228 14.207 18.353 3.3026 17.991 3.2143 33.183 8.0383 15.09 4.7918 19.637 5.913 25.499 6.2805 2.6468 0.16594 6.3178 0.79542 8.8678 1.5216 5.1188 1.4577 12.416 2.9057 23.921 4.748 20.144 5.0137 23.554 4.3912 91.796 26.15 13.451 4.2886 25.107 7.8748 35.442 10.956 1.3118 1.5212 2.5305 3.0745 2.9316 4.4696 0.44793 1.5578 10.962 2.7567 10.597 2.9114-0.22244 1.6934 8.1122 5.4926 10.42 4.8487 0.69184-0.70085 1.5814-0.3819 1.9776 0.71046 7.2772 0.65829 10.952 1.6839 15.609 4.2883 7.8532 4.5595 8.9496 5.4694 15.682 5.8136 5.7525 0.50608 7.8249 2.2609 14.506 0.21057-0.23119-0.31792-0.31622-0.61483-0.30213-0.87341 7.5997 2.0296 13.963 3.695 14.361 3.7354 2.6016 0.26438-0.0123-1.805-10.391-8.2306-1.146-1.3671-1.0999-2.1581 0.19775-2.2284 1.3285-0.0719 2.0187-0.67746 1.5326-1.3458-0.48569-0.66817-0.25845-1.1738 0.5072-1.1225-8.2779-7.4334-8.7042-3.9442-12.524-11.632-1.4903-3.7689-11.235-4.9544-13.57-6.4087-3.2974-2.0541-0.093-3.9742-7.7655-0.41198-5.0738 2.8169-7.373-0.68386-10.184-1.9171-0.0329-0.0424-0.0578-0.07-0.0916-0.11352-0.24064-0.31073-0.90122-0.56258-1.8604-0.76539-5.5384-2.4526-11.286-5.1217-16.421-7.8754-7.7642-4.184-13.608-5.4214-18.191-6.654-1.6056-0.43181-3.8782-1.4712-5.05-2.3108-3.2649-2.3394-5.2776-3.1897-14.46-6.1066-9.1438-2.9048-10.956-2.6983-14.408-5.0976-1.3034-0.90575-3.5766-1.8692-5.4309-2.3034-3.5428-0.82976-7.8758-2.5627-18.485-7.3884-8.8798-4.0392-12.443-5.1994-20.663-6.731-10.542-1.9644-13.392-3.1479-18.735-7.7801-1.4535-1.2601-2.2577-1.5117-6.6009-2.0673-7.5491-0.96563-11.085-2.7217-25.835-12.821l-5.5829-3.8214-2.6221 0.52552c-4.8969 0.98034-6.3266 0.61388-9.9225-2.536-3.5016-3.0672-4.9929-3.8929-8.2178-4.552-4.5156-0.92301-10.16-5.6454-10.668-8.9245-0.30158-1.9479 1.3495-3.6023 4.1675-4.1748 2.4646-0.50068 4.1483-0.19011 10.334 1.9061 7.6892 2.6056 12.802 2.2444 16.919-1.1938l1.5912-1.3275 2.503 1.247c2.2241 1.1085 2.7487 1.1958 4.7315 0.79651 1.2269-0.24713 4.2495-1.4466 6.7163-2.6661 5.9752-2.9537 10.298-3.9619 14.718-3.4332 3.1241 0.37372 3.5537 0.56537 5.1526 2.298 2.3529 2.5498 3.3398 3.0682 7.1942 3.7792 4.4015 0.81196 10.014 0.54016 19.689-0.95212 4.4142-0.68088 8.4998-1.3102 9.0784-1.3989 0.75122-0.11508 1.7918-1.4781 3.6438-4.7662 2.8942-5.1388 6.4912-10.121 12.249-16.975 5.1488-6.1284 29.81-10.672 29.888-11.891 0.0359-0.5567-0.92507-3.3644-2.135-6.2402-3.4745-8.2582-32.437-12.388-38.609-13.685-7.0228-1.4753-10.791-4.8673-12.376-11.146-0.13707-0.54288-0.37698-0.77214-0.93384-0.78369zm332.4 18.424c-0.89685 0-0.98241 0.80845-0.12268 1.1554 0.33945 0.13697 0.67194 0.26607 0.73974 0.28747 0.068 0.0215 0.12451-0.29396 0.12451-0.70129 0-0.40736-0.33423-0.74159-0.74157-0.74159zm329.5 4.8504c-0.25665-0.0262-0.56939 0.18271-0.6958 0.46326-0.12642 0.28057 0.13932 0.54736 0.58961 0.59326s0.763-0.16296 0.6958-0.46326c-0.0671-0.30029-0.33295-0.56706-0.58961-0.59326zm-883.98 32.978c-0.10903-0.0107-0.24718 0.18779-0.50354 0.58411-0.29735 0.45969-0.4078 1.0841-0.24536 1.388 0.47312 0.88493 1.4074-0.25148 1.0748-1.3074-0.13696-0.43486-0.21689-0.65399-0.32593-0.66467zm988.69 24.841c-0.31809 0.29007-0.34247 1.0216-0.0628 2.1666 0.47372 1.9399 1.5673 3.6564 2.699 4.2384 0.5143 0.26443 1.3106 0.45364 1.7692 0.41983 0.6675-0.0485 0.9074-0.24263 1.1998-0.97106 0.466-1.1621 0.2232-2.6722-0.6375-3.9554-0.8079-1.2061-1.7026-1.7833-2.6512-1.7134-0.3836 0.0283-1.0277-0.072-1.4298-0.22338-0.39891-0.15013-0.69544-0.13585-0.88641 0.0383zm15.12 3.1643c-1.2033 0.62303-2.13 2.9128-1.5416 4.2418 0.4841 1.0933 1.8852 2.8134 2.6709 3.2788 0.8715 0.51633 2.8303 0.34266 3.4105-0.30232 0.249-0.27672 0.6046-0.86889 0.7897-1.3166 0.447-1.0816-0.1131-3.3162-1.1033-4.4026-0.7708-0.84573-2.7397-1.7276-3.6979-1.6569-0.1796 0.0132-0.3563 0.0688-0.5283 0.1578zm-678.95 57.871c-0.73408 0.0354-1.3768 0.2183-1.7102 0.52734-0.59276 0.5494 6e-3 1.298 1.3312 1.6644 1.3252 0.36646 2.8954 0.21613 3.4882-0.33325 0.59276-0.5494-6e-3 -1.298-1.3312-1.6644-0.33132-0.0916-0.67898-0.15053-1.0217-0.17945-0.25706-0.0217-0.51153-0.0264-0.75623-0.0146zm18.975 5.3778c-0.64427-0.0308-1.2679 0.0305-1.8237 0.20692-1.0776 0.34207-1.7438 1.3642-1.4795 2.2705 0.70059 2.4019 8.1766 3.4264 8.7909 1.2049 0.46666-1.6876-2.6958-3.5485-5.4876-3.6822zm18.504 8.5492c-0.30228-2e-3 -0.61715 8e-3 -0.94116 0.0292-3.7585 0.24709-4.7848 1.0967-3.6804 3.045 0.97781 1.7254 4.3881 2.1812 7.37 0.98325 3.7672-1.5131 1.7857-4.0299-2.7484-4.0576zm189.08 118.74c-1.456-0.0526-2.7975 0.65804-3.4478 2.0838-0.98606 2.1615 0.98016 5.6583 3.8342 6.8188 2.1351 0.86815 2.4711 0.79701 3.8324-0.80749 1.8972-2.2365 1.6515-4.0586-0.88623-6.5662-0.99778-0.98597-2.2-1.488-3.3325-1.529zm-30.878 16.414c-1.3261-0.0109-2.805 0.58233-3.4552 1.6168-0.6891 1.0969-0.54288 1.7278 0.75257 3.2501 1.8345 2.1556 4.206 2.1624 5.8484 0.0183 1.08-1.4097 0.87483-2.1594-1.1352-4.1784-0.47465-0.47675-1.2148-0.70028-2.0105-0.70679zm-38.509 4.2132c-0.7872 0.0114-1.5352 0.82961-1.6076 1.9941-0.059 0.94828 0.46486 1.3356 1.6076 1.1884 1.6352-0.2108 2.0856-1.8918 0.7782-2.9078-0.24749-0.19234-0.5158-0.27846-0.7782-0.27466z" fill="#E81C4F" stroke-width=".49375"/>
      <path d="m329.88 354.66c0.19405-0.70176 0.8023-0.79088 1.3517-0.19811 0.54939 0.59276 0.93278 1.3168 0.85197 1.6091-0.0808 0.29215-0.68906 0.38135-1.3517 0.19813-0.66264-0.18323-1.046-0.90731-0.85197-1.6091z" fill="#fd024c" stroke-width="1.25"/>
    </svg>