<svg version="1.1" viewBox="0 0 1052.4 744.09" xmlns="http://www.w3.org/2000/svg">
	<g transform="translate(0 -308.27)">
		<path d="m746.35 463.24-2.1973 0.43029c-2.3844 0.46853-6.2636 2.5435-8.8641 4.7406-0.90152 0.76165-4.1665 3.9395-7.2565 7.0624-6.2656 6.3323-10.185 9.447-13.586 10.8-3.32 1.3202-7.7589 6.9403-14.277 18.073-5.9027 10.082-7.1833 11.989-11.876 17.699-2.3975 2.9172-3.6434 5.075-5.3247 9.212-1.2074 2.971-3.1382 7.6813-4.2902 10.468-1.1519 2.7869-3.8122 10.731-5.9125 17.653-0.54141 1.7844-1.1185 3.599-1.6809 5.4089l0.0385-50.27h-54.17l-0.10255 152.05c-0.0119 17.496-0.0241 26.853-0.0348 40.558-0.66589 1.588-1.849 4.3933-2.4115 5.7367-5.1948 12.406-13.879 32.872-19.299 45.48-1.0936 2.5441-1.8521 4.3468-2.7374 6.4288-0.0524-23.286-0.0839-53.3-0.0952-86.169 5.5166 1.4757 6.9833 1.2889 8.7817-0.64636 0.85133-0.91613 2.2375-2.0166 3.0798-2.4445 2.2801-1.1582 4.4966-3.9439 4.8505-6.0956 0.48135-2.9275-0.88659-7.1034-4.6747-14.273-2.0335-3.8487-3.4369-7.1056-3.4369-7.9779 0-0.81084-0.85929-3.3393-1.9098-5.6177-1.0505-2.2784-3.297-7.475-4.9933-11.548-0.57506-1.381-1.1425-2.6916-1.7084-3.988l-9e-3 -111.49h-54.168l2e-3 84.007c-1.3731-0.9261-1.6965-0.72551-2.8491 0.0952-2.4244 1.7263-5.6107 2.9636-7.6611 2.9755-1.7173 0.01-2.2374-0.29575-4.3579-2.5543l-2.406-2.5635-6.0132 1.1426c-10.406 1.9778-11.141 2.0636-13.12 1.5308-1.0274-0.27667-2.2724-0.94802-2.7649-1.4923-0.71785-0.79321-1.5191-0.9906-4.043-0.9906-2.8582 0-4.5129 0.39544-6.8225 1.8658-0.68323-4.7201-1.3443-9.2928-2.3401-16.108-1.7245-11.802-2.8754-19.765-4.2664-29.348 3.1906-0.81702 7.169-1.8179 10.276-2.5726 8.3087-2.0183 13.981-4.554 17.728-7.923 1.8573-1.6698 2.5512-2.6499 2.5507-3.6053-9.4e-4 -2.0647-2.7364-11.736-4.7003-16.62-3.8565-9.5925-8.1792-15.836-18.739-27.065-5.9398-6.3162-7.729-7.9102-10.499-9.353-3.8198-1.9894-5.5979-2.4531-9.2322-2.4097-3.268 0.039-4.8351 0.64207-7.9926 3.078-2.9357 2.2649-8.0708 4.2505-16.503 6.3794-8.4258 2.1272-9.9866 2.8144-15.284 6.7401-15.558 11.306-33.794 18.967-51.35 27.074-7.2279 3.6273-11.555 5.392-15.198 6.1981-0.99969 0.2212-4.6392 1.4795-8.8275 3.0304v-21.511h-115.9v57.686c-3.3507 0.96844-7.8948 2.0712-11.442 2.7447-5.394 1.0241-9.734 1.9346-13.436 2.8235-0.11926-17.519-0.32314-32.226-0.58411-34.775-1.6028-15.656-5.3985-24.572-11.711-27.512l-2.0581-0.95948-118.49-8e-3v109.16c-1.1519 0.52482-2.5919 1.236-4.4861 2.2101-8.0427 4.136-8.4355 4.2079-11.981 2.2082-4.5326-2.557-5.0667-2.3432-7.9559 3.1989-1.4439 2.7692-1.8775 5.5424-1.1444 7.3224 1.2843 3.1184 2.0403 2.7757 8.9685-4.0668 3.8673-3.8194 3.9813-3.8796 4.5868-2.4097 0.26043 0.63238-1.3872 3.1847-3.6621 5.6726-2.7707 3.03-3.705 4.9799-2.8308 5.9052 0.87248 0.92333 0.49845 1.7134-1.1298 2.384-3.7181 1.5312-6.011 8.2825-3.653 9.6808 0.12672 0.41297 0.45658 0.69296 0.98694 0.9668 0.67892 0.35053 1.4569 0.63988 1.7285 0.64086 1.9197 0.01 10.126-0.45291 20.572-1.1224v30.813c-0.18205 0.0474-0.36581 0.0908-0.54565 0.14466-4.0185 1.2035-9.0404 3.7763-13.68 7.0111-3.3479 2.3342-3.8742 2.8934-3.6859 3.9093 0.26392 1.4237-0.65737 2.0929-1.2323 0.89539-0.34116-0.71063-1.4973 0.0652-7.132 4.7827-3.699 3.0969-8.2755 6.6454-10.17 7.8845-3.017 1.9738-3.5029 2.5015-3.9148 4.2609-1.3775 5.8837-8.2072 14.631-10.783 13.81-0.96739-0.30831-1.3686 0.0397-3.0249 2.6202-1.0503 1.6364-2.0895 3.5468-2.309 4.2462-0.39728 1.2663-0.3873 1.2728 2.4591 1.3916 2.7873 0.11639 2.8863 0.16669 3.9587 2.0563 0.62169 1.0954 1.64 2.1048 2.3438 2.32 0.68474 0.20929 4.9952 2.2695 9.5782 4.5795 4.5831 2.31 12.315 5.8696 17.181 7.9102 7.6085 3.1906 13.681 5.4145 20.956 7.4139v94.744l59.645-0.10436c58.525-0.10144 59.674-0.11823 61.238-0.89173 6.0515-2.9942 9.8618-12.187 11.393-27.49 0.25889-2.5877 0.45922-18.258 0.57495-36.7 6.8966 1.6031 13.374 3.0804 24.875 6.3025v58.874h118.69v-18.08c0.19503 0.18248 0.36706 0.43496 0.48889 0.77088 2.9204 0.26417 5.2476 0.5939 7.3041 1.0547-0.0882 0.60617-0.13293 0.91237-0.21973 1.5088-1.0992 7.5531-1.9977 13.962-1.9977 14.24 0 0.404 5.2148 0.50537 25.889 0.50537 14.239 0 25.889-0.13872 25.889-0.30945 0-0.14956 0.24611-2.2485 0.51269-4.4458 0.92199 0.23292 2.3674 0.60957 2.4774 0.62072 1.6785 0.17058 1.1418-0.65448-2.2064-2.97 0.38656-3.2317 1.0972-9.382 1.7926-15.599 0.77183-6.9005 1.9466-17.295 2.6111-23.101 1.8536-16.193 2.3727-20.866 2.3767-21.409 3e-3 -0.39218 4.6114-0.49804 21.703-0.49804h21.7l0.19776 0.89721c0.10931 0.49289 1.3707 11.65 2.8033 24.794 1.4327 13.144 2.8675 26.137 3.1879 28.876 0.57522 4.9166 1.3934 12.508 1.3934 12.931 0 0.1155 11.964 0.17299 26.587 0.11719 26.324-0.10145 26.584-0.11029 26.484-0.89906-0.0551-0.43813-1.3606-9.4896-2.9022-20.114-1.5417-10.625-3.1476-21.738-3.5687-24.695-0.1183-0.83066-0.72685-5.0101-1.0052-6.936 3.3534 1.3186 12.302 4.4222 15.593 5.6873 1.5093 0.58012 3.1164 1.1735 4.7644 1.7761 0.0494 7.9847 0.10542 12.88 0.16846 13.812 1.1577 17.106 5.1617 27.513 11.741 30.515l1.9958 0.91003 4.856-7e-3c-1.9078 5.4497-4.3066 12.21-6.6925 18.82-11.79 32.661-16.169 46.612-19.426 61.89-1.8294 8.5813-3.5461 20.753-3.7006 26.246l-0.10987 3.9642 1.2744-1.311c1.8235-1.8729 6.9608-9.257 10.395-14.943 5.2692-9.0894 7.9649-13.411 12.171-18.829 1.6657-2.1743 1.7396-2.1943 3.3069-0.84595 3.0298 2.6067 7.8742 0.39309 7.3682-3.3673-1.4403-2.4123-1.8095-5.0701 0.32226-6.2604 6.8045-2.268 12.224-4.6596 14.612-6.449 1.1208-0.84004 4.8571-4.8529 8.3038-8.9172 4.3124-5.1097 8.0526-11.388 9.0308-21.24 0.29114-0.24581 1.446-0.76727 2.5671-1.1591 2.9563-1.8736 6.9628-14.751 10.356-27.673 48.815-0.0739 50.987-0.11105 52.452-0.83862 5.2539-2.6082 8.9548-10.342 10.893-22.76 0.5822-3.7302 0.67731-18.739 0.77636-134.79 1.5613-2.6491 3.4922-5.7961 6.0095-9.8218 2.1179-3.3868 3.9393-6.8314 4.0485-7.6538 0.36353-2.7376 2.9969-9.1007 6.8372-16.522 4.8023-9.2798 6.8033-13.668 8.3331-19.369v94.186c-0.36382 0.44657-0.73853 0.91835-1.0986 1.3586-5.8872 7.1982-5.5331 6.4738-10.236 20.94-0.83494 2.5684-2.3292 5.9494-3.3215 7.5146-2.0664 3.2595-2.1885 4.906-0.69947 9.4592 1.836 5.6141 4.1653 7.4602 9.4446 7.4872 2.1848 0.0112 3.1455 0.26435 4.5685 1.2048 0.47501 0.31394 0.88391 0.54208 1.3422 0.72327v69h119.29l1.9995-0.93018c5.4512-2.5385 8.9215-9.6153 11.028-22.485l0.89356-5.4529 0.0293-32.049c2.9975-0.51787 6.7702-1.4465 8.3954-2.0691 3.0474-1.1675 7.0971-4.3095 7.879-6.1139 0.52006-1.2001 1.0334-1.2402 1.7725-0.13916 0.77735 1.1583 2.6322 1.1846 5.116 0.0714 0.13651-0.0612 0.2662-0.10866 0.40099-0.16663 0.10434 31.374 0.27287 39.541 0.65003 42.656 1.87 15.449 5.7815 23.739 12.345 26.158h2e-3c0.94524 0.34851 14.578 0.47544 53.533 0.49804l52.266 0.0293 2.1021-0.93384c6.7687-3.0082 10.666-13.379 11.845-31.52 0.15047-2.3162 0.25557-20.842 0.3241-52.452 4.0085-0.40004 7.8251-1.2293 12.371-2.6624 5.8822-1.8544 9.4945-2.7115 20.658-4.8999 8.3777-1.6422 18.723-4.3097 20.442-5.2698 0.9956-0.55607 0.9597-0.62459-0.7453-1.507-1.8966-0.98159-4.1803-1.9785-6.7473-2.9663-0.05-0.41408-0.1928-0.66414-0.4634-0.82032-0.4074-0.23526-5.932-1.2574-6.3409-0.95764-5.4802-2.0016-2.4331-2.2965-9.4006-3.9294-0.3278-0.7792-3.3304-1.7017-4.0301-2.1057-1.3596-1.2236-2.9541-0.70401-3.5504 9e-3 -2.031 1.383-4.3401 0.011-5.9547-0.30029-3.5687-0.66859-9.6199-1.5299-16.192-2.3767 0.0264-21.993 0.044-46.93 0.044-77.985v-15.674c0.46912-0.0805 0.96197-0.18645 1.5344-0.35156 1.2662-0.36508 2.4308-0.8551 2.591-1.0876 0.1591-0.23259 0.50485-0.47878 0.76716-0.54748 0.26222-0.0688 0.68194-0.42306 0.93206-0.78736 0.35016-0.50907 0.24553-0.6757-0.45412-0.71961-0.83307-0.47591-1.5901-0.98501-2.1551-1.5051l1.4153-0.49622c0.77925-0.27341 1.6033-0.78385 1.8311-1.1334 0.33703-0.51775 0.17344-0.68953-0.88078-0.92285-1.5963-0.35318-2.9215-0.14837-4.0338 0.60791 1.47-1.466 3.0482-2.8782 3.9331-3.4918 4.0961-2.8406 5.7567-7.5652 4.1308-11.755-1.1228-2.8938-3.8131-3.8119-6.3867-2.1808-0.74184 0.4703-1.6785 0.82113-2.0819 0.78003-0.10106-0.0103-0.55931-0.27917-1.1425-0.63904v-5.2972c4.6463-2.0211 10.881-4.8547 10.809-5.1672 7e-3 -0.28834-5.5587 1.0166-10.809 2.3273v-5.766c6.9644-3.4046 10.249-4.9969 15.919-7.5897 5.5711-1.9593 6.1341-2.6258 4.8449-2.6697s-4.4304 0.53513-6.2659 1.0657c-3.3742 1.0942-8.639 2.7132-11.7 3.5999-0.94303 0.27315-1.8615 0.55839-2.7979 0.84412v-93.3h-54.168l-7e-3 100.62c-0.93656 0.095-2.0359 0.22194-2.785 0.28381-0.32513-0.35577-0.78459-0.69099-1.4356-1.0291-2.0425-1.0605-3.283-1.1587-5.2075-0.40832-1.7564 0.6848-4.052 0.44793-6.0736-0.62805-1.7154-0.91305-3.625-1.1265-4.79-0.53467-0.45326 0.23032-1.3739 1.0884-2.0471 1.9061-0.65652 0.79754-1.6962 1.6582-2.3492 1.9556v-102.16h-54.584l0.10437 133.77c-2.5886 0.92164-5.5794 2.3535-9.6826 4.5502-6.7536 3.6155-9.9246 5.0278-13.583 5.9894 0.0322-69.587-0.0623-109.22-0.29481-112.64-0.97125-14.297-3.6679-23.338-8.3862-28.11-3.8396-3.8832 2.194-3.5541-65.396-3.5541h-12.971c-0.45208-3.9952 0.0415-4.9268 1.6333-5.0189 1.2227-0.0708 2.717-3.1622 2.8857-5.9674 0.0862-1.4334-0.26858-3.9622-0.87341-6.2201-1.3232-4.9391-1.3261-4.8471 0.28564-6.9122 0.75971-0.9734 1.3595-2.1446 1.333-2.6019-0.0264-0.45729 0.39552-3.1225 0.93933-5.9234 1.2372-6.3731 0.80459-12.54-1.1444-16.287zm-612.14 83.538 11.052 2e-3c10.253 1e-3 11.144 0.0564 12.325 0.77637 1.6797 1.0242 2.3291 2.1144 2.9736 4.9969 0.29984 1.341 0.48413 16.745 0.55664 35.682-2.1745 0.36926-4.1141 0.9825-6.1066 1.8695-2.5856 1.151-2.8857 1.1808-6.2897 0.60791-4.2172-0.70975-9.3785-0.57506-14.511 0.24352zm631.66 0.0549c4.1581 6e-3 4.8877 0.17069 5.9601 0.71778 2.0584 1.0501 2.7919 2.9831 3.2538 8.5638 0.24198 2.92 0.36327 65.109 0.36439 127.85-9.0783 3.4609-13.384 4.7001-16.89 4.9512-0.68276 0.0489-4.6477 6.1014-8.0933 11.144 3e-3 -5.5318-2e-3 -8.9688 2e-3 -14.674l0.10071-138.41 9.8602-0.10804c2.2876-0.0247 4.0559-0.0387 5.4419-0.0366zm-442.46 0.0439c-3.4203 1.0716-6.6315 2.0037-9.798 2.8345-3.407 0.89384-6.6142 2.1021-8.3716 3.1549-3.1841 1.9076-6.1001 3.154-11.12 4.4696v-10.358zm80.768 19.202c-0.2625 1.8052-0.48473 3.3296-0.72693 4.9951-1.0849 7.4608-2.1739 14.962-3.2098 22.095-1.399 0.0709-1.7806-0.17301-2.6386-1.247-1.1058-1.3837-1.2688-1.4265-5.4657-1.3879-3.7659 0.0346-5.2232 0.33792-11.277 2.3456-7.2945 2.419-9.7001 2.7491-11.287 1.5491-2.307-1.745-36.914 0.79446-43.87 3.5669-8.0358 3.2029-11.258 6.0669-19.684 17.496-6.5829 8.9289-10.186 14.712-11.898 19.417v-41.169c20.16-8.1674 40.569-14.252 56.907-16.816 2.0367-0.31965 6.0365-1.3198 8.8879-2.2229 7.6349-2.4182 15.165-3.9832 32.043-6.6559 4.1148-0.65153 8.4753-1.353 12.219-1.9647zm-166.42 51.786v44.467c-0.50689 0.01-0.679 0.0178-1.2103 0.0275-10.071 0.18364-15.775 1.5163-18.29 4.2737-1.4232 1.5601-5.1232 3.5099-8.7305 4.726 1.8478-5.8533 2.726-13.452 3.1824-26.202 0.12589-3.5172 0.20103-10.596 0.24353-19.102 0.47643-0.11551 0.92509-0.23194 1.4905-0.34791 7.4151-1.5209 12.653-3.2194 23.315-7.8424zm56.358 25.468 2.3291 1.1481c2.0368 1.0036 5.7023 2.3935 8.1464 3.089 9.2268 2.6256 34.884 1.4725 70.873 1.9446 6.3833 0.0837 11.69 0.13516 16.553 0.16846-1.2301 8.474-2.6978 18.574-3.5229 24.25-0.0139 0.0957-0.0371 0.2505-0.0513 0.3479-1.7887 0.43614-3.8768 1.1169-6.4014 2.1643-3.3503 1.39-5.4154 1.9077-8.6902 2.179-8.637 0.71543-14.049 4.8286-22.445 17.06-2.4235 3.5304-5.4192 7.6673-6.6577 9.1937-1.2385 1.5265-3.6528 4.7482-5.365 7.1594s-4.7734 6.3852-6.8024 8.8294c-2.029 2.4441-4.6017 6.2622-5.7166 8.4851-1.9034 3.795-2.0244 4.2922-1.9958 8.1647l0.0311 4.1254-2.3108 1.0602c-4.3688 2.0058-5.4937 6.6809-2.8583 11.882 3.4898 6.8868 10.021 9.8677 15.498 7.0734l2.0508-1.0474 3.598 1.43c7.4774 2.9704 18.237 4.4863 31.985 4.5062 0.90092 1e-3 1.7838 0.0118 2.666 0.0238-1.2922 8.9209-2.5043 17.289-5.8612 40.296-0.7669 5.2562-1.567 10.771-2.0691 14.247-0.84551-0.54926-1.6528-1.1238-2.5012-1.496-0.0329-0.0424-0.0578-0.07-0.0916-0.11352-0.24063-0.31071-0.90123-0.56257-1.8604-0.76538-5.5384-2.4526-11.286-5.1217-16.421-7.8754-7.7641-4.184-13.608-5.4214-18.192-6.654-1.6055-0.43181-3.8782-1.4712-5.05-2.3108-3.265-2.3393-5.2776-3.1896-14.46-6.1066-9.1419-2.9041-10.956-2.6981-14.407-5.0958v-92.186c0.62807-0.20196 1.253-0.39386 1.8787-0.58594l23.513-0.0952 25.391-0.10254v-32.25l-50.782-0.20507zm154.47 4.2261c0.26554 5e-3 0.52543 9e-3 0.79101 9e-3 0.50357 4.6085 0.81227 7.4942 1.4722 13.521 5e-3 0.0469 9e-3 0.092 0.0146 0.13916-4.157 1.6842-6.867 3.837-13.076 4.3378-0.89386 0.1002-1.5967 0.19529-2.3749 0.29297 0.53273-4.7278 1.2452-11.051 2.0325-17.985 3.4045-0.20961 7.263-0.38065 11.14-0.31494zm-287.65 0.9961c-0.0992 8.1356-0.22813 14.197-0.401 15.053-0.6454 3.198-1.8472 4.8462-3.9587 5.4327-0.82874 0.23018-6.0197 0.40923-11.922 0.41016l-10.455 2e-3v-16.152c8.9579-0.28859 10.824-0.53855 15.72-1.7688 4.1246-1.0366 7.7572-2.033 11.017-2.9773zm753.47 35.198c2.1907-0.0615 4.7543 0.15426 7.9889 0.60974 5.4555 0.76822 6.2641 0.77067 8.1262 0.0293 0.44147-0.17575 0.93479-0.30191 1.4448-0.40466-9e-3 20.598-0.0259 39.067-0.0513 55.657-7.1883-0.57071-10.691-0.46196-14.161 0.2893-2.1631 0.46829-2.6215 0.42331-4.4238-0.43579-2.0906-0.99656-3.6202-1.4764-6.0059-1.6406-0.014-14.648-0.0201-33.196-0.0238-52.469 2.1797-1.0339 4.3482-1.5577 7.1063-1.6351zm3.3691 1.2085c-0.25666-0.0262-0.56939 0.18271-0.6958 0.46326-0.12641 0.28058 0.13932 0.54736 0.5896 0.59326 0.45029 0.0459 0.76301-0.16296 0.69581-0.46326-0.0671-0.30029-0.33295-0.56705-0.58961-0.59326zm-379.69 6.3904c0.0105 30.742 0.0365 57.092 0.0787 77.844-4.4136-1.9876-10.527-4.6918-13.07-5.8868-3.1762-1.4928-9.0242-4.4356-14.138-7.0953-1.7496-12.022-2.7501-18.872-6.9287-47.628-0.36482-2.5104-1.0745-7.3805-1.637-11.244 0.39416 0.0832 0.78821 0.19182 1.192 0.35339 1.991 0.79662 2.0863 0.78644 4.3542-0.43946 3.3336-1.8019 5.2709-2.2077 14.612-3.0615 7.7065-0.70446 11.081-1.2116 15.536-2.8418zm314.78 13.434c9e-3 10.199 0.0195 20.924 0.0293 29.414-3.6294 0.0159-7.0282 0.84216-10.054 2.4591-2.6498 1.4158-2.6746 1.4178-4.8962 0.49439-3.2736-1.3608-5.7132-1.3613-8.454 0.0146l0.0238-25.258c2.2461-0.68888 5.0161-1.3137 8.5455-1.9775 7.7696-1.4612 11.403-2.674 14.806-5.1471zm-396.62 5.6781c0.82811 7.5796 1.8453 16.941 2.3584 21.72 0.0717 0.66788 0.15543 1.3884 0.23438 2.1167-1.7123-0.33058-3.6426-0.47566-6.1414-0.5182-5.1519-0.0876-5.9664-0.22348-7.3004-1.2103-0.82599-0.61102-1.7407-1.1096-2.0325-1.1096s-2.1346-1.0901-4.0942-2.4225-4.3902-2.8161-5.4016-3.2959c-3.5232-1.6985-6.7731-6.086-1.7413-7.185 2.5032-0.4623 3.1267 9e-3 5.0317-1.8457 4.2387-4.1263 6.9072-5.078 16.849-6.0114 0.80883-0.0759 1.5187-0.0808 2.2376-0.23803zm-422.44 7.4744c-0.10904-0.0107-0.24718 0.18779-0.50354 0.58411-0.29735 0.45969-0.4078 1.0841-0.24536 1.3879 0.47312 0.88492 1.4074-0.25149 1.0748-1.3074-0.13696-0.43487-0.21689-0.65399-0.32593-0.66468zm187.58 5.3851c0.55282 0.0173 1.1029 0.0584 1.6553 0.12452 3.1242 0.3737 3.5537 0.56537 5.1526 2.298 2.353 2.5498 3.3398 3.0683 7.1942 3.7793 0.74728 0.13785 1.5475 0.23107 2.3785 0.30578v41.345c-2.473-1.0934-4.4426-2.5049-6.958-4.6857-1.4535-1.2601-2.2577-1.5117-6.601-2.0672-4.1037-0.52493-7.0318-1.2956-11.21-3.501 4e-3 -16.052-0.0735-30.139-0.26-35.973 3.1919-1.1942 5.9462-1.7103 8.6481-1.626zm801.46 19.316c-0.1375-0.055-0.2689 0.0521-0.3643 0.13916-0.3181 0.29006-0.3436 1.0229-0.064 2.168 0.4738 1.9398 1.5674 3.655 2.699 4.2371 0.5143 0.26443 1.312 0.45495 1.7707 0.42114 0.6674-0.0485 0.9069-0.24389 1.1993-0.97229 0.4659-1.1622 0.2235-2.6718-0.6372-3.9551-0.8079-1.2061-1.7028-1.782-2.6514-1.712-0.3836 0.0283-1.0279-0.072-1.43-0.2234-0.1995-0.0751-0.3844-0.0476-0.5219-0.10253zm15.284 3.1458c0 0.18018-0.3572 0.0703-0.5293 0.1593-1.2032 0.62303-2.1302 2.9118-1.5417 4.2407 0.484 1.0934 1.8858 2.814 2.6715 3.2794 0.8715 0.51635 2.8311 0.34286 3.4113-0.30212 0.249-0.27672 0.604-0.86878 0.7892-1.3165 0.447-1.0816-0.114-3.3174-1.1042-4.4037-0.7708-0.84574-3.6968-2.6177-3.6968-1.6571zm-903.92 27.872c2.8898 0.8262 6.1892 1.8695 11.287 3.4882 7.1609 2.2739 11.908 3.7038 15.588 4.6362-0.0239 30.653-0.13895 35.323-0.6903 37.104-0.82067 2.6522-2.3261 4.5967-4.1473 5.3577-0.98519 0.41159-3.8133 0.54383-11.669 0.54383h-10.367zm797.63 3.3783c-0.0646 20.964-0.14475 35.329-0.23981 36.874-0.3975 6.4555-0.82707 8.0688-2.5745 9.6826-1.0642 0.98273-1.1812 0.99768-9.0033 1.1188-10.653 0.16493-11.364-0.1919-12.283-6.1725-0.1563-1.0172-0.26623-12.366-0.33691-36.508 2.3162 0.62483 5.5397 0.75158 8.1079 0.2655 1.471-0.27842 6.0156-1.7395 10.098-3.2465 2.4661-0.91023 4.4792-1.5599 6.2311-2.0142zm-179.2 22.996c0.94804 0.0436 1.7927 0.35513 3.4552 1.0858 1.9318 0.84907 3.477 1.9488 4.4312 3.1549 0.8056 1.0181 1.6443 1.8716 1.864 1.897 0.21978 0.0253 1.0102-0.54629 1.7578-1.2708 1.996-1.9343 3.655-2.1994 11.083-1.2231-0.0446 6.7966-0.0954 11.139-0.15381 11.845-0.45323 5.4779-1.2856 7.6386-3.3087 8.5986-1.1999 0.56943-2.8614 0.66834-11.219 0.66834-7.4818 0-9.8552-0.11835-9.9994-0.49805-0.0372-0.0981-0.0614-10.218-0.0806-24.051 0.0574-9e-3 0.0931-0.02 0.15198-0.0293 0.84387-0.133 1.449-0.2038 2.0178-0.17761zm-393.99 3.783c-0.55801 0.47829-1.3768 0.21832-1.7102 0.52734-0.59275 0.54941 6e-3 1.298 1.3312 1.6644 1.3253 0.36646 2.8954 0.21612 3.4882-0.33325 0.59275-0.5494-6e-3 -1.298-1.3312-1.6644-0.33132-0.0916-0.67898-0.15052-1.0217-0.17945-0.25704-0.0217-0.57024-0.17412-0.75623-0.0147zm-64.53 11.57c0.53852 0.17149 0.90887 0.28525 1.4557 0.4596 10.622 3.3865 19.862 6.2348 28.478 8.8422l-29.934-0.0989zm291.1 121.1c1.4134-0.35336-2.7975 0.65803-3.4479 2.0838-0.98602 2.1615 0.98019 5.6583 3.8342 6.8188 2.1351 0.86815 2.4711 0.79699 3.8324-0.80749 1.8972-2.2365 1.6515-4.0586-0.88624-6.5662-0.9978-0.98599-4.4318-1.2541-3.3325-1.5289zm-30.877 16.414c0.38104 1.2701-2.805 0.58234-3.4552 1.6168-0.6891 1.0969-0.5429 1.7278 0.75257 3.2501 1.8346 2.1556 4.206 2.1624 5.8484 0.0183 1.08-1.4097 0.87483-2.1594-1.1353-4.1785-0.47465-0.47675-2.2391-1.4689-2.0105-0.7068zm-38.509 4.2133c0 0.78728-1.5353 0.82959-1.6077 1.994-0.059 0.94825 0.46486 1.3357 1.6077 1.1883 1.6352-0.21079 2.0855-1.8918 0.7782-2.9077-0.24749-0.19234-0.7782-0.53709-0.7782-0.27466z" style="fill:#0b0419;stroke-width:.3983"/>
		<path d="m66.665 672.54v-171.27l118.49 8e-3 2.0596 0.95892c6.3129 2.9393 10.108 11.855 11.711 27.512 0.64679 6.3183 0.97148 86.57 0.41334 102.16-0.58954 16.47-1.8775 24.355-5.0583 30.968-1.6787 3.4903-4.7788 6.8692-7.0587 7.6936-1.7402 0.62927-1.7091 1.0582 0.15066 2.0787 4.0867 2.2424 7.5321 7.6822 9.3136 14.705 1.6251 6.4065 2.2038 11.557 2.6531 23.616 0.5502 14.768 0.22974 98.044-0.40157 104.35-1.531 15.302-5.3412 24.496-11.393 27.491-1.5633 0.7735-2.7128 0.79023-61.238 0.89166l-59.645 0.10356zm76.206 138.46c1.8213-0.76097 3.3266-2.7058 4.1473-5.3581 0.6536-2.1123 0.70045-5.8204 0.70045-55.436 0-54.33-0.0385-55.853-1.4852-58.861-0.27844-0.57891-1.1153-1.4625-1.8596-1.9636-1.3295-0.89498-1.5488-0.91103-12.447-0.91103h-11.093v123.07h10.369c7.856 0 10.684-0.1317 11.669-0.54329zm0.34131-155.2c2.1116-0.58648 3.3124-2.235 3.9579-5.433 0.80028-3.9654 0.81354-107.48 0.0142-111.05-0.64454-2.8826-1.2927-3.972-2.9724-4.9962-1.1807-0.71994-2.0727-0.7762-12.326-0.77758l-11.053-1e-3v122.68l10.455-3e-3c5.9023-1e-3 11.095-0.17977 11.923-0.40995zm81.179 16.742v-171.27h115.9v32.257l-59.545 0.20419v118.29l50.783 0.20499v32.25l-50.783 0.20499v126.66l62.333 0.20393v32.257h-118.69zm124.27 170.76c0-0.27841 0.8993-6.6861 1.9985-14.239 1.0992-7.553 2.3465-16.153 2.7719-19.11 0.42535-2.9574 1.4925-10.306 2.3715-16.33 4.579-31.383 7.3066-50.14 7.9932-54.965 0.42083-2.9574 1.9436-13.443 3.384-23.3 1.4404-9.8578 3.4177-23.435 4.394-30.171 0.97634-6.7364 2.5763-17.759 3.5555-24.495 0.9792-6.7359 2.8598-19.685 4.1792-28.776 1.3193-9.0911 2.858-19.666 3.4191-23.5 0.56118-3.8336 1.8133-12.437 2.7825-19.118 0.96916-6.6814 3.0262-20.841 4.5712-31.465 1.545-10.625 3.63-24.963 4.6334-31.864s2.2098-15.235 2.6811-18.521l0.85683-5.9744 32.161-0.10196c18.484-0.0585 32.161 0.0481 32.161 0.25082 0 0.19401 0.45266 3.4661 1.0059 7.2713 0.55325 3.8052 1.3535 9.3382 1.7782 12.296 1.2412 8.6418 4.1558 28.694 6.9759 47.995 1.4404 9.8578 2.9632 20.343 3.384 23.3 0.4208 2.9574 2.0338 14.07 3.5844 24.694 1.5506 10.625 3.1653 21.737 3.5881 24.694 0.42287 2.9574 1.945 13.443 3.3825 23.3 1.4375 9.8578 3.4146 23.435 4.3935 30.171 6.8404 47.073 8.296 57.08 11.341 77.967 1.549 10.625 3.1609 21.737 3.5821 24.694 0.42116 2.9574 2.0271 14.07 3.5688 24.694 1.5416 10.625 2.8481 19.676 2.9032 20.114 0.0992 0.78876-0.16163 0.79752-26.486 0.89895-14.622 0.0558-26.586 0-26.586-0.1155 0-0.42246-0.81801-8.0152-1.3932-12.932-0.32036-2.7383-1.7547-15.733-3.1873-28.876-1.4327-13.144-2.6943-24.301-2.8036-24.794l-0.19871-0.89617h-21.7c-17.092 0-21.7 0.10569-21.703 0.49787-4e-3 0.54231-0.52299 5.2159-2.3766 21.408-0.66452 5.8052-1.8397 16.201-2.6116 23.101-0.77185 6.9005-1.6671 14.692-1.9895 17.314-0.32239 2.6221-0.58615 4.9074-0.58615 5.0783 0 0.17073-11.65 0.31053-25.889 0.31053-20.674 0-25.889-0.10223-25.889-0.50623zm99.019-100.03c0.11896-0.30989-0.15159-3.7601-0.60111-7.6672s-1.2792-11.405-1.8437-16.663c-0.56452-5.2575-1.7326-16.012-2.5957-23.898-0.86309-7.8863-2.0184-18.461-2.5674-23.499-0.54899-5.0385-1.7145-15.703-2.5901-23.699-2.3231-21.215-3.3994-31.092-5.1863-47.596-1.664-15.369-1.9747-17.866-2.1957-17.645-0.12333 0.12334-1.5316 12.058-3.3744 28.598-0.42712 3.8336-1.5908 14.14-2.5859 22.902s-2.1607 19.068-2.5902 22.902c-0.95682 8.5405-2.2077 19.581-4.5802 40.427-0.9973 8.7625-2.163 19.068-2.5905 22.902s-1.1375 10.107-1.5778 13.94c-0.44031 3.8336-0.8028 7.5527-0.80554 8.2647l-5e-3 1.2945h17.737c14.923 0 17.771-0.0893 17.953-0.56342zm89.172 99.584c-6.579-3.0016-10.583-13.408-11.741-30.514-0.24471-3.6159-0.39308-62.851-0.39678-158.42l-5e-3 -152.65h54.168l0.0119 148.07c7e-3 82.578 0.16916 150.23 0.36711 152.95 0.64986 8.9407 1.1767 9.3291 12.438 9.1692 9.1603-0.13011 9.5288-0.26311 10.882-3.9277 0.79074-2.1422 0.79735-3.2732 0.90023-154.21l0.10342-152.05h54.17l-0.12082 157.23c-0.11205 145.92-0.16967 157.54-0.80089 161.59-1.9382 12.418-5.64 20.152-10.894 22.76-1.4889 0.7391-3.1955 0.76552-54.312 0.842l-52.774 0.0783zm145.98-170.32v-171.27h59.275c67.59 0 61.557-0.328 65.396 3.5552 4.7183 4.7719 7.4155 13.812 8.3867 28.109 0.26725 3.9344 0.36265 53.1 0.27936 143.98l-0.12652 138.01-0.89279 5.4535c-2.107 12.87-5.5777 19.946-11.029 22.484l-1.9996 0.93122h-119.29v-171.26zm75.57 138.34c2.0232-0.96004 2.8544-3.121 3.3076-8.5989 0.48839-5.9033 0.4938-253.51 5e-3 -259.41-0.46187-5.5808-1.1968-7.5145-3.2552-8.5646-1.4298-0.72945-2.2504-0.77834-11.401-0.67949l-9.86 0.10648-0.10196 138.41c-0.056 76.124-0.0167 138.63 0.0871 138.91 0.14415 0.37971 2.5174 0.49787 9.9992 0.49787 8.3575 0 10.019-0.0989 11.219-0.66833zm94.23 32.402c-6.5634-2.4199-10.475-10.708-12.345-26.158-0.65348-5.3985-0.70702-15.89-0.82049-160.81l-0.12135-155.04h54.584v150.58c0 107.95 0.12466 151.39 0.44019 153.44 0.91907 5.9806 1.6309 6.3384 12.284 6.1734 7.822-0.12109 7.9395-0.1357 9.0036-1.1184 1.7474-1.6138 2.1763-3.2273 2.5738-9.6828 0.2191-3.5592 0.37675-66.434 0.38284-152.72l0.0106-146.67h54.168v151.86c0 100.67-0.13949 154-0.41376 158.22-1.1791 18.141-5.0765 28.512-11.845 31.52l-2.1024 0.9344-52.265-0.0305c-38.954-0.0226-52.588-0.14936-53.533-0.49787z" style="fill:#fff;stroke-width:.3983"/>
		<path d="m732.97 449.99-2.1973 0.43029c-2.3844 0.46853-6.2636 2.5435-8.8641 4.7406-0.90152 0.76165-4.1665 3.9395-7.2565 7.0624-6.2656 6.3323-10.185 9.447-13.586 10.8-3.32 1.3202-7.7589 6.9403-14.277 18.073-5.9027 10.082-7.1833 11.989-11.876 17.699-2.3975 2.9172-3.6434 5.075-5.3247 9.212-1.2074 2.971-3.1382 7.6813-4.2902 10.468-1.1519 2.7869-3.8122 10.731-5.9125 17.653-4.3811 14.439-9.6754 30.394-12.242 36.896-0.97067 2.4586-2.5898 7.4118-3.598 11.006-3.1226 11.132-6.965 21.115-20.248 52.608-7.0558 16.73-17.078 40.567-22.273 52.972-5.1948 12.406-13.879 32.872-19.299 45.48-7.67 17.842-9.9699 23.692-10.371 26.387-0.53415 2.0884-1.1092 3.7124-1.6589 5.0262-1.793-0.88985-2.9967-1.4747-4.8816-2.4133-13.592-6.8443-25.144-11.994-34.955-15.773-0.13669-0.0742-0.27743-0.15523-0.41198-0.22522-1.901-0.98883-13.931-6.2524-17.719-8.0328-3.7883-1.7804-11.454-5.6541-17.034-8.6078-5.5808-2.9537-12.48-6.425-15.331-7.7142-5.0829-2.2981-5.2863-2.3441-10.369-2.3914-4.8372-0.0449-5.3672-0.15057-7.901-1.5765-1.4936-0.84058-4.4386-2.7693-6.546-4.2865-5.522-3.9753-8.1474-4.8289-15.223-4.9494-5.1519-0.0876-5.9664-0.22348-7.3004-1.2103-0.82599-0.61102-1.7407-1.1096-2.0325-1.1096s-2.1346-1.0901-4.0942-2.4225-4.3902-2.8161-5.4016-3.2959c-3.5232-1.6986-6.7731-6.086-1.7413-7.185 2.5032-0.4623 3.1267 9e-3 5.0317-1.8457 4.2387-4.1263 6.9072-5.078 16.849-6.0114 10.574-0.99263 14.244-2.2325 18.554-6.264l2.4005-2.243 2.796 0.5603c5.8847 1.1818 10.129 0.42695 16.221-2.8857 5.0042-2.7208 7.0774-3.1891 9.6112-2.1753 1.991 0.79662 2.0863 0.78644 4.3542-0.43946 3.3336-1.8019 5.2709-2.2077 14.612-3.0615 10.834-0.99034 13.067-1.5489 21.85-5.462 16.371-7.2938 22.226-8.4502 28.22-5.5756 1.1683 0.5603 2.2702 0.87195 2.45 0.69214 4.3675-6.7524 4.7863-7.509 15.295-5.7696 7.1499 2.0364 8.6841 2.018 10.677-0.12634 0.85133-0.91612 2.2375-2.0166 3.0798-2.4445 2.2801-1.1582 4.4966-3.9439 4.8505-6.0956 0.48135-2.9275-0.88659-7.1034-4.6747-14.273-2.0335-3.8487-3.4369-7.1056-3.4369-7.9779 0-0.81084-0.85928-3.3393-1.9098-5.6177-1.0505-2.2784-3.297-7.475-4.9933-11.548-5.6738-13.626-10.98-23.276-14.363-26.122-2.8917-2.4332-7.9457-2.8752-16.879-1.4758-2.7818 0.43577-7.3915 0.81658-10.243 0.84778-5.9731 0.0652-9.1626-0.78188-12.491-3.316-3.1659-2.4101-3.2006-2.4193-4.7571-1.311-2.4244 1.7263-5.6107 2.9636-7.6611 2.9755-1.7173 0.01-2.2374-0.29574-4.3579-2.5543l-2.406-2.5635-6.0132 1.1426c-10.406 1.9778-11.141 2.0636-13.12 1.5308-1.0274-0.27666-2.2723-0.94802-2.7649-1.4923-0.71785-0.79321-1.5191-0.9906-4.043-0.9906-3.678 0-5.3477 0.63072-9.0088 3.4021-3.1179 2.3602-4.0433 2.4773-6.2494 0.79467-0.89012-0.67891-2.2098-1.2341-2.9315-1.2341-0.7426 0-2.5928-0.89772-4.2627-2.0691-2.455-1.7221-3.3391-2.0688-5.2624-2.0618-1.2916 5e-3 -3.3752 0.48182-4.7205 1.0821-3.2421 1.4468-5.1687 1.366-15.613-0.65368-10.245-1.9811-16.288-2.2321-21.788-0.90454l-3.4131 0.82397-1.3495-1.2616c-3.2764-3.0649-6.9564-3.8332-12.457-2.6019-2.0368 0.45593-4.9112 0.94907-6.3867 1.0968-2.5128 0.25157-2.754 0.17891-3.8214-1.1572-1.1058-1.3837-1.2688-1.4265-5.4657-1.3879-3.7659 0.0346-5.2232 0.33793-11.277 2.3456-7.2945 2.419-9.7001 2.7491-11.287 1.5491-2.307-1.745-36.914 0.79472-43.87 3.5672-8.0358 3.2029-11.258 6.0669-19.684 17.496-9.4868 12.868-12.797 19.208-13.154 25.19l-0.11903 1.9739 3.7042 1.8256c2.0367 1.0036 5.7023 2.3935 8.1464 3.089 9.2268 2.6256 34.883 1.4722 70.872 1.9443 34.109 0.44745 43.867 0.23283 57.446-1.2634 11.297-1.2448 33.02-0.73012 37.998 0.90088 4.0236 1.3183 1.4916 3.9544-4.2609 4.4366-4.5973 1.0752-7.525 4.0158-12.56 6.5474-6.3382 1.6573-8.6294 4.8103-16.302 5.4291-12.847 1.4399-12.92 2.535-23.879 5.7474-4.9517-0.53129-9.2674 1.4827-13.876 2.41-4.6983 0.21768-7.8323-1.4917-17.99 2.7228-3.3503 1.39-5.4154 1.9077-8.6902 2.179-8.637 0.71544-14.049 4.8286-22.445 17.06-2.4235 3.5304-5.4192 7.6673-6.6577 9.1937s-3.6529 4.7482-5.365 7.1594c-1.7122 2.4112-4.7734 6.3852-6.8024 8.8293s-4.6017 6.2622-5.7166 8.4851c-1.9034 3.795-2.0244 4.2922-1.9958 8.1647l0.0311 4.1254-2.3108 1.0602c-4.3688 2.0058-5.4937 6.6809-2.8583 11.882 3.4898 6.8868 10.021 9.8677 15.498 7.0734l2.0508-1.0474 3.598 1.4301c7.4774 2.9704 18.237 4.4863 31.985 4.5062 36.572 0.0531 57.437 9.051 87.311 19.71 3.1105 1.1098 11.783 3.7842 19.274 5.9418 13.475 3.8816 22.663 6.862 25.21 8.1793 0.72351 0.37414 3.6149 1.2385 6.4252 1.9208 1.4086 0.34197 3.7793 0.9548 6.46 1.6663 2.565 1.0862 12.956 4.6704 16.501 6.0333 9.941 3.821 23.242 8.055 35.261 13.696-1.2369 4.7585-3.3124 12.226-4.9036 14.852-0.79691 1.3151-2.4627 5.5226-3.7024 9.3512s-5.6598 16.396-9.8218 27.925c-11.79 32.661-16.169 46.612-19.426 61.89-1.8294 8.5813-3.5461 20.753-3.7006 26.246l-0.10986 3.9642 1.2744-1.311c1.8235-1.8729 6.9608-9.257 10.395-14.943 5.2692-9.0893 7.9649-13.411 12.171-18.829 1.6657-2.1743 1.7396-2.1943 3.3069-0.84595 3.0298 2.6067 7.8742 0.39308 7.3682-3.3673-1.4403-2.4123-1.8095-5.0701 0.32227-6.2604 6.8045-2.268 12.224-4.6596 14.612-6.449 1.1208-0.84004 4.8571-4.8529 8.3038-8.9172 4.3124-5.1097 8.0526-11.388 9.0308-21.24 0.29114-0.24581 1.446-0.76727 2.5671-1.1591 4.4255-2.8048 11.242-30.277 14.758-45.624 1.0857 0.30541 2.2448 0.66906 3.6291 1.1627 7.9698 2.8418 10.15 3.2276 15.787 2.796 0.34645-0.0265 1.5182-6e-3 2.6038 0.0457 2.3294 0.11061 4.48-0.31762 5.2734-1.051 0.6635-0.61326 0.0648-2.7174-0.9137-3.2098-1.0576-0.53227-0.87468-1.961-0.0367-2.4628 1.155 0.39296 2.0143 0.67347 3.3545 1.1371 11.676 4.0391 18.503 0.92265 19.261 0.4541 1.4008-0.86578-2.8608-5.0748-21.019-14.991-1.1595-0.63319-2.2596-1.2448-3.3289-1.842 0.11816-0.14377 0.2647-0.28968 0.46692-0.44312 1.4856-1.1273 2.2303-1.1302 4.4586-0.0165 1.134 0.56688 2.1257 0.90225 2.2046 0.74341 0.0789-0.1588 0.7347 0.11749 1.4575 0.61523 1.1207 0.77173 1.4745 0.84532 2.4023 0.49988l1.0876-0.40466-0.32226-1.2323c-1.4743-4.9003-12.704-8.5192-21.839-11.651 3.1242-5.9198 9.2002-17.216 11.29-19.51 2.8534-1.8144 3.8872-5.3901 4.1931-14.509 0.42846-12.774 0.67194-14.037 2.904-15.037 2.1003-0.9408 3.6034-6.2387 4.8706-17.172 0.30825-2.6593 0.84538-5.2499 1.1938-5.7568 0.60508-0.87999 0.66725-0.87774 1.4117 0.0238 1.9599 2.3731 1.9798 2.3747 3.371 0.49988 1.4951-2.0148 2.6175-6.1136 3.3948-12.393 0.86271-6.9696 1.1693-8.1034 2.1973-8.1628 0.50275-0.0291 1.06 0.27253 1.2396 0.67016 0.67161 1.487 1.2581 0.54977 2.3218-3.7152 1.7432-6.9894 3.4795-10.424 12.814-25.351 2.1179-3.3868 3.9393-6.8314 4.0485-7.6538 0.36354-2.7376 2.9969-9.1007 6.8372-16.522 6.785-13.111 8.0006-16.406 10.155-27.53 1.6056-8.29 3.1457-12.346 6.1377-16.17 1.0633-1.3588 2.6876-4.6548 3.9331-7.9797 1.167-3.1154 3.0804-7.7307 4.2535-10.256 1.1731-2.525 3.2264-7.6578 4.563-11.407 5.8796-16.494 9.958-23.327 14.064-23.566 2.1003-0.12247 6.704-3.2744 9.1809-6.2842 6.0508-7.3528 8.094-17.651 4.9951-25.186-0.91379-2.2219-1.0287-3.0602-0.7196-5.2478 0.28146-1.9918 0.0856-4.19-0.83313-9.3622-1.8146-10.216-1.7379-11.92 0.54016-12.052 1.2227-0.0708 2.717-3.1622 2.8858-5.9674 0.0862-1.4334-0.26859-3.9622-0.87342-6.2201-1.3232-4.9391-1.3261-4.8471 0.28564-6.9122 0.75971-0.97339 1.3595-2.1446 1.333-2.6019-0.0264-0.4573 0.39553-3.1225 0.93933-5.9235 1.2372-6.3731 0.80459-12.54-1.1444-16.287zm-277.52 20.288c-3.268 0.039-4.8351 0.64206-7.9926 3.078-2.9357 2.2649-8.0708 4.2505-16.503 6.3794-8.4258 2.1272-9.9866 2.8144-15.284 6.7401-15.558 11.306-33.794 18.967-51.35 27.074-7.2279 3.6273-11.555 5.3921-15.198 6.1981-1.2822 0.28371-6.8859 2.2604-12.453 4.3927-16.618 6.3649-26.613 9.746-36.429 12.321-3.407 0.89384-6.6142 2.1021-8.3716 3.1549-5.5141 3.3035-10.012 4.6172-26.548 7.7582-2.9872 0.56738-7.6517 1.7733-10.367 2.6807-2.7156 0.90736-6.2436 1.792-7.8387 1.9647-2.7404 0.29677-6.7498 1.5177-20.094 6.1194-3.1422 1.0836-9.4743 2.6849-14.072 3.5577-19.058 3.6181-25.942 5.8648-32.06 10.468-4.8024 3.6136-7.9434 4.1812-17.282 3.1164-11.247-1.2823-16.383-0.91553-21.973 1.5729-2.5856 1.151-2.8857 1.1808-6.2897 0.60791-8.3139-1.3992-20.296 0.46565-28.497 4.4348-3.4645 1.6769-4.442 2.4458-6.7291 5.2972-3.6178 4.5104-8.0958 8.1926-17.488 14.381-5.6752 3.7392-9.4527 6.3409-12.118 8.4027-0.21976-1.2365-1.8569-0.6737-8.3331 2.6569-8.0427 4.1361-8.4355 4.2079-11.981 2.2082-4.5326-2.557-5.0667-2.3432-7.9559 3.1989-1.4439 2.7692-1.8775 5.5424-1.1444 7.3224 1.2843 3.1184 2.0403 2.7757 8.9685-4.0668 3.8673-3.8194 3.9813-3.8796 4.5868-2.4097 0.26043 0.63238-1.3872 3.1847-3.6621 5.6726-2.7707 3.03-3.705 4.9799-2.8308 5.9052 0.87248 0.92333 0.49845 1.7134-1.1298 2.384-3.7181 1.5312-6.011 8.2825-3.653 9.6808 0.12672 0.41297 0.45658 0.69297 0.98694 0.9668 0.67892 0.35053 1.4569 0.63987 1.7285 0.64086 3.6018 0.0187 28.818-1.577 50.856-3.2172 2.1725-0.1617 10.616-0.48052 18.763-0.70862 14.183-0.39712 15.069-0.47932 20.841-1.9299 10.249-2.5756 18.321-5.0147 21.773-6.5808 1.8187-0.82502 7.5472-3.2305 12.731-5.3448 10.678-4.3551 18.345-8.0788 22.641-10.995 2.3055-1.5652 3.8879-2.1884 7.3773-2.9041 9.2059-1.8882 14.903-3.9693 32.016-11.7 12.174-5.4996 17.263-7.6199 22.061-9.1901 1.4684-0.48057 5.2453-2.0871 8.3936-3.5687 25.304-11.909 53.081-21.025 74.11-24.326 2.0367-0.31965 6.0365-1.3198 8.8879-2.2229 7.6349-2.4182 15.165-3.9832 32.043-6.6559 8.311-1.316 17.665-2.8448 20.788-3.3984 3.123-0.55362 7.4552-1.2585 9.6277-1.5674 2.1725-0.30884 10.283-1.7563 18.023-3.2153 15.997-3.0157 26.763-4.668 30.366-4.66 1.3578 3e-3 5.0234-0.6636 8.1464-1.4813 3.1231-0.81772 8.8848-2.2654 12.803-3.2172 8.3087-2.0183 13.981-4.5541 17.728-7.923 1.8573-1.6699 2.5512-2.6499 2.5507-3.6053-9.4e-4 -2.0647-2.7364-11.736-4.7003-16.62-3.8565-9.5925-8.1792-15.836-18.739-27.065-5.9398-6.3162-7.729-7.9102-10.499-9.353-3.8198-1.9894-5.5979-2.4531-9.2322-2.4097zm538.1 118.78c-1.2892-0.0439-4.4304 0.53512-6.2659 1.0657-3.3744 1.0942-8.639 2.7132-11.7 3.5999-3.0613 0.88675-6.4998 1.9695-7.6392 2.406-2.8686 1.0988-9.9683 4.3873-11.442 4.53-2.44 0.23586-2.663 0.19801-3.1641-0.51819-0.47016-0.67207 0.60722-0.74634 1.9123-2.1505-1.7932-0.11544-3.5004 0.27058-6.3603 0.062-8.8898 0.78937-9.0877 0.72861-20.621 2.6763-4.4588 0.62495-9.377 1.186-12.444 1.4392-0.32509-0.35576-0.78456-0.69099-1.4356-1.0291-2.0426-1.0605-3.283-1.1587-5.2075-0.40832-1.7564 0.6848-4.052 0.44793-6.0736-0.62805-1.7154-0.91305-3.625-1.1265-4.79-0.53467-0.45326 0.23032-1.3739 1.0884-2.0471 1.9061-0.67324 0.81784-1.7555 1.712-2.4042 1.9867-0.74713 0.31637-1.9178 1.4173-3.1952 3.0048h-2e-3c-3.5452 4.4057-4.244 5.419-4.0027 6.9342-1.376 0.99653-2.7244 2.0517-4.0613 3.1732l-4.4788 3.7555-7.738 2.113c-10.118 2.7607-14.479 5.0739-18.82 9.9866-0.61683 0.69808-1.8042 0.98379-4.6875 1.1279-5.0397 0.25198-8.8098 1.5815-17.122 6.0315-7.4279 3.9765-10.514 5.2927-14.691 6.2695-1.7142 0.40092-3.8174 1.4493-5.6799 2.8326-3.3999 2.5254-7.9824 4.7094-14.908 7.1045-5.8553 2.0248-10.019 4.0772-13.374 6.5918-1.6749 1.2552-6.5709 3.4684-14.806 6.6943-12.053 4.7214-17.109 6.2991-21.119 6.5863-1.1226 0.0804-11.133 16.417-13.085 17.748-1.9124 1.3044 1.3653-12.665-1.4685-11.532-6.2511 2.4998-6.4496 2.6231-6.5955 4.054-0.14754 1.447-0.88677 1.8197-1.5747 0.79467-0.8099-1.2067-1.4404-1.0839-5.6268 1.0913-5.3484 2.7789-9.4882 6.3543-12.568 10.856-2.7243 3.9819-13.326 17.524-22.537 28.786-5.8872 7.1982-5.5331 6.4738-10.236 20.94-0.83494 2.5684-2.3292 5.9494-3.3215 7.5146-2.0664 3.2595-2.1885 4.906-0.69947 9.4592 1.836 5.6141 4.1653 7.4602 9.4446 7.4872 2.1848 0.0112 3.1455 0.26435 4.5685 1.2048 1.6152 1.0675 2.3847 1.2199 7.4011 1.4612 6.3191 0.30399 9.2603 1.3352 10.472 3.6713 0.59104 1.1397 1.0171 1.3198 3.8049 1.604 5.7018 0.58139 11.249 2.6712 19.351 7.2913 0.50718 0.28925 0.59948 0.14339 0.37903-0.60425-0.63454-2.1516-0.58942-2.7454 0.22522-2.9663 1.2259-0.33242 3.6242 1.1263 5.7001 3.4662l1.8256 2.0581 1.0309-0.93018c1.3566-1.2229 2.5449-1.683 5.5756-2.1606 2.2503-0.35465 2.813-0.26089 5.473 0.9082 1.9318 0.84906 3.4769 1.9488 4.4312 3.1549 0.80559 1.0181 1.6443 1.8716 1.864 1.897 0.21977 0.0253 1.0102-0.54629 1.7578-1.2708 2.2082-2.1399 3.9302-2.2526 13.597-0.88257 9.7901 1.3875 10.554 1.3152 13.876-1.3184 3.7647-2.9848 6.7176-3.564 19.808-3.8855 4.5854-0.11265 8.4968-0.48825 10.025-0.96314 1.3782-0.42825 4.9603-1.2023 7.9614-1.7194 3.0012-0.51707 6.7899-1.4504 8.4192-2.0746 3.0474-1.1675 7.0971-4.3095 7.879-6.1139 0.52007-1.2001 1.0334-1.2402 1.7725-0.13916 0.77736 1.1583 2.6322 1.1846 5.116 0.0714 3.8296-1.7164 6.942-2.1604 11.673-1.6626 3.2981 0.34698 5.4472 0.26449 8.4705-0.32409 2.228-0.43376 8.8775-1.4109 14.775-2.1716 5.8973-0.76067 12.197-1.6658 14-2.0123 2.4468-0.47013 3.6654-0.47564 4.8029-0.0202 2.2965 0.9197 6.19 1.1802 9.1846 0.61341 1.471-0.27842 6.0156-1.7395 10.098-3.2465 8.4336-3.1129 11.998-3.4863 15.438-1.6186 1.6039 0.87076 2.0675 0.92979 3.924 0.50354 1.158-0.26588 5.3307-0.62307 9.2724-0.79468 9.3682-0.40782 12.374-0.89938 17.968-2.9334 3.7009-1.3456 5.5438-1.7057 9.115-1.7798 5.9417-0.12329 10.828-0.96366 17.117-2.9462 5.8822-1.8544 9.4943-2.7115 20.658-4.8999 8.3775-1.6422 18.723-4.3097 20.442-5.2698 0.9956-0.55607 0.9597-0.62459-0.7452-1.507-1.8967-0.98159-4.1804-1.9785-6.7474-2.9663-0.05-0.41406-0.1928-0.66413-0.4633-0.82031-0.4075-0.23526-5.9312-1.2577-6.3402-0.95787-5.4801-2.0016-2.433-2.2962-9.4005-3.9291-0.3277-0.7792-3.3309-1.7017-4.0307-2.1057-1.3596-1.2236-2.9543-0.70415-3.5508 9e-3 -2.0309 1.383-4.3401 0.011-5.9546-0.30029-10.919-2.0456-44.442-5.911-48.272-5.5664-2.1041 0.18926-7.6802-0.1409-15.342-0.9082-12.135-1.2151-16.515-1.2831-20.936-0.32593-2.1631 0.46829-2.6215 0.42331-4.4238-0.43579-3.5241-1.6799-5.3944-1.9153-12.599-1.5894-5.8358 0.264-7.4927 0.17765-9.635-0.49988-1.8074-0.57155-3.1676-0.72423-4.5136-0.5072-1.0596 0.17091-4.9147 0.0367-8.5657-0.29846-5.907-0.51838-13.063 4.0897-15.602 0.52735-1.5201-2.0408-1.5766-2.0665-5.7239-2.6624-5.0585-0.72679-9.79 0.0223-13.85 2.1918-2.6498 1.4158-2.6746 1.4178-4.8962 0.49439-3.5816-1.4888-6.1597-1.3697-9.2322 0.42297-0.71273 0.41583-1.1222 0.24275-2.2925-0.96497-1.9485-2.0107-4.9292-3.1215-15.007-5.5902-4.7421-1.1616-8.8135-2.2575-9.0472-2.4371-1.3092-1.006 0.48401-4.1215 3.8049-6.6101 3.8491-2.8844 7.4669-3.451 11.287-1.767 0.84706 0.37345 1.276 0.0528 2.7814-2.0764 3.1358-4.4353 6.8133-6.1272 17.822-8.1976 8.8842-1.6709 12.362-3.0163 16.269-6.2933 3.0069-2.522 3.5066-2.7539 6.5076-3.0304 5.4952-0.50627 11.066-2.2067 19.471-5.9418 4.4319-1.9694 9.4529-4.1092 11.157-4.7553 3.3596-1.274 9.4333-2.6276 11.05-2.4628 0.55394 0.0564 1.745-0.34786 2.6459-0.89905 4.7648-2.9152 8.6101-3.4027 17.236-2.1881 5.4555 0.76822 6.2641 0.77068 8.1262 0.0293 1.3134-0.52287 3.0039-0.73233 4.6326-0.57129 5.6037 0.55253 12.776-1.0263 17.089-3.6713 0.0525 0.0236 0.097 0.0503 0.15563 0.0714 0.98728 0.35528 3.0554-0.11366 3.4972-0.79284 0.25678-0.39446 0.51019-0.43177 1.0218-0.15198 1.6317 0.89214 1.9383 0.88461 3.7481-0.0878 1.9689-1.0581 3.1647-2.5108 2.9316-3.5614-0.11813-0.53232 0.10162-0.71394 1.1572-0.96497 0.71606-0.17037 1.3988-0.45803 1.516-0.63904 0.11784-0.18099 0.75694-0.34611 1.421-0.36621 1.9016-0.0575 2.2673-0.80198 1.1609-2.3236 2.1608-0.8633 4.0674-1.9307 5.1947-3.0048 1.8993-1.8097 3.0057-3.6105 3.6419-6.6321 0.29803-0.13199 0.34603-0.29366 0.0952-0.45044 0.25312-1.3505 0.40978-3.0064 0.51815-4.9329 0.38813-0.0875 0.66329-0.17801 0.71785-0.26184 0.0741-0.11317 0.97978-0.42215 2.0141-0.68664 2.0433-0.5226 2.6703-0.93689 1.4136-0.93384-0.87975 2e-3 -0.80166-0.45014 0.0953-0.55116 0.96262-0.10848 0.94762-0.55896-0.0234-0.77453-0.5071-0.11228-0.84338-0.32453-0.7471-0.47241 0.0962-0.14788-0.2325-0.36006-0.73059-0.47058-1.0009-0.22145-1.3807-1.1485-0.82209-2.0068 0.38118-0.586 1.1511-0.59862 1.3421-0.0219 0.0628 0.18732 0.94819 0.46413 1.9702 0.60974 1.3676 0.1975 2.4626 0.0936 4.1583-0.3955 1.2662-0.36509 2.4308-0.8551 2.591-1.0876 0.1591-0.23259 0.50485-0.47879 0.76716-0.54749 0.26222-0.0688 0.68203-0.42305 0.93206-0.78736 0.35025-0.50906 0.24553-0.6757-0.45412-0.7196-0.83316-0.47592-1.5902-0.98501-2.1552-1.5051l1.4154-0.49622c0.77925-0.2734 1.6032-0.78385 1.831-1.1334 0.33712-0.51775 0.17353-0.68952-0.88069-0.92284-1.5963-0.35318-2.9215-0.14837-4.0338 0.60791 1.47-1.466 3.0482-2.8782 3.9331-3.4918 4.0961-2.8406 5.7567-7.5652 4.1308-11.755-1.1228-2.8938-3.8131-3.8119-6.3867-2.1808-0.74193 0.4703-1.6786 0.82113-2.082 0.78003-0.3465-0.0353-4.3734-2.7546-6.2548-3.8269 0.11644-0.0353 0.1891-0.0642 0.31125-0.10071 1.266-0.37811 15.718-6.7059 15.61-7.1759 0.0131-0.51077-17.762 4.0221-19.528 4.6179-0.0206 7e-3 -0.0487 0.015-0.0694 0.0219-0.10106-0.0589-0.19509-0.11053-0.29662-0.17029-1.8038-0.74486-1.8382 0.29035-4.6509-0.22521 8.4e-4 -8e-3 0.0113-0.0218 0.0113-0.0293-9e-3 -0.7129 3.2032-2.7142 4.649-2.9004 0.76959-0.0992 1.7465-0.48389 2.1698-0.85328 0.42347-0.36938 1.5815-1.0071 2.5745-1.4172 1.0556-0.43614 1.8018-0.95525 1.8018-1.2506 9.4699-4.6322 11.99-5.8683 18.45-8.822 5.5711-1.9593 6.1341-2.6258 4.8449-2.6697zm-751.05 59.381c-0.18562-4e-3 -0.4062 0.0178-0.67017 0.0586-1.3889 0.21454-7.1278 0.40322-18.657 0.61341-10.071 0.18364-15.775 1.5163-18.29 4.2737-1.7694 1.9396-7.0611 4.5004-11.314 5.4767-1.5184 0.34854-4.8802 0.70618-7.4707 0.79468-2.6059 0.0891-6.9547 0.70298-9.7339 1.3733-5.6809 1.3703-11.621 1.96-13.709 1.3623-1.0351-0.29631-2.4588-3e-3 -5.4016 1.1096-5.6157 2.1234-9.8396 3.3733-17.36 5.1379-6.2232 1.4602-6.5893 1.4906-7.9706 0.66285-2.613-1.5658-6.2071-1.1057-13.277 1.701-7.4691 2.9652-10.071 3.2583-12.863 1.4502-1.7906-1.1594-1.962-1.1816-4.585-0.61157-5.1949 1.1289-11.919 1.5598-22.018 1.4099-8.315-0.12348-10.676 8e-3 -13.066 0.72327-4.0185 1.2035-9.0404 3.7763-13.68 7.0111-3.3479 2.3343-3.8742 2.8934-3.6859 3.9093 0.26392 1.4237-0.65737 2.0929-1.2323 0.89539-0.34116-0.71062-1.4973 0.0652-7.132 4.7827-3.699 3.0969-8.2755 6.6454-10.17 7.8845-3.017 1.9738-3.5029 2.5015-3.9148 4.2609-1.3775 5.8837-8.2072 14.631-10.783 13.81-0.96739-0.30831-1.3686 0.0398-3.0249 2.6202-1.0503 1.6364-2.0895 3.5468-2.309 4.2462-0.39728 1.2663-0.3873 1.2728 2.4591 1.3916 2.7873 0.11639 2.8863 0.16669 3.9587 2.0563 0.62169 1.0954 1.64 2.1048 2.3438 2.32 0.68474 0.2093 4.9952 2.2695 9.5782 4.5795 4.5831 2.31 12.315 5.8696 17.181 7.9102 16.011 6.7143 25.157 9.1556 53.229 14.207 18.352 3.3026 17.991 3.2143 33.182 8.0383 15.09 4.7918 19.637 5.913 25.499 6.2805 2.6468 0.16594 6.3178 0.79541 8.8678 1.5216 5.1187 1.4578 12.416 2.9057 23.921 4.7479 20.144 5.0137 23.554 4.3913 91.796 26.149 13.451 4.2886 25.107 7.8748 35.442 10.955 1.3118 1.5212 2.5305 3.0745 2.9315 4.4696 0.44794 1.5579 10.962 2.7567 10.596 2.9114-0.22244 1.6934 8.1121 5.4926 10.421 4.8486 0.69184-0.70085 1.5813-0.3819 1.9775 0.71046 7.2772 0.65828 10.952 1.6839 15.61 4.2883 7.8531 4.5595 8.9496 5.4694 15.681 5.8136 5.7525 0.50608 7.8249 2.2609 14.506 0.21057-0.23118-0.31792-0.31622-0.61483-0.30212-0.87341 7.5996 2.0296 13.963 3.695 14.361 3.7353 2.6016 0.26438-0.0123-1.805-10.391-8.2306-1.146-1.3671-1.0999-2.1582 0.19774-2.2284 1.3286-0.0719 2.0188-0.67747 1.5326-1.3458-0.48569-0.66817-0.25845-1.1738 0.50721-1.1224-8.278-7.4335-8.7042-3.9443-12.524-11.633-1.4904-3.7689-11.235-4.9544-13.57-6.4087-3.2974-2.054-0.093-3.9742-7.7655-0.41198-5.0737 2.8169-7.373-0.68386-10.184-1.9171-0.0329-0.0424-0.0579-0.07-0.0916-0.11352-0.24064-0.31072-0.90122-0.56257-1.8603-0.76538-5.5384-2.4526-11.286-5.1217-16.421-7.8754-7.7641-4.184-13.608-5.4214-18.192-6.654-1.6055-0.4318-3.8782-1.4712-5.05-2.3108-3.265-2.3393-5.2776-3.1896-14.46-6.1066-9.1438-2.9048-10.956-2.6983-14.409-5.0976-1.3034-0.90575-3.5766-1.8692-5.4309-2.3035-3.5428-0.82976-7.8758-2.5626-18.484-7.3883-8.8798-4.0392-12.444-5.1994-20.663-6.731-10.543-1.9643-13.392-3.1479-18.735-7.7802-1.4535-1.2601-2.2577-1.5117-6.601-2.0672-7.5491-0.96564-11.085-2.7217-25.834-12.821l-5.5829-3.8214-2.6221 0.52551c-4.897 0.98033-6.3266 0.61389-9.9225-2.536-3.5015-3.0673-4.9929-3.8928-8.2178-4.552-4.5156-0.92301-10.16-5.6454-10.668-8.9246-0.30157-1.9479 1.3496-3.6023 4.1675-4.1748 2.4646-0.50068 4.1484-0.19012 10.334 1.9061 7.6892 2.6056 12.803 2.2444 16.919-1.1938l1.5912-1.3275 2.503 1.247c2.2241 1.1085 2.7486 1.1958 4.7314 0.79651 1.2269-0.24713 4.2494-1.4465 6.7163-2.666 5.9752-2.9537 10.299-3.9619 14.718-3.4332 3.1241 0.37371 3.5537 0.56537 5.1526 2.298 2.353 2.5498 3.3398 3.0683 7.1942 3.7793 4.4015 0.81196 10.014 0.54016 19.689-0.95216 4.4142-0.68087 8.4998-1.3102 9.0784-1.3989 0.75122-0.11508 1.7918-1.478 3.6438-4.7662 2.8943-5.1388 6.4912-10.121 12.25-16.976 5.1488-6.1284 29.81-10.671 29.887-11.891 0.0359-0.5567-0.92508-3.3644-2.135-6.2402-3.4745-8.2582-32.437-12.388-38.609-13.685-7.0228-1.4753-10.79-4.8673-12.376-11.146-0.13707-0.54288-0.37699-0.77214-0.93384-0.78369zm332.4 18.424c-0.89685 0-0.98242 0.80844-0.12268 1.1554 0.33945 0.13697 0.67195 0.26607 0.73975 0.28748 0.068 0.0215 0.1245-0.29397 0.1245-0.7013 0-0.40735-0.33422-0.74158-0.74157-0.74158zm329.5 4.8505c-0.25666-0.0262-0.56939 0.18271-0.6958 0.46326-0.12642 0.28058 0.13932 0.54736 0.5896 0.59326 0.45029 0.0459 0.76301-0.16296 0.69581-0.46326-0.0671-0.30029-0.33295-0.56705-0.58961-0.59326zm-883.98 32.977c-0.10904-0.0107-0.24718 0.18779-0.50354 0.58411-0.29735 0.45969-0.4078 1.0841-0.24536 1.3879 0.47312 0.88493 1.4074-0.25148 1.0748-1.3074-0.13696-0.43487-0.21689-0.65399-0.32593-0.66468zm988.67 24.841c-0.3181 0.29007-0.3425 1.0216-0.063 2.1666 0.4737 1.9398 1.5674 3.6565 2.699 4.2385 0.5144 0.26443 1.3107 0.45364 1.7693 0.41983 0.6674-0.0485 0.9073-0.24264 1.1997-0.97103 0.466-1.1622 0.2232-2.6721-0.6375-3.9554-0.8078-1.2061-1.7026-1.7833-2.6511-1.7133-0.3837 0.0283-1.0277-0.072-1.4298-0.22338-0.3989-0.15013-0.6955-0.13585-0.8864 0.0383zm15.12 3.1644c-1.2034 0.62302-2.1301 2.9128-1.5416 4.2418 0.484 1.0934 1.8852 2.8134 2.6708 3.2789 0.8715 0.51634 2.8303 0.34267 3.4105-0.30231 0.249-0.27672 0.6046-0.8689 0.7898-1.3166 0.447-1.0816-0.1132-3.3162-1.1034-4.4026-0.7708-0.84573-2.7397-1.7276-3.6978-1.6569-0.1797 0.0132-0.3564 0.0688-0.5283 0.1578zm-678.94 57.871c-0.73408 0.0354-1.3768 0.21831-1.7102 0.52734-0.59275 0.5494 6e-3 1.298 1.3312 1.6644 1.3253 0.36646 2.8954 0.21613 3.4882-0.33325 0.59276-0.5494-6e-3 -1.298-1.3312-1.6644-0.33132-0.0916-0.67898-0.15053-1.0217-0.17945-0.25705-0.0217-0.51153-0.0264-0.75623-0.0146zm18.975 5.3778c-0.64428-0.0308-1.2679 0.0305-1.8237 0.20691-1.0775 0.34208-1.7438 1.3642-1.4795 2.2705 0.7006 2.4019 8.1766 3.4264 8.7909 1.2048 0.46665-1.6876-2.6958-3.5486-5.4877-3.6823zm18.505 8.5492c-0.30228-2e-3 -0.61715 8e-3 -0.94117 0.0293-3.7586 0.2471-4.7848 1.0966-3.6804 3.045 0.97782 1.7254 4.3881 2.1812 7.37 0.98328 3.7672-1.5132 1.7857-4.03-2.7484-4.0576zm189.09 118.74c-1.456-0.0526-2.7975 0.65804-3.4479 2.0838-0.98603 2.1615 0.98019 5.6583 3.8342 6.8188 2.1351 0.86815 2.4711 0.797 3.8324-0.80749 1.8972-2.2365 1.6515-4.0586-0.88624-6.5662-0.9978-0.986-2.2001-1.488-3.3325-1.5289zm-30.877 16.414c-1.3261-0.0109-2.805 0.58234-3.4552 1.6168-0.6891 1.0969-0.54289 1.7278 0.75257 3.2501 1.8346 2.1556 4.206 2.1623 5.8484 0.0183 1.08-1.4097 0.87483-2.1594-1.1353-4.1785-0.47465-0.47675-1.2149-0.70028-2.0105-0.70679zm-38.509 4.2133c-0.7872 0.0114-1.5353 0.8296-1.6077 1.994-0.059 0.94826 0.46486 1.3357 1.6077 1.1883 1.6352-0.2108 2.0855-1.8918 0.7782-2.9077-0.24749-0.19234-0.5158-0.27846-0.7782-0.27466z" style="fill:#ec2626;stroke-width:.49376"/>
		<path d="m341.76 804.65c0.19405-0.70176 0.8023-0.79088 1.3517-0.19811 0.54939 0.59276 0.93278 1.3168 0.85197 1.6091-0.0808 0.29214-0.68906 0.38135-1.3517 0.19812s-1.046-0.9073-0.85197-1.6091z" style="fill:#fd024c;stroke-width:1.25"/>
	</g>
</svg>
