<svg  width="40" height="40" enable-background="new" version="1.1" viewBox="0 0 156 133.33" xmlns="http://www.w3.org/2000/svg">
	<path d="m96.434 132.37c-2.1274-0.55126-5.6454-2.857-7.8179-5.1239-5.8919-9.7538-4.2238-43.29-4.3265-57.975-0.42695-61.06-0.415-61.149 8.8892-65.896 4.782-2.4396 7.7992-2.7447 27.101-2.7402 23.866 0.00548 27.479 0.9872 32.647 8.871 3.5238 5.3755 4.3812 34.958 1.1081 38.231-2.7274 2.7274-21.845 3.2172-24.436 0.62612-1.6032-12.122 1.4222-19.89-9.4836-19.733-6.8108 0.33276-7.8357 0.23079-8.0838 18.8-0.11256 8.4249-0.28623 20.784-0.035 46.108 0.19085 9.0006-0.0896 11.134 7.2068 10.84 7.7439 0.49126 8.7468-0.58467 8.7752-9.4147 0.0168-5.2174 0.69559-7.1176-1.2815-7.1176-1.32 0-4.218 0.06431-5.098-0.81569-2.15-2.15-2.15-22.65 0-24.8 2.2006-2.2006 30.599-2.2006 32.8 0 1.1408 1.1408 1.5994 9.4642 1.5979 29-1e-3 23.451-0.33805 28.059-2.3333 31.972-4.3393 8.5098-6.5064 9.1842-31.18 9.7033-12.2 0.25664-23.923 0.0156-26.05-0.53566zm-95.054-2.3185c-0.89395-1.6704-1.3802-24.147-1.3802-63.793 0-57.61 0.14356-61.344 2.4383-63.421 2.0946-1.8956 11.897-1.763 34.389-1.763 24.324 0 29.057 2.13 32.636 9.1458 2.3736 4.6526 2.536 8.5665 2.536 61.112 0 36.149-0.4915 57.059-1.3802 58.72-1.197 2.2367-2.8722 2.579-12.62 2.579s-11.423-0.34234-12.62-2.579c-0.87784-1.6403-1.3802-19.986-1.3802-50.4 0-35.416-0.41504-48.236-1.6-49.421-2.07-2.07-10.73-2.07-12.8 0-1.185 1.185-1.6 14.005-1.6 49.421 0 30.414-0.5024 48.76-1.3802 50.4-1.197 2.2367-2.8722 2.579-12.62 2.579-9.7476 0-11.423-0.34234-12.62-2.579z" style="fill:#fff;stroke-width:1.3333"/>
</svg>
