<svg version="1.1" viewBox="0 0 1350.6 1066.6" xmlns="http://www.w3.org/2000/svg">
	<g transform="translate(-113.15 -236.52)">
		<path d="m212.38 1291.4-65.451-37.401-21.372-81.48s-4.0072-41.408 1.3357-46.751c5.343-5.343 213.72-199.03 213.72-199.03s16.029-108.19 16.029-116.21 150.94-245.78 150.94-245.78l1.3357-94.837 2.6715-66.787 1.3357-34.729 38.736-16.029 6.6787-53.43 8.0144-38.736h52.094l25.249 20.328 1.4659 46.459-32.058 45.415 56.101 12.022 8.0144 56.101 311.23 48.087 16.029 16.029 158.95-112.2s-1.3358-26.715 9.3502-26.715c10.686 0 153.61-114.87 153.61-114.87l85.487 8.0144 40.072 61.444-5.343 66.787-48.087 49.422-204.37 32.058-130.9 78.809 12.022 52.094 14.693 78.809 38.736 1.3357 2.6715 40.072 176.32 18.7 44.079 38.736 46.751 78.809-22.708 34.729-18.7 14.693v69.458l-17.365 120.22-57.437 114.87-90.83 85.487z" fill="#fff" fill-rule="evenodd"/>
		<path d="m189.33 1301.3c-33.508-8.1685-65.663-53.215-73.242-102.61-3.0486-19.866-3.6674-35.234-2.135-53.029 2.8099-32.629 11.199-56.702 28.437-81.599 7.3728-10.648 8.4085-12.883 7.9184-17.081-0.7999-6.8517 2.0289-40.104 4.337-50.982 2.4621-11.603 3.1477-12.438 46.018-56.012 37.555-38.172 65.38-64.783 98.8-94.49l22.108-19.652 0.90004-35.141c1.9677-76.828 9.612-173.28 14.301-180.45 3.5215-5.3835 69.608-54.872 109.22-81.791 16.5-11.212 30.224-20.568 30.497-20.791 0.2736-0.22306-1.3658-3.2185-3.6431-6.6566-10.693-16.144-12.457-28.621-8.195-57.965 3.3871-23.32 7.9263-40.152 17.021-63.113 4.9095-12.395 7.1158-16.382 10.055-18.169 2.0707-1.2593 13.35-4.8719 25.065-8.028 16.243-4.3758 21.13-6.1819 20.583-7.6063-0.39424-1.0274-0.73228-2.5689-0.7512-3.4256-0.0189-0.85668-2.4261-2.6605-5.3493-4.0084-7.8853-3.636-8.6176-5.8271-8.6068-25.753 0.0107-19.195 0.70478-21.169 8.5988-24.439 2.9755-1.2325 3.93-2.6859 4.6272-7.046 2.053-12.838 15.326-28.619 29.761-35.384 7.0975-3.3261 8.9644-3.5945 25.004-3.5945 16.766 0 17.631 0.14094 26.42 4.304 10.219 4.8399 21.662 15.674 25.466 24.111 1.5606 3.4607 3.9326 5.9583 7.0875 7.4628l4.7419 2.2612-0.8682 11.295c-0.69795 9.0799-0.45848 11.92 1.2211 14.484 1.7981 2.7442 1.8802 4.7377 0.58942 14.302-2.813 20.843-3.4232 22.229-11.323 25.723-5.4458 2.4084-7.2972 4.0309-8.4838 7.4346-1.8787 5.3892-1.8823 5.2893 0.18955 5.2893 2.1275 0 32.599 18.016 36.465 21.56 3.779 3.4638 16.436 28.232 21.801 42.663 3.2741 8.8058 4.9784 11.718 7.1614 12.237 1.5756 0.37443 66.765 10.095 144.86 21.602l142 20.922 17.009 11.512 8.8623-6.2479c4.8742-3.4363 37.864-26.633 73.31-51.547l64.448-45.299 4.7042-9.6426c6.7004-13.734 14.409-21.66 44.11-45.348 14.423-11.503 40.623-32.62 58.223-46.927s35.735-28.629 40.3-31.828c19.812-13.882 45.226-18.958 74.522-14.883 41.362 5.753 77.979 39.394 88.077 80.921 3.1954 13.14 2.8654 39.261-0.663 52.488-5.0748 19.022-17.288 38.895-31.212 50.785-8.4601 7.2246-21.138 15.54-28.389 18.619-98.111 41.665-139.02 58.615-145.58 60.315-4.4573 1.155-13.158 2.1-19.336 2.1h-11.232l-59.243 31.749c-32.584 17.462-65.693 35.195-73.576 39.406-7.8834 4.2114-14.333 7.8025-14.333 7.9803 0 0.17776 2.3196 7.2275 5.1546 15.666 6.2973 18.744 11.609 40.764 13.448 55.743 0.7567 6.1662 1.5308 11.355 1.7201 11.532 0.1894 0.17619 8.4443 1.292 18.344 2.4795 12.671 1.5199 18.987 2.8798 21.333 4.5933 4.2113 3.0752 6.4143 11.175 6.5776 24.184 0.2109 16.804-1.6763 15.46 23.192 16.511 56.143 2.3724 122.99 11.638 143.38 19.874 37.078 14.977 66.65 46.869 91.483 98.662 10.72 22.359 13.283 29.926 12.045 35.564-1.0606 4.8285-3.0131 6.5694-25.76 22.967l-19.08 13.755-0.4596 34.667c-0.7778 58.654-6.614 101.78-20.29 149.94-14.837 52.239-43.737 108.95-74.012 145.23-19.838 23.773-50.572 50.956-72.326 63.968l-9.2492 5.5322-498.75-0.1134c-387.35-0.088-500.24-0.4763-505.42-1.7385zm513.02-24.995c16.099-8.1268 50.309-33.452 50.309-37.242 0-0.6524-11.55-1.3491-25.667-1.5482-30.904-0.4361-30.793-0.3444-18.723-15.502l7.7228-9.698 60.328 1.8059 10.578-15.825c9.4205-14.093 29.76-51.61 29.76-54.892 0-0.6945-8.25-1.6472-18.333-2.117-29.469-1.3731-36.054-2.1507-36.901-4.3571-0.41606-1.0843 1.3378-6.5042 3.8974-12.044l4.6539-10.073 58.239 1.9382 6.2228-19.132c5.6649-17.417 16.256-58.343 15.29-59.081-0.22062-0.1686-12.01-0.9379-26.199-1.7097-14.287-0.7771-26.423-2.0291-27.2-2.8058-1.7436-1.7436 1.2721-20.884 3.594-22.811 0.99611-0.8267 8.0004-0.8464 19.479-0.055 9.8582 0.6797 21.878 1.2571 26.71 1.283l8.7864 0.047 2.1599-15.667c1.8744-13.596 3.1517-26.578 5.4924-55.826l0.54632-6.8264-9.5524-0.82464c-5.2538-0.45352-17.052-1.2129-26.219-1.6874-9.1667-0.47456-17.764-1.4278-19.104-2.1182-2.169-1.1171-2.3371-2.382-1.5258-11.486 0.50141-5.6269 1.5983-10.945 2.4375-11.818 1.1798-1.2276 7.2707-1.1608 26.859 0.29476 13.933 1.0354 25.783 1.8998 26.333 1.921s1-12.261 1-27.295c0-20.953-0.38903-27.344-1.6667-27.379-0.91667-0.0253-41.567-2.651-90.333-5.835-48.767-3.184-88.771-5.709-88.898-5.6113-0.12734 0.0977-0.89764 18.774-1.7117 41.502-2.3102 64.501-6.9618 101.22-18.916 149.32-24.589 98.945-77.668 189.65-138.24 236.24-6.3625 4.8936-12.138 9.3916-12.835 9.9955-0.69667 0.6039 40.27 1.0981 91.038 1.0981h92.305zm495.66-1.6744c11.012-7.4514 34.652-27.097 34.652-28.796 0-0.7754-10.253-1.4358-25.667-1.6533-30.223-0.4264-29.651 0.021-18.333-14.342l7.3333-9.3064 61.325 0.2333 8.9748-12.474c4.9361-6.8606 13.8-20.574 19.697-30.474l10.722-18-12.36-0.9541c-6.7978-0.5248-19.452-1.3366-28.121-1.8041-10.284-0.5546-15.974-1.403-16.372-2.4413-0.3359-0.8752 1.5593-6.2878 4.2114-12.028l4.822-10.437 22.883 0.8786c12.586 0.4832 25.926 1.2133 29.644 1.6224l6.7606 0.7439 6.1102-15.79c6.3458-16.399 17.035-48.896 17.035-51.788 0-1.7772-7.3968-2.5916-37.78-4.1598-13.442-0.6937-17.279-1.3144-17.885-2.8927-0.4242-1.1052 0.3481-6.5041 1.716-11.997l2.4872-9.9879 24.064 0.9023c13.235 0.4963 26.004 1.2442 28.376 1.6621 3.6643 0.6456 4.4921 0.2844 5.5153-2.4066 3.0348-7.9822 10.198-71.245 8.303-73.333-0.438-0.48277-11.896-1.5958-25.463-2.4735-14.617-0.94561-25.294-2.2176-26.207-3.1222-1.8008-1.7843-0.4861-20.044 1.5907-22.093 0.8102-0.79929 10.13-0.62202 25.283 0.4809 13.2 0.96077 24.508 1.2852 25.128 0.72089 1.2296-1.118-0.2561-34.812-1.6333-37.04-0.4759-0.76996-30.871-4.0383-69.504-7.4736-37.762-3.3579-71.358-6.4446-74.658-6.8593l-6-0.754-0.099 27.079c-0.4392 120.38-40.186 241.69-104.37 318.53-5.8713 7.0289-18.893 20.679-28.938 30.333l-18.263 17.553h146.36zm-848.28 1.0694c13.633-6.7937 26.393-25.548 31.669-46.548 3.1896-12.694 3.2243-33.475 0.0735-43.96-8.6032-28.628-26.177-40.508-47.736-32.269-13.573 5.1865-29.42 27.933-33.772 48.476-2.4991 11.795-2.4996 32.498-1e-3 42.091 4.0202 15.435 12.298 27.937 21.833 32.974 7.372 3.8949 19.235 3.57 27.934-0.7649zm-22.88-16.239c-0.34825-0.5635 1.7163-0.8004 4.588-0.5266 5.712 0.5447 6.9839-1.4116 2.4837-3.8201-1.5056-0.8057-4.824-4.7269-7.3743-8.7135-4.4797-7.003-4.8387-7.2486-10.596-7.2486-4.408 0-5.959-0.5205-5.959-2 0-1.4729 1.5368-2 5.8316-2h5.8316l-0.87892-4.3333c-0.79328-3.9111-1.394-4.3745-6.1649-4.7558-2.9073-0.2323-5.754-0.8803-6.3261-1.4401-2.1831-2.1359 1.5508-24.341 5.5189-32.821 4.2838-9.1542 11.957-18.439 17.688-21.403 4.8262-2.4957 16.262-2.4498 21.164 0.085 5.0599 2.6165 10.242 9.5354 13.434 17.937 3.0959 8.1478 3.4871 27.841 0.75604 38.064-3.8346 14.355-12.838 27.575-21.441 31.483-5.4174 2.4606-17.363 3.4216-18.556 1.4926zm145.53 15.42c3.5239-1.6284 10.736-7.327 16.43-12.982 8.2693-8.2128 11.283-12.426 16.268-22.746 9.2806-19.211 12.145-31.726 12.054-52.667-0.0653-14.991-0.55068-18.789-3.5923-28.105-3.8911-11.918-11.511-24.719-17.928-30.118-13.905-11.701-36.667-9.6504-53.248 4.7963-7.1529 6.2322-19.022 24.182-23.426 35.426-9.9737 25.466-10.412 59.57-1.0388 80.761 6.2421 14.111 18.369 25.763 29.872 28.699 6.304 1.6093 17.517 0.213 24.61-3.0645zm-27.141-21.205c-0.61108-0.9888 4e-3 -1.1854 1.863-0.5954 1.5264 0.4845 4.9087 0.4807 7.5161-0.01l4.7407-0.8893-5.9041-5.197c-3.2473-2.8584-7.2079-7.8903-8.8014-11.182l-2.8973-5.9835h-7.7255c-6.6042 0-7.8268-0.3871-8.4229-2.6667-0.63455-2.4265-0.0409-2.6666 6.5916-2.6666h7.289l-0.41381-5-0.41383-5-15.598-0.8077 0.88752-10.93c1.1516-14.181 3.7443-23.266 10.181-35.674 11.217-21.624 28.17-30.203 44.781-22.661 20.339 9.2343 26.757 51.931 12.353 82.185-9.1711 19.262-21.142 28.554-36.787 28.554-4.6497 0-8.729-0.6518-9.2385-1.4761zm-230.53 15.407c19.337-5.0353 37.509-22.35 50.304-47.931 16.903-33.795 19.085-81.537 5.3396-116.85-4.8253-12.398-14.616-27.442-21.94-33.711l-5.4222-4.6413-8.0999 5.5006c-7.3468 4.9891-7.8582 5.6341-5.5005 6.9368 6.7367 3.7222 18.885 17.88 23.542 27.436 7.147 14.665 9.189 23.668 9.9798 44 1.4404 37.036-8.0298 65.186-29.148 86.64-11.813 12.001-28.972 17.318-43.11 13.36-8.5963-2.4068-8.4314-3.5815 0.41381-2.9483 4.1736 0.2988 9.6545 0.01 12.18-0.6525l4.5912-1.1957-4.8455-2.9947c-6.8501-4.2336-17.573-16.366-21.232-24.024-2.9805-6.2366-3.3707-6.5292-9.7712-7.3286-3.6667-0.4579-9.2315-0.8378-12.366-0.8442-4.8863-0.01-5.8852-0.4997-7-3.4317-0.71519-1.8811-1.3003-3.6811-1.3003-4 0-0.319 5.3008-0.5799 11.78-0.5799h11.78l-4.0785-15.655-10.51-0.7203c-5.7806-0.3962-10.914-1.1274-11.407-1.6248-1.7262-1.7407-0.51939-33.309 1.6514-43.199 1.191-5.426 1.9208-10.11 1.6218-10.409-0.29903-0.2991-3.2512 1.3647-6.5604 3.6972l-6.0167 4.241-1.6359 13.354c-3.4574 28.224 0.18396 55.933 10.101 76.863 15.895 33.549 39.296 47.842 66.662 40.716zm151.05-172.58 19.074-9.3152-4.0746-5.0182c-2.2411-2.76-5.1318-6.3567-6.4239-7.9927l-2.3493-2.9744-29.333 18.063 0.35437 5.2763c0.47374 7.0537 1.4801 11.276 2.6876 11.276 0.54512 0 9.5744-4.1918 20.065-9.3151zm182.89-7.8724c32.237-11.132 64.876-48.448 80.596-92.146 11.757-32.681 16.825-76.901 12.688-110.7-3.1166-25.465-12.014-53.627-22.836-72.28l-5.2109-8.9817-22.535 16.433 2.7533 4.0988c1.5143 2.2543 5.4368 9.6324 8.7166 16.396 21.362 44.051 19.593 111.19-4.199 159.32-11.172 22.601-28.581 43.435-43.694 52.292-9.0614 5.3103-26.422 9.2462-36.906 8.3672-8.7663-0.735-21.323-4.6611-26.116-8.1656-2.2292-1.63-1.5832-1.6299 4.7036 9e-4 8.8188 2.2876 18.346 2.4091 28.53 0.3639l7.6014-1.5266-5.0456-2.2787c-12.368-5.5857-27.391-22.17-36.538-40.335l-5.2036-10.333h-36.881l-1.5444-5.1547c-0.84941-2.835-1.5444-5.835-1.5444-6.6666 0-1.0496 5.3014-1.512 17.333-1.512 9.5333 0 17.333-0.5105 17.333-1.1344s-0.56491-2.8739-1.2554-5-1.933-7.3156-2.7612-11.532l-1.5058-7.6667h-34.129l-0.82644-5c-0.45455-2.75-0.83306-10-0.84112-16.111-8e-3 -6.1111-0.48964-10.911-1.0702-10.667-0.58049 0.24444-4.5357 2.8444-8.7894 5.7778l-7.7339 5.3333 0.78331 14.79c2.0038 37.836 12.751 71.321 31.276 97.446 13.643 19.24 28.673 31.173 46.754 37.122 8.7951 2.8936 11.992 3.2659 24.765 2.8845 10.854-0.3241 16.92-1.2159 23.333-3.4307zm-194-50.147c22.733-15.277 41.526-27.919 41.76-28.093 0.23493-0.1738-0.53552-5.3239-1.7121-11.445-1.1766-6.1206-2.5688-16.974-3.0938-24.12l-0.95455-12.991-60 42.083c-33 23.146-60.429 42.501-60.954 43.012s2.2992 3.4464 6.2756 6.5232c3.9764 3.0767 10.369 9.7891 14.206 14.916l6.9763 9.3223 8.0814-5.7159c4.4448-3.1438 26.681-18.216 49.415-33.493zm805.64-167c-0.7932-24.566-2.6449-32.943-11.275-51-5.1173-10.708-7.8304-14.444-17.543-24.159-17.162-17.167-40.066-30.634-62.084-36.505-6.5076-1.7351-177.8-19.553-179.11-18.631-0.20453 0.14364 3.2416 7.141 7.6582 15.55 8.4969 16.177 18.714 44.759 18.714 52.352 0 4.0896-1.809 6.2458-18.667 22.249l-18.667 17.72v9.0453c0 8.96 0.0345 9.046 3.6667 9.1224 2.0167 0.0424 63.067 5.6724 135.67 12.511 72.6 6.8386 134.32 12.504 137.16 12.59l5.1593 0.15566zm-37.461 4.9032c-7.1041-5.588-3.0752-18.57 5.7631-18.57 5.6718 0 7.9313 1.2225 10.135 5.4834 2.4873 4.8098 1.3416 9.7311-3.0739 13.204-4.3129 3.3925-8.409 3.3549-12.824-0.11787zm-67.416-8.7497c-3.1169-3.9626-3.4732-7.3137-1.2305-11.575 2.1114-4.0112 3.7244-4.8715 9.1338-4.8715s7.0224 0.86028 9.1337 4.8715c2.2427 4.2608 1.8864 7.612-1.2305 11.575-2.1316 2.7098-3.9387 3.5131-7.9032 3.5131s-5.7717-0.80333-7.9033-3.5131zm-72.824-6.4263c-2.063-2.063-3.2727-4.7961-3.2727-7.3939s1.2097-5.331 3.2727-7.3939c2.063-2.063 4.7961-3.2727 7.3939-3.2727 2.5979 0 5.331 1.2098 7.394 3.2727 2.063 2.063 3.2727 4.7961 3.2727 7.3939s-1.2097 5.331-3.2727 7.3939c-2.063 2.063-4.7961 3.2727-7.394 3.2727-2.5978 0-5.3309-1.2098-7.3939-3.2727zm-73.843-8.2404c-5.9153-7.5201-1.617-16.487 7.9032-16.487s13.819 8.9667 7.9032 16.487c-2.1316 2.7098-3.9387 3.5132-7.9032 3.5132s-5.7717-0.80334-7.9032-3.5132zm478.57-3.3467c0-2.4685-13.954-27.764-22.404-40.614-21.53-32.741-45.883-51.788-75.596-59.127-24.136-5.9611-74.014-12.406-113.33-14.645-30.246-1.722-46-2.4047-46-1.9936 0 0.17627 3.9342 2.1615 8.7426 4.4116 37.736 17.659 63.169 47.859 71.997 85.494 1.2902 5.5 2.5384 10.237 2.7738 10.526 0.2355 0.28943 38.991 4.2658 86.124 8.8365 47.133 4.5706 86.146 8.3838 86.696 8.4738 0.55 0.09 1-0.5234 1-1.363zm-967.33-67.803c64.415-34.854 133.68-65.533 175.19-77.593l15.042-4.3703 10.026 5.2988c21.899 11.574 40.557 36.827 51.715 69.994 2.6719 7.9421 3.2963 8.7506 7.4693 9.67 6.0675 1.3368 211.96 18.698 212.72 17.937 0.32659-0.32657-1.2021-5.5146-3.397-11.529-12.145-33.277-36.264-65.478-61.671-82.336-22.423-14.878-58.748-22.283-133.1-27.134-23.1-1.507-48.859-3.2512-57.242-3.8761l-15.242-1.1361-16.758 5.348c-39.53 12.615-94.924 37.905-136.76 62.438-19.62 11.505-57.487 36.036-76.667 49.665-19.173 13.624-20.235 14.083 28.667-12.377zm649.56-53.004c2.9229-3.4833 6.3666-7.9539 7.6525-9.9345s5.0065-4.893 8.268-6.4719c5.2231-2.5284 7.7135-2.8144 20.89-2.3988l14.96 0.47188-0.465-8.6667c-0.2557-4.7667-0.6183-8.8293-0.8058-9.028-0.3171-0.33627-437.18-53.639-439.62-53.639-0.60984 0-1.1088 4.1568-1.1088 9.2374v9.2374l7 0.72525c3.85 0.39888 16 1.3632 27 2.1428 50.834 3.603 90.664 11.696 113.32 23.025 10.816 5.4088 29.102 17.847 37.905 25.785l7.2252 6.5143 90.108 9.4996c49.56 5.2248 92.864 9.5748 96.233 9.6667 5.7506 0.15684 6.4493-0.21981 11.439-6.1663zm5.7617-64.667c-0.032-12.375-6.6351-41.703-14.252-63.303l-3.3981-9.6366-24.342 12.606 0.4314 16.667c0.3916 15.128-1.4308 31.297-4.3667 38.741-0.6954 1.7634 2.4394 2.4874 20.892 4.8253 11.94 1.5129 22.46 2.8293 23.377 2.9254 0.9167 0.0961 1.6631-1.1753 1.6588-2.8253zm-64.69-14.477c2.4042-9.5272 3.8345-27.789 2.4606-31.414-1.0497-2.7701-2.2974-2.2578-29.753 12.215-27.112 14.292-32.548 17.916-30.277 20.187 1.4362 1.4362 53.418 8.2137 54.678 7.1291 0.5924-0.50984 1.8934-4.1623 2.8913-8.1166zm-137.18-15.19c9.3198-29.895 18.457-57.169 20.892-62.361 2.5601-5.458 4.9423-7.662 16.783-15.527l13.799-9.1661-5.1325-0.82452c-13.14-2.1109-124.04-16.788-126.84-16.788-3.6881 0-3.8813-0.6658 3.2882 11.334 14.239 23.831 15.912 49.753 5.0731 78.609-2.4757 6.591-4.3803 12.105-4.2325 12.252 0.65157 0.65159 67.315 8.1905 70.814 8.0083 3.3165-0.1728 4.1451-0.99791 5.56-5.5364zm-110.55-28.333c-0.96693-24.163-4.5663-49.074-10.208-70.648-2.1642-8.2762-3.6115-15.89-3.2162-16.921 1.0603-2.7631 10.123-8.6858 15.608-10.2 3.8386-1.0599 22.185 1.0705 93.474 10.855l88.698 12.173 19.369-13.749c16.795-11.921 19.116-14.002 17.463-15.655-2.2808-2.2808-320.69-48.554-326.29-47.419-5.1282 1.0388-8.2609 5.0458-7.4358 9.511 0.37799 2.0456 4.0894 13.319 8.2477 25.053 13.116 37.01 22.014 75.815 24.982 108.95 0.83505 9.3236 1.9385 17.632 2.4521 18.463 0.8873 1.4357 61.342 10.147 72.488 10.445l5.2057 0.13933zm-47.571 3.6667c-3.7571-3.757-3.6218-12.34 0.25141-15.948 6.2983-5.8678 15.021-1.3968 15.021 7.6992 0 9.6599-9.0005 14.521-15.273 8.2488zm-8.46-61.105c-2.7818-3.0738-2.8504-10.716-0.13106-14.598 1.5137-2.1611 3.4212-2.9634 7.0459-2.9634 4.0721 0 5.3836 0.69974 7.2577 3.8724 2.8419 4.811 2.9143 9.3061 0.21188 13.164-2.6708 3.8131-11.129 4.1218-14.384 0.52502zm-14.934-55.501c-2.063-2.063-3.2727-4.7961-3.2727-7.3939 0-5.0713 5.1866-10.667 9.8874-10.667 7.9735 0 12.026 12.871 5.8611 18.615-3.9007 3.6341-8.4916 3.4302-12.476-0.55412zm349.62 38.102 125.56-76.312-4.0132-8.5759c-3.0205-6.4548-4.3727-11.96-5.467-22.258-0.7996-7.5254-1.5985-13.885-1.7754-14.132-0.4818-0.67315-235.26 162.16-239.7 166.25-7.6647 7.0534-11.172 21.866-7.4783 31.582 1.2581 3.309 1.5639 3.4259 4.3333 1.6574 1.6389-1.0465 59.482-36.243 128.54-78.215zm-448.23-85.835c22.309-10.689 35.106-14.282 54.461-15.294l14.461-0.75591-0.84876-4.1384c-1.907-9.298-3.4781-24.545-3.1745-30.805l0.32334-6.6667-7.8833-3.1427c-8.8632-3.5334-8.8738-3.5286-14.312 6.3915-1.5626 2.8503-4.7284 5.3163-9.814 7.6446-6.9644 3.1884-8.5333 3.3899-21.693 2.7864-10.233-0.46934-16.342-1.4783-21.924-3.6211-10.041-3.8546-26.267-14.746-31.86-21.386l-4.4019-5.226-10.333 1.4805c-5.7307 0.82106-10.333 2.1339-10.333 2.9475 0 0.80685 1.1826 5.6024 2.628 10.657 3.8818 13.574 6.8859 38.348 6.4349 53.067l-0.39625 12.932-7.309-4.5121c-4.0199-2.4816-7.5326-4.2884-7.8061-4.015-0.27341 0.27342 3.4781 7.0015 8.3367 14.951l8.8338 14.454 18.972-9.4028c10.435-5.1715 27.372-13.427 37.639-18.346zm625.67-47.372 45.667-31.262v-5.7059c0-5.9033 4.57-22.691 6.5021-23.885 0.603-0.3727 1.2182 3.497 1.3672 8.5994 1.061 36.336 28.421 69.821 64.744 79.239 9.662 2.505 30.35 2.6233 41.386 0.23665 27.34-5.9122 50.536-27.119 60.238-55.073 3.1178-8.9837 3.6252-12.572 3.6433-25.77 0.029-21.798-4.5267-35.481-17.388-52.215-24.66-32.087-64.991-42.809-104.74-27.844-11.273 4.2436-56.916 39.611-111.08 86.076-28.439 24.395-33.642 30.774-38.52 47.225-3.3291 11.229-2.5993 34.602 1.0152 32.511 0.8274-0.47851 22.054-14.938 47.171-32.132zm124.26 7.865c-12.152-3.8889-20.919-9.4677-29.991-19.085-14.959-15.857-19.98-29.734-19.059-52.668 0.4894-12.186 0.9749-14.252 5.5005-23.409 11.601-23.473 31.648-37.27 56.957-39.197 17.404-1.3257 35.225 4.0964 46.667 14.198l4.6666 4.1201-4.5262-2.1898c-2.4895-1.2044-7.0128-2.2795-10.052-2.3891-5.4594-0.19694-5.9824 0.22369-43.474 34.967-33.515 31.058-37.925 35.611-37.754 38.979 0.2221 4.3572 6.4336 15.668 9.184 16.723 1.0101 0.38764 24.403-12.322 51.983-28.245 27.581-15.922 51.132-29.026 52.336-29.12 3.0756-0.2397 5.9336 6.3513 6.1334 14.144l0.1692 6.6003-49.671 23.471c-27.319 12.909-49.201 23.941-48.627 24.515 0.5742 0.57427 3.329 2.1555 6.1217 3.5139l5.0775 2.4698 39.55-11.753c21.752-6.464 39.972-11.613 40.489-11.443 1.9388 0.63978-3.7248 9.6603-10.213 16.266-15.548 15.831-29.837 22.012-50.727 21.944-9.0049-0.0295-15.738-0.81301-20.74-2.4138zm-720.43-57.374c4.9253-2.2366 5.7913-3.369 8.3333-10.896 3.7357-11.062 3.608-12.388-1.4108-14.642-2.9048-1.3044-4.7311-3.3825-5.7771-6.574-1.2368-3.7734-2.2881-4.7429-5.4923-5.0651-3.155-0.3172-4.3554 0.33628-5.8895 3.2062-2.1483 4.019-8.4946 7.1922-14.384 7.1922-7.1908 0-11.957 1.5556-12.628 4.1216-0.3599 1.3762 0.35216 5.9618 1.5823 10.19 2.1061 7.2393 2.6572 7.9021 9.442 11.355 8.6672 4.4106 18.081 4.8098 26.224 1.1121zm21.366-40.779c1.8728-6.2453 2.2558-19.223 0.64233-21.768-2.3864-3.764-22.622-7.092-47.63-7.8331-30.513-0.90424-29.875-1.1774-29.875 12.783 0 5.7314 0.6332 12.237 1.4071 14.457 1.6481 4.7276 5.1903 5.6568 21.653 5.6801 11.048 0.0156 11.454-0.18477 18.726-9.2405 2.0337-2.5327 3.2873-2.9169 7.3333-2.2479 2.6842 0.44387 6.2491 0.81363 7.9222 0.8217 1.6855 8e-3 3.4082 1.0551 3.8635 2.348 3.8102 10.82 4.1274 11.184 9.3592 10.749 4.5541-0.37887 5.1406-0.88993 6.5978-5.7492z" stroke-width="1.3333"/>
	</g>
</svg>
