<svg width="40" height="40" enable-background="new" version="1.1" viewBox="0 0 10.583 10.583" xmlns="http://www.w3.org/2000/svg">
	<g>
		<g transform="matrix(1.36 0 0 1.36 -11.957 -293.87)" enable-background="new" fill="#fff">
			<path id="TWET" d="m16.555 217.74c-0.28415 0.12577-0.58789 0.21068-0.90796 0.24989 0.3266-0.19598 0.57809-0.50626 0.69567-0.87531-0.30538 0.18127-0.64341 0.31353-1.0043 0.38376-0.28905-0.30866-0.70057-0.50134-1.1546-0.50134-0.87367 0-1.5808 0.70874-1.5808 1.5824 0 0.12408 0.01309 0.24495 0.04084 0.36088-1.3146-0.0653-2.4806-0.69566-3.2595-1.6542-0.13554 0.23352-0.21393 0.50623-0.21393 0.79528 0 0.5487 0.28088 1.0337 0.70547 1.3179-0.26128-8e-3 -0.50624-0.0784-0.71853-0.19761v0.0196c0 0.76752 0.54543 1.406 1.2689 1.5514-0.13228 0.0359-0.27272 0.0555-0.41642 0.0555-0.10124 0-0.20086-0.01-0.29721-0.0295 0.20086 0.62873 0.78549 1.086 1.4779 1.099-0.54054 0.42459-1.2231 0.67769-1.9645 0.67769-0.12738 0-0.25312-9e-3 -0.37723-0.0229 0.6973 0.45395 1.5285 0.71525 2.4201 0.71525 2.9117 0 4.5023-2.412 4.5023-4.5039 0-0.0685-0.0017-0.13718-5e-3 -0.20411 0.30864-0.22374 0.57646-0.50136 0.78875-0.81979z" fill="#fff" stroke-width=".01633"/>
		</g>
	</g>
</svg>
